M48
; DRILL file {KiCad (5.99.0-273-g43768b71c)} date 20/11/2019 15:23:45
; FORMAT={-:-/ absolute / inch / decimal}
; #@! TF.CreationDate,2019-11-20T15:23:45-05:00
; #@! TF.GenerationSoftware,Kicad,Pcbnew,(5.99.0-273-g43768b71c)
FMAT,2
INCH
T1C0.0200
T2C0.0320
T3C0.0394
T4C0.0512
T5C0.0591
T6C0.0620
T7C0.1000
T8C0.1250
%
G90
G05
T1
X4.98Y-4.165
X4.985Y-4.045
X4.985Y-4.1
X4.99Y-3.98
X5.11Y-4.5
X5.115Y-4.575
X5.16Y-4.445
X5.16Y-4.565
X5.165Y-4.18
X5.165Y-4.26
X5.19Y-4.305
X5.2Y-4.665
X5.21Y-4.125
X5.215Y-4.045
X5.295Y-4.445
X5.325Y-4.485
X5.375Y-3.92
X5.425Y-4.71
X5.425Y-4.76
X5.455Y-3.98
X5.46Y-3.72
X5.465Y-4.4
X5.48Y-4.355
X5.51Y-3.765
X5.515Y-3.39
X5.515Y-3.45
X5.515Y-4.42
X5.565Y-3.495
X5.63Y-3.55
X5.635Y-3.495
X5.655Y-3.89
X5.695Y-3.49
X5.735Y-3.39
X5.735Y-3.44
X5.755Y-4.345
X5.81Y-3.69
X5.855Y-4.21
X5.995Y-3.95
X6.0Y-4.525
X6.01Y-4.365
X6.025Y-4.0
X6.03Y-3.875
X6.07Y-4.525
X6.075Y-4.27
X6.175Y-3.7
X6.175Y-4.305
X6.235Y-4.53
X6.28Y-3.8
X6.295Y-3.695
X6.305Y-4.135
X7.25Y-4.0
X7.25Y-4.045
X7.25Y-4.09
X7.25Y-4.135
X7.25Y-4.175
T2
X4.825Y-3.895
X4.825Y-4.12
X4.825Y-3.795
X4.825Y-4.01
T3
X5.5Y-4.1
X5.5Y-4.2
X5.6Y-4.1
X5.6Y-4.2
X5.7Y-4.1
X5.7Y-4.2
X7.425Y-4.48
X7.425Y-3.725
X7.7Y-3.8181
X7.7Y-4.2119
X5.125Y-4.72
T4
X6.32Y-4.66
X6.52Y-4.66
X6.72Y-4.66
X7.8717Y-4.3969
X7.9583Y-4.0031
X5.95Y-3.5
X6.15Y-3.5
X6.35Y-3.5
T5
X7.424Y-3.8904
X7.424Y-4.105
X7.424Y-4.3196
X4.925Y-3.45
X4.925Y-3.65
X6.55Y-3.5
X6.75Y-3.5
X5.52Y-4.66
X5.72Y-4.66
X5.92Y-4.66
X6.12Y-4.66
X7.025Y-3.96
X7.025Y-4.16
T6
X6.75Y-3.65
T7
X7.7Y-3.605
X7.7Y-4.495
T8
X7.0Y-4.625
X7.0Y-3.525
X4.9Y-4.625
T0
M30
