G04 #@! TF.GenerationSoftware,KiCad,Pcbnew,(5.99.0-273-g43768b71c)*
G04 #@! TF.CreationDate,2019-11-20T15:23:38-05:00*
G04 #@! TF.ProjectId,Plasma_Pilot3,506c6173-6d61-45f5-9069-6c6f74332e6b,rev?*
G04 #@! TF.SameCoordinates,Original*
G04 #@! TF.FileFunction,Legend,Bot*
G04 #@! TF.FilePolarity,Positive*
%FSLAX46Y46*%
G04 Gerber Fmt 4.6, Leading zero omitted, Abs format (unit mm)*
G04 Created by KiCad (PCBNEW (5.99.0-273-g43768b71c)) date 2019-11-20 15:23:38*
%MOMM*%
%LPD*%
G04 APERTURE LIST*
%ADD10C,0.254000*%
%ADD11C,0.127000*%
%ADD12C,0.120000*%
%ADD13C,0.150000*%
%ADD14C,0.130048*%
G04 APERTURE END LIST*
D10*
X164573858Y-107668785D02*
X164573858Y-105763785D01*
X164211000Y-105763785D01*
X163993286Y-105854500D01*
X163848143Y-106035928D01*
X163775572Y-106217357D01*
X163703000Y-106580214D01*
X163703000Y-106852357D01*
X163775572Y-107215214D01*
X163848143Y-107396642D01*
X163993286Y-107578071D01*
X164211000Y-107668785D01*
X164573858Y-107668785D01*
X162179000Y-107668785D02*
X162687000Y-106761642D01*
X163049858Y-107668785D02*
X163049858Y-105763785D01*
X162469286Y-105763785D01*
X162324143Y-105854500D01*
X162251572Y-105945214D01*
X162179000Y-106126642D01*
X162179000Y-106398785D01*
X162251572Y-106580214D01*
X162324143Y-106670928D01*
X162469286Y-106761642D01*
X163049858Y-106761642D01*
X161525858Y-107668785D02*
X161525858Y-105763785D01*
X161017858Y-107124500D01*
X160509858Y-105763785D01*
X160509858Y-107668785D01*
X164646428Y-102452714D02*
X164573857Y-102362000D01*
X164428714Y-102271285D01*
X164065857Y-102271285D01*
X163920714Y-102362000D01*
X163848142Y-102452714D01*
X163775571Y-102634142D01*
X163775571Y-102815571D01*
X163848142Y-103087714D01*
X164719000Y-104176285D01*
X163775571Y-104176285D01*
X162832142Y-102271285D02*
X162687000Y-102271285D01*
X162541857Y-102362000D01*
X162469285Y-102452714D01*
X162396714Y-102634142D01*
X162324142Y-102997000D01*
X162324142Y-103450571D01*
X162396714Y-103813428D01*
X162469285Y-103994857D01*
X162541857Y-104085571D01*
X162687000Y-104176285D01*
X162832142Y-104176285D01*
X162977285Y-104085571D01*
X163049857Y-103994857D01*
X163122428Y-103813428D01*
X163195000Y-103450571D01*
X163195000Y-102997000D01*
X163122428Y-102634142D01*
X163049857Y-102452714D01*
X162977285Y-102362000D01*
X162832142Y-102271285D01*
X160509857Y-104176285D02*
X160509857Y-102271285D01*
X159639000Y-104176285D01*
X159639000Y-102271285D01*
X158695571Y-104176285D02*
X158840714Y-104085571D01*
X158913285Y-103994857D01*
X158985857Y-103813428D01*
X158985857Y-103269142D01*
X158913285Y-103087714D01*
X158840714Y-102997000D01*
X158695571Y-102906285D01*
X158477857Y-102906285D01*
X158332714Y-102997000D01*
X158260142Y-103087714D01*
X158187571Y-103269142D01*
X158187571Y-103813428D01*
X158260142Y-103994857D01*
X158332714Y-104085571D01*
X158477857Y-104176285D01*
X158695571Y-104176285D01*
X157679571Y-102906285D02*
X157316714Y-104176285D01*
X156953857Y-102906285D01*
X155284714Y-102452714D02*
X155212142Y-102362000D01*
X155067000Y-102271285D01*
X154704142Y-102271285D01*
X154559000Y-102362000D01*
X154486428Y-102452714D01*
X154413857Y-102634142D01*
X154413857Y-102815571D01*
X154486428Y-103087714D01*
X155357285Y-104176285D01*
X154413857Y-104176285D01*
X153470428Y-102271285D02*
X153325285Y-102271285D01*
X153180142Y-102362000D01*
X153107571Y-102452714D01*
X153035000Y-102634142D01*
X152962428Y-102997000D01*
X152962428Y-103450571D01*
X153035000Y-103813428D01*
X153107571Y-103994857D01*
X153180142Y-104085571D01*
X153325285Y-104176285D01*
X153470428Y-104176285D01*
X153615571Y-104085571D01*
X153688142Y-103994857D01*
X153760714Y-103813428D01*
X153833285Y-103450571D01*
X153833285Y-102997000D01*
X153760714Y-102634142D01*
X153688142Y-102452714D01*
X153615571Y-102362000D01*
X153470428Y-102271285D01*
X151511000Y-104176285D02*
X152381857Y-104176285D01*
X151946428Y-104176285D02*
X151946428Y-102271285D01*
X152091571Y-102543428D01*
X152236714Y-102724857D01*
X152381857Y-102815571D01*
X150785285Y-104176285D02*
X150495000Y-104176285D01*
X150349857Y-104085571D01*
X150277285Y-103994857D01*
X150132142Y-103722714D01*
X150059571Y-103359857D01*
X150059571Y-102634142D01*
X150132142Y-102452714D01*
X150204714Y-102362000D01*
X150349857Y-102271285D01*
X150640142Y-102271285D01*
X150785285Y-102362000D01*
X150857857Y-102452714D01*
X150930428Y-102634142D01*
X150930428Y-103087714D01*
X150857857Y-103269142D01*
X150785285Y-103359857D01*
X150640142Y-103450571D01*
X150349857Y-103450571D01*
X150204714Y-103359857D01*
X150132142Y-103269142D01*
X150059571Y-103087714D01*
X163703000Y-100502357D02*
X163775571Y-100593071D01*
X163993285Y-100683785D01*
X164138428Y-100683785D01*
X164356142Y-100593071D01*
X164501285Y-100411642D01*
X164573857Y-100230214D01*
X164646428Y-99867357D01*
X164646428Y-99595214D01*
X164573857Y-99232357D01*
X164501285Y-99050928D01*
X164356142Y-98869500D01*
X164138428Y-98778785D01*
X163993285Y-98778785D01*
X163775571Y-98869500D01*
X163703000Y-98960214D01*
X163267571Y-98778785D02*
X162396714Y-98778785D01*
X162832142Y-100683785D02*
X162832142Y-98778785D01*
X161163000Y-98778785D02*
X161888714Y-98778785D01*
X161961285Y-99685928D01*
X161888714Y-99595214D01*
X161743571Y-99504500D01*
X161380714Y-99504500D01*
X161235571Y-99595214D01*
X161163000Y-99685928D01*
X161090428Y-99867357D01*
X161090428Y-100320928D01*
X161163000Y-100502357D01*
X161235571Y-100593071D01*
X161380714Y-100683785D01*
X161743571Y-100683785D01*
X161888714Y-100593071D01*
X161961285Y-100502357D01*
X160509857Y-98960214D02*
X160437285Y-98869500D01*
X160292142Y-98778785D01*
X159929285Y-98778785D01*
X159784142Y-98869500D01*
X159711571Y-98960214D01*
X159639000Y-99141642D01*
X159639000Y-99323071D01*
X159711571Y-99595214D01*
X160582428Y-100683785D01*
X159639000Y-100683785D01*
X158695571Y-98778785D02*
X158550428Y-98778785D01*
X158405285Y-98869500D01*
X158332714Y-98960214D01*
X158260142Y-99141642D01*
X158187571Y-99504500D01*
X158187571Y-99958071D01*
X158260142Y-100320928D01*
X158332714Y-100502357D01*
X158405285Y-100593071D01*
X158550428Y-100683785D01*
X158695571Y-100683785D01*
X158840714Y-100593071D01*
X158913285Y-100502357D01*
X158985857Y-100320928D01*
X159058428Y-99958071D01*
X159058428Y-99504500D01*
X158985857Y-99141642D01*
X158913285Y-98960214D01*
X158840714Y-98869500D01*
X158695571Y-98778785D01*
X156373285Y-100683785D02*
X156373285Y-98778785D01*
X155792714Y-98778785D01*
X155647571Y-98869500D01*
X155575000Y-98960214D01*
X155502428Y-99141642D01*
X155502428Y-99413785D01*
X155575000Y-99595214D01*
X155647571Y-99685928D01*
X155792714Y-99776642D01*
X156373285Y-99776642D01*
X154849285Y-100683785D02*
X154849285Y-99413785D01*
X154849285Y-98778785D02*
X154921857Y-98869500D01*
X154849285Y-98960214D01*
X154776714Y-98869500D01*
X154849285Y-98778785D01*
X154849285Y-98960214D01*
X153905857Y-100683785D02*
X154051000Y-100593071D01*
X154123571Y-100411642D01*
X154123571Y-98778785D01*
X153107571Y-100683785D02*
X153252714Y-100593071D01*
X153325285Y-100502357D01*
X153397857Y-100320928D01*
X153397857Y-99776642D01*
X153325285Y-99595214D01*
X153252714Y-99504500D01*
X153107571Y-99413785D01*
X152889857Y-99413785D01*
X152744714Y-99504500D01*
X152672142Y-99595214D01*
X152599571Y-99776642D01*
X152599571Y-100320928D01*
X152672142Y-100502357D01*
X152744714Y-100593071D01*
X152889857Y-100683785D01*
X153107571Y-100683785D01*
X152164142Y-99413785D02*
X151583571Y-99413785D01*
X151946428Y-98778785D02*
X151946428Y-100411642D01*
X151873857Y-100593071D01*
X151728714Y-100683785D01*
X151583571Y-100683785D01*
X149987000Y-100139500D02*
X149261285Y-100139500D01*
X150132142Y-100683785D02*
X149624142Y-98778785D01*
X149116142Y-100683785D01*
X148608142Y-100683785D02*
X148608142Y-99413785D01*
X148608142Y-99776642D02*
X148535571Y-99595214D01*
X148463000Y-99504500D01*
X148317857Y-99413785D01*
X148172714Y-99413785D01*
X147011571Y-100593071D02*
X147156714Y-100683785D01*
X147447000Y-100683785D01*
X147592142Y-100593071D01*
X147664714Y-100502357D01*
X147737285Y-100320928D01*
X147737285Y-99776642D01*
X147664714Y-99595214D01*
X147592142Y-99504500D01*
X147447000Y-99413785D01*
X147156714Y-99413785D01*
X147011571Y-99504500D01*
X144326428Y-100502357D02*
X144399000Y-100593071D01*
X144616714Y-100683785D01*
X144761857Y-100683785D01*
X144979571Y-100593071D01*
X145124714Y-100411642D01*
X145197285Y-100230214D01*
X145269857Y-99867357D01*
X145269857Y-99595214D01*
X145197285Y-99232357D01*
X145124714Y-99050928D01*
X144979571Y-98869500D01*
X144761857Y-98778785D01*
X144616714Y-98778785D01*
X144399000Y-98869500D01*
X144326428Y-98960214D01*
X143673285Y-100683785D02*
X143673285Y-99413785D01*
X143673285Y-98778785D02*
X143745857Y-98869500D01*
X143673285Y-98960214D01*
X143600714Y-98869500D01*
X143673285Y-98778785D01*
X143673285Y-98960214D01*
X142947571Y-100683785D02*
X142947571Y-99413785D01*
X142947571Y-99776642D02*
X142875000Y-99595214D01*
X142802428Y-99504500D01*
X142657285Y-99413785D01*
X142512142Y-99413785D01*
X141351000Y-100593071D02*
X141496142Y-100683785D01*
X141786428Y-100683785D01*
X141931571Y-100593071D01*
X142004142Y-100502357D01*
X142076714Y-100320928D01*
X142076714Y-99776642D01*
X142004142Y-99595214D01*
X141931571Y-99504500D01*
X141786428Y-99413785D01*
X141496142Y-99413785D01*
X141351000Y-99504500D01*
X140044714Y-99413785D02*
X140044714Y-100683785D01*
X140697857Y-99413785D02*
X140697857Y-100411642D01*
X140625285Y-100593071D01*
X140480142Y-100683785D01*
X140262428Y-100683785D01*
X140117285Y-100593071D01*
X140044714Y-100502357D01*
X139319000Y-100683785D02*
X139319000Y-99413785D01*
X139319000Y-98778785D02*
X139391571Y-98869500D01*
X139319000Y-98960214D01*
X139246428Y-98869500D01*
X139319000Y-98778785D01*
X139319000Y-98960214D01*
X138811000Y-99413785D02*
X138230428Y-99413785D01*
X138593285Y-98778785D02*
X138593285Y-100411642D01*
X138520714Y-100593071D01*
X138375571Y-100683785D01*
X138230428Y-100683785D01*
X164991142Y-96540616D02*
X164991142Y-94810622D01*
X164991142Y-95634429D02*
X164265428Y-95634429D01*
X164265428Y-96540616D02*
X164265428Y-94810622D01*
X163721142Y-96046332D02*
X163116380Y-96046332D01*
X163842095Y-96540616D02*
X163418761Y-94810622D01*
X162995428Y-96540616D01*
X161967333Y-96540616D02*
X162572095Y-96540616D01*
X162572095Y-94810622D01*
X160939238Y-96540616D02*
X161544000Y-96540616D01*
X161544000Y-94810622D01*
X158822571Y-96375855D02*
X158883047Y-96458235D01*
X159064476Y-96540616D01*
X159185428Y-96540616D01*
X159366857Y-96458235D01*
X159487809Y-96293474D01*
X159548285Y-96128713D01*
X159608761Y-95799190D01*
X159608761Y-95552048D01*
X159548285Y-95222525D01*
X159487809Y-95057764D01*
X159366857Y-94893003D01*
X159185428Y-94810622D01*
X159064476Y-94810622D01*
X158883047Y-94893003D01*
X158822571Y-94975383D01*
X157734000Y-95387287D02*
X157734000Y-96540616D01*
X158278285Y-95387287D02*
X158278285Y-96293474D01*
X158217809Y-96458235D01*
X158096857Y-96540616D01*
X157915428Y-96540616D01*
X157794476Y-96458235D01*
X157734000Y-96375855D01*
X157129238Y-96540616D02*
X157129238Y-95387287D01*
X157129238Y-95716809D02*
X157068761Y-95552048D01*
X157008285Y-95469667D01*
X156887333Y-95387287D01*
X156766380Y-95387287D01*
X156343047Y-96540616D02*
X156343047Y-95387287D01*
X156343047Y-95716809D02*
X156282571Y-95552048D01*
X156222095Y-95469667D01*
X156101142Y-95387287D01*
X155980190Y-95387287D01*
X155073047Y-96458235D02*
X155194000Y-96540616D01*
X155435904Y-96540616D01*
X155556857Y-96458235D01*
X155617333Y-96293474D01*
X155617333Y-95634429D01*
X155556857Y-95469667D01*
X155435904Y-95387287D01*
X155194000Y-95387287D01*
X155073047Y-95469667D01*
X155012571Y-95634429D01*
X155012571Y-95799190D01*
X155617333Y-95963951D01*
X154468285Y-95387287D02*
X154468285Y-96540616D01*
X154468285Y-95552048D02*
X154407809Y-95469667D01*
X154286857Y-95387287D01*
X154105428Y-95387287D01*
X153984476Y-95469667D01*
X153924000Y-95634429D01*
X153924000Y-96540616D01*
X153500666Y-95387287D02*
X153016857Y-95387287D01*
X153319238Y-94810622D02*
X153319238Y-96293474D01*
X153258761Y-96458235D01*
X153137809Y-96540616D01*
X153016857Y-96540616D01*
X151686380Y-96458235D02*
X151504952Y-96540616D01*
X151202571Y-96540616D01*
X151081619Y-96458235D01*
X151021142Y-96375855D01*
X150960666Y-96211093D01*
X150960666Y-96046332D01*
X151021142Y-95881571D01*
X151081619Y-95799190D01*
X151202571Y-95716809D01*
X151444476Y-95634429D01*
X151565428Y-95552048D01*
X151625904Y-95469667D01*
X151686380Y-95304906D01*
X151686380Y-95140145D01*
X151625904Y-94975383D01*
X151565428Y-94893003D01*
X151444476Y-94810622D01*
X151142095Y-94810622D01*
X150960666Y-94893003D01*
X149932571Y-96458235D02*
X150053523Y-96540616D01*
X150295428Y-96540616D01*
X150416380Y-96458235D01*
X150476857Y-96293474D01*
X150476857Y-95634429D01*
X150416380Y-95469667D01*
X150295428Y-95387287D01*
X150053523Y-95387287D01*
X149932571Y-95469667D01*
X149872095Y-95634429D01*
X149872095Y-95799190D01*
X150476857Y-95963951D01*
X149388285Y-96458235D02*
X149267333Y-96540616D01*
X149025428Y-96540616D01*
X148904476Y-96458235D01*
X148844000Y-96293474D01*
X148844000Y-96211093D01*
X148904476Y-96046332D01*
X149025428Y-95963951D01*
X149206857Y-95963951D01*
X149327809Y-95881571D01*
X149388285Y-95716809D01*
X149388285Y-95634429D01*
X149327809Y-95469667D01*
X149206857Y-95387287D01*
X149025428Y-95387287D01*
X148904476Y-95469667D01*
X148299714Y-95387287D02*
X148299714Y-96540616D01*
X148299714Y-95552048D02*
X148239238Y-95469667D01*
X148118285Y-95387287D01*
X147936857Y-95387287D01*
X147815904Y-95469667D01*
X147755428Y-95634429D01*
X147755428Y-96540616D01*
X146666857Y-96458235D02*
X146787809Y-96540616D01*
X147029714Y-96540616D01*
X147150666Y-96458235D01*
X147211142Y-96293474D01*
X147211142Y-95634429D01*
X147150666Y-95469667D01*
X147029714Y-95387287D01*
X146787809Y-95387287D01*
X146666857Y-95469667D01*
X146606380Y-95634429D01*
X146606380Y-95799190D01*
X147211142Y-95963951D01*
X173070762Y-101030235D02*
X172889333Y-101112616D01*
X172586952Y-101112616D01*
X172466000Y-101030235D01*
X172405524Y-100947855D01*
X172345048Y-100783093D01*
X172345048Y-100618332D01*
X172405524Y-100453571D01*
X172466000Y-100371190D01*
X172586952Y-100288809D01*
X172828857Y-100206429D01*
X172949810Y-100124048D01*
X173010286Y-100041667D01*
X173070762Y-99876906D01*
X173070762Y-99712145D01*
X173010286Y-99547383D01*
X172949810Y-99465003D01*
X172828857Y-99382622D01*
X172526476Y-99382622D01*
X172345048Y-99465003D01*
X171619333Y-101112616D02*
X171740286Y-101030235D01*
X171800762Y-100947855D01*
X171861238Y-100783093D01*
X171861238Y-100288809D01*
X171800762Y-100124048D01*
X171740286Y-100041667D01*
X171619333Y-99959287D01*
X171437905Y-99959287D01*
X171316952Y-100041667D01*
X171256476Y-100124048D01*
X171196000Y-100288809D01*
X171196000Y-100783093D01*
X171256476Y-100947855D01*
X171316952Y-101030235D01*
X171437905Y-101112616D01*
X171619333Y-101112616D01*
X170107429Y-99959287D02*
X170107429Y-101112616D01*
X170651714Y-99959287D02*
X170651714Y-100865474D01*
X170591238Y-101030235D01*
X170470286Y-101112616D01*
X170288857Y-101112616D01*
X170167905Y-101030235D01*
X170107429Y-100947855D01*
X169502667Y-101112616D02*
X169502667Y-99959287D01*
X169502667Y-100288809D02*
X169442191Y-100124048D01*
X169381714Y-100041667D01*
X169260762Y-99959287D01*
X169139810Y-99959287D01*
X168172191Y-101030235D02*
X168293143Y-101112616D01*
X168535048Y-101112616D01*
X168656000Y-101030235D01*
X168716476Y-100947855D01*
X168776952Y-100783093D01*
X168776952Y-100288809D01*
X168716476Y-100124048D01*
X168656000Y-100041667D01*
X168535048Y-99959287D01*
X168293143Y-99959287D01*
X168172191Y-100041667D01*
X167144095Y-101030235D02*
X167265048Y-101112616D01*
X167506952Y-101112616D01*
X167627905Y-101030235D01*
X167688381Y-100865474D01*
X167688381Y-100206429D01*
X167627905Y-100041667D01*
X167506952Y-99959287D01*
X167265048Y-99959287D01*
X167144095Y-100041667D01*
X167083619Y-100206429D01*
X167083619Y-100371190D01*
X167688381Y-100535951D01*
X172345047Y-104672003D02*
X172466000Y-104589622D01*
X172647428Y-104589622D01*
X172828857Y-104672003D01*
X172949809Y-104836764D01*
X173010285Y-105001525D01*
X173070761Y-105331048D01*
X173070761Y-105578190D01*
X173010285Y-105907713D01*
X172949809Y-106072474D01*
X172828857Y-106237235D01*
X172647428Y-106319616D01*
X172526476Y-106319616D01*
X172345047Y-106237235D01*
X172284571Y-106154855D01*
X172284571Y-105578190D01*
X172526476Y-105578190D01*
X171196000Y-106319616D02*
X171196000Y-105413429D01*
X171256476Y-105248667D01*
X171377428Y-105166287D01*
X171619333Y-105166287D01*
X171740285Y-105248667D01*
X171196000Y-106237235D02*
X171316952Y-106319616D01*
X171619333Y-106319616D01*
X171740285Y-106237235D01*
X171800761Y-106072474D01*
X171800761Y-105907713D01*
X171740285Y-105742951D01*
X171619333Y-105660571D01*
X171316952Y-105660571D01*
X171196000Y-105578190D01*
X170772666Y-105166287D02*
X170288857Y-105166287D01*
X170591238Y-104589622D02*
X170591238Y-106072474D01*
X170530761Y-106237235D01*
X170409809Y-106319616D01*
X170288857Y-106319616D01*
X169381714Y-106237235D02*
X169502666Y-106319616D01*
X169744571Y-106319616D01*
X169865523Y-106237235D01*
X169926000Y-106072474D01*
X169926000Y-105413429D01*
X169865523Y-105248667D01*
X169744571Y-105166287D01*
X169502666Y-105166287D01*
X169381714Y-105248667D01*
X169321238Y-105413429D01*
X169321238Y-105578190D01*
X169926000Y-105742951D01*
D11*
X123941000Y-105359000D02*
X125741000Y-105359000D01*
X123941000Y-102159000D02*
X123941000Y-105359000D01*
X125741000Y-102159000D02*
X123941000Y-102159000D01*
X125741000Y-105359000D02*
X125741000Y-102159000D01*
X134961200Y-102184400D02*
X133161200Y-102184400D01*
X134961200Y-105384400D02*
X134961200Y-102184400D01*
X133161200Y-105384400D02*
X134961200Y-105384400D01*
X133161200Y-102184400D02*
X133161200Y-105384400D01*
D12*
X148290000Y-84000000D02*
X148790000Y-84000000D01*
X148290000Y-84740000D02*
X148290000Y-84000000D01*
X160063000Y-87877000D02*
X160016000Y-87831000D01*
X162360000Y-90175000D02*
X162325000Y-90139000D01*
X160256000Y-87661000D02*
X160221000Y-87626000D01*
X162565000Y-89969000D02*
X162518000Y-89923000D01*
X154983000Y-87877000D02*
X154936000Y-87831000D01*
X157280000Y-90175000D02*
X157245000Y-90139000D01*
X155176000Y-87661000D02*
X155141000Y-87626000D01*
X157485000Y-89969000D02*
X157438000Y-89923000D01*
X163890000Y-94161000D02*
X163890000Y-84240000D01*
X148530000Y-94161000D02*
X148530000Y-84240000D01*
X148530000Y-84240000D02*
X163890000Y-84240000D01*
X148530000Y-94161000D02*
X163890000Y-94161000D01*
X148530000Y-91201000D02*
X163890000Y-91201000D01*
X148530000Y-86300000D02*
X163890000Y-86300000D01*
X148530000Y-84800000D02*
X163890000Y-84800000D01*
X162970000Y-88900000D02*
G75*
G03X162970000Y-88900000I-1680000J0D01*
G01*
X157890000Y-88900000D02*
G75*
G03X157890000Y-88900000I-1680000J0D01*
G01*
X151158805Y-87219747D02*
G75*
G03X150446000Y-87365000I-28805J-1680253D01*
G01*
X149594574Y-88216958D02*
G75*
G03X149595000Y-89584000I1535426J-683042D01*
G01*
X150446958Y-90435426D02*
G75*
G03X151814000Y-90435000I683042J1535426D01*
G01*
X152665426Y-89583042D02*
G75*
G03X152665000Y-88216000I-1535426J683042D01*
G01*
X151813318Y-87365244D02*
G75*
G03X151130000Y-87220000I-683318J-1534756D01*
G01*
X157688000Y-113464000D02*
X158188000Y-113464000D01*
X157688000Y-114204000D02*
X157688000Y-113464000D01*
X169461000Y-117341000D02*
X169414000Y-117295000D01*
X171758000Y-119639000D02*
X171723000Y-119603000D01*
X169654000Y-117125000D02*
X169619000Y-117090000D01*
X171963000Y-119433000D02*
X171916000Y-119387000D01*
X164381000Y-117341000D02*
X164334000Y-117295000D01*
X166678000Y-119639000D02*
X166643000Y-119603000D01*
X164574000Y-117125000D02*
X164539000Y-117090000D01*
X166883000Y-119433000D02*
X166836000Y-119387000D01*
X173288000Y-123625000D02*
X173288000Y-113704000D01*
X157928000Y-123625000D02*
X157928000Y-113704000D01*
X157928000Y-113704000D02*
X173288000Y-113704000D01*
X157928000Y-123625000D02*
X173288000Y-123625000D01*
X157928000Y-120665000D02*
X173288000Y-120665000D01*
X157928000Y-115764000D02*
X173288000Y-115764000D01*
X157928000Y-114264000D02*
X173288000Y-114264000D01*
X172368000Y-118364000D02*
G75*
G03X172368000Y-118364000I-1680000J0D01*
G01*
X167288000Y-118364000D02*
G75*
G03X167288000Y-118364000I-1680000J0D01*
G01*
X160556805Y-116683747D02*
G75*
G03X159844000Y-116829000I-28805J-1680253D01*
G01*
X158992574Y-117680958D02*
G75*
G03X158993000Y-119048000I1535426J-683042D01*
G01*
X159844958Y-119899426D02*
G75*
G03X161212000Y-119899000I683042J1535426D01*
G01*
X162063426Y-119047042D02*
G75*
G03X162063000Y-117680000I-1535426J683042D01*
G01*
X161211318Y-116829244D02*
G75*
G03X160528000Y-116684000I-683318J-1534756D01*
G01*
D11*
X128460500Y-103695500D02*
X127317500Y-103695500D01*
X128460500Y-106108500D02*
X128460500Y-103695500D01*
X127317500Y-106108500D02*
X128460500Y-106108500D01*
X127317500Y-103695500D02*
X127317500Y-106108500D01*
D13*
X155408000Y-123114000D02*
X155408000Y-120364000D01*
X150408000Y-123114000D02*
X150408000Y-120364000D01*
X158158000Y-123114000D02*
X147658000Y-123114000D01*
X147658000Y-123114000D02*
X147658000Y-113614000D01*
X147658000Y-113614000D02*
X158158000Y-113614000D01*
X158158000Y-113614000D02*
X158158000Y-123114000D01*
X120345000Y-92670000D02*
X123095000Y-92670000D01*
X120345000Y-87670000D02*
X123095000Y-87670000D01*
X120345000Y-95420000D02*
X120345000Y-84920000D01*
X120345000Y-84920000D02*
X129845000Y-84920000D01*
X129845000Y-84920000D02*
X129845000Y-95420000D01*
X129845000Y-95420000D02*
X120345000Y-95420000D01*
X145248000Y-123114000D02*
X145248000Y-120364000D01*
X140248000Y-123114000D02*
X140248000Y-120364000D01*
X147998000Y-123114000D02*
X137498000Y-123114000D01*
X137498000Y-123114000D02*
X137498000Y-113614000D01*
X137498000Y-113614000D02*
X147998000Y-113614000D01*
X147998000Y-113614000D02*
X147998000Y-123114000D01*
X173685000Y-105624000D02*
X176435000Y-105624000D01*
X173685000Y-100624000D02*
X176435000Y-100624000D01*
X173685000Y-108374000D02*
X173685000Y-97874000D01*
X173685000Y-97874000D02*
X183185000Y-97874000D01*
X183185000Y-97874000D02*
X183185000Y-108374000D01*
X183185000Y-108374000D02*
X173685000Y-108374000D01*
X171410000Y-93650000D02*
X171410000Y-90900000D01*
X166410000Y-93650000D02*
X166410000Y-90900000D01*
X174160000Y-93650000D02*
X163660000Y-93650000D01*
X163660000Y-93650000D02*
X163660000Y-84150000D01*
X163660000Y-84150000D02*
X174160000Y-84150000D01*
X174160000Y-84150000D02*
X174160000Y-93650000D01*
D14*
X125218008Y-101119093D02*
X125251343Y-101090548D01*
X125284677Y-101004914D01*
X125284677Y-100947824D01*
X125251343Y-100862190D01*
X125184674Y-100805100D01*
X125118005Y-100776556D01*
X124984667Y-100748011D01*
X124884663Y-100748011D01*
X124751325Y-100776556D01*
X124684656Y-100805100D01*
X124617988Y-100862190D01*
X124584653Y-100947824D01*
X124584653Y-101004914D01*
X124617988Y-101090548D01*
X124651322Y-101119093D01*
X125284677Y-101404540D02*
X125284677Y-101518720D01*
X125251343Y-101575809D01*
X125218008Y-101604354D01*
X125118005Y-101661443D01*
X124984667Y-101689988D01*
X124717991Y-101689988D01*
X124651322Y-101661443D01*
X124617988Y-101632899D01*
X124584653Y-101575809D01*
X124584653Y-101461630D01*
X124617988Y-101404540D01*
X124651322Y-101375996D01*
X124717991Y-101347451D01*
X124884663Y-101347451D01*
X124951332Y-101375996D01*
X124984667Y-101404540D01*
X125018001Y-101461630D01*
X125018001Y-101575809D01*
X124984667Y-101632899D01*
X124951332Y-101661443D01*
X124884663Y-101689988D01*
X134362008Y-101246093D02*
X134395343Y-101217548D01*
X134428677Y-101131914D01*
X134428677Y-101074824D01*
X134395343Y-100989190D01*
X134328674Y-100932100D01*
X134262005Y-100903556D01*
X134128667Y-100875011D01*
X134028663Y-100875011D01*
X133895325Y-100903556D01*
X133828656Y-100932100D01*
X133761988Y-100989190D01*
X133728653Y-101074824D01*
X133728653Y-101131914D01*
X133761988Y-101217548D01*
X133795322Y-101246093D01*
X134028663Y-101588630D02*
X133995329Y-101531540D01*
X133961994Y-101502996D01*
X133895325Y-101474451D01*
X133861991Y-101474451D01*
X133795322Y-101502996D01*
X133761988Y-101531540D01*
X133728653Y-101588630D01*
X133728653Y-101702809D01*
X133761988Y-101759899D01*
X133795322Y-101788443D01*
X133861991Y-101816988D01*
X133895325Y-101816988D01*
X133961994Y-101788443D01*
X133995329Y-101759899D01*
X134028663Y-101702809D01*
X134028663Y-101588630D01*
X134061998Y-101531540D01*
X134095332Y-101502996D01*
X134162001Y-101474451D01*
X134295339Y-101474451D01*
X134362008Y-101502996D01*
X134395343Y-101531540D01*
X134428677Y-101588630D01*
X134428677Y-101702809D01*
X134395343Y-101759899D01*
X134362008Y-101788443D01*
X134295339Y-101816988D01*
X134162001Y-101816988D01*
X134095332Y-101788443D01*
X134061998Y-101759899D01*
X134028663Y-101702809D01*
D11*
X127662214Y-102643214D02*
X127631976Y-102673452D01*
X127601738Y-102764166D01*
X127601738Y-102824642D01*
X127631976Y-102915357D01*
X127692452Y-102975833D01*
X127752928Y-103006071D01*
X127873880Y-103036309D01*
X127964595Y-103036309D01*
X128085547Y-103006071D01*
X128146023Y-102975833D01*
X128206500Y-102915357D01*
X128236738Y-102824642D01*
X128236738Y-102764166D01*
X128206500Y-102673452D01*
X128176261Y-102643214D01*
X127601738Y-102038452D02*
X127601738Y-102401309D01*
X127601738Y-102219880D02*
X128236738Y-102219880D01*
X128146023Y-102280357D01*
X128085547Y-102340833D01*
X128055309Y-102401309D01*
X128236738Y-101463928D02*
X128236738Y-101766309D01*
X127934357Y-101796547D01*
X127964595Y-101766309D01*
X127994833Y-101705833D01*
X127994833Y-101554642D01*
X127964595Y-101494166D01*
X127934357Y-101463928D01*
X127873880Y-101433690D01*
X127722690Y-101433690D01*
X127662214Y-101463928D01*
X127631976Y-101494166D01*
X127601738Y-101554642D01*
X127601738Y-101705833D01*
X127631976Y-101766309D01*
X127662214Y-101796547D01*
M02*
