G04 #@! TF.GenerationSoftware,KiCad,Pcbnew,(5.99.0-273-g43768b71c)*
G04 #@! TF.CreationDate,2019-11-20T15:23:38-05:00*
G04 #@! TF.ProjectId,Plasma_Pilot3,506c6173-6d61-45f5-9069-6c6f74332e6b,rev?*
G04 #@! TF.SameCoordinates,Original*
G04 #@! TF.FileFunction,Legend,Top*
G04 #@! TF.FilePolarity,Positive*
%FSLAX46Y46*%
G04 Gerber Fmt 4.6, Leading zero omitted, Abs format (unit mm)*
G04 Created by KiCad (PCBNEW (5.99.0-273-g43768b71c)) date 2019-11-20 15:23:38*
%MOMM*%
%LPD*%
G04 APERTURE LIST*
%ADD10C,0.254000*%
%ADD11C,0.127000*%
%ADD12C,0.200000*%
%ADD13C,0.150000*%
%ADD14C,0.500000*%
%ADD15C,0.120000*%
%ADD16C,0.152400*%
G04 APERTURE END LIST*
D10*
X193535904Y-89219235D02*
X193717333Y-89301616D01*
X194019714Y-89301616D01*
X194140666Y-89219235D01*
X194201142Y-89136855D01*
X194261619Y-88972093D01*
X194261619Y-88807332D01*
X194201142Y-88642571D01*
X194140666Y-88560190D01*
X194019714Y-88477809D01*
X193777809Y-88395429D01*
X193656857Y-88313048D01*
X193596380Y-88230667D01*
X193535904Y-88065906D01*
X193535904Y-87901145D01*
X193596380Y-87736383D01*
X193656857Y-87654003D01*
X193777809Y-87571622D01*
X194080190Y-87571622D01*
X194261619Y-87654003D01*
X195471142Y-87654003D02*
X195350190Y-87571622D01*
X195168761Y-87571622D01*
X194987333Y-87654003D01*
X194866380Y-87818764D01*
X194805904Y-87983525D01*
X194745428Y-88313048D01*
X194745428Y-88560190D01*
X194805904Y-88889713D01*
X194866380Y-89054474D01*
X194987333Y-89219235D01*
X195168761Y-89301616D01*
X195289714Y-89301616D01*
X195471142Y-89219235D01*
X195531619Y-89136855D01*
X195531619Y-88560190D01*
X195289714Y-88560190D01*
X196075904Y-89301616D02*
X196075904Y-87571622D01*
X196801619Y-89301616D01*
X196801619Y-87571622D01*
X197406380Y-89301616D02*
X197406380Y-87571622D01*
X197708761Y-87571622D01*
X197890190Y-87654003D01*
X198011142Y-87818764D01*
X198071619Y-87983525D01*
X198132095Y-88313048D01*
X198132095Y-88560190D01*
X198071619Y-88889713D01*
X198011142Y-89054474D01*
X197890190Y-89219235D01*
X197708761Y-89301616D01*
X197406380Y-89301616D01*
X193167000Y-118892616D02*
X193167000Y-117162622D01*
X193650809Y-117162622D01*
X193771761Y-117245003D01*
X193832238Y-117327383D01*
X193892714Y-117492145D01*
X193892714Y-117739287D01*
X193832238Y-117904048D01*
X193771761Y-117986429D01*
X193650809Y-118068809D01*
X193167000Y-118068809D01*
X194437000Y-118892616D02*
X194437000Y-117739287D01*
X194437000Y-117162622D02*
X194376523Y-117245003D01*
X194437000Y-117327383D01*
X194497476Y-117245003D01*
X194437000Y-117162622D01*
X194437000Y-117327383D01*
X195223190Y-118892616D02*
X195102238Y-118810235D01*
X195041761Y-118645474D01*
X195041761Y-117162622D01*
X195888428Y-118892616D02*
X195767476Y-118810235D01*
X195707000Y-118727855D01*
X195646523Y-118563093D01*
X195646523Y-118068809D01*
X195707000Y-117904048D01*
X195767476Y-117821667D01*
X195888428Y-117739287D01*
X196069857Y-117739287D01*
X196190809Y-117821667D01*
X196251285Y-117904048D01*
X196311761Y-118068809D01*
X196311761Y-118563093D01*
X196251285Y-118727855D01*
X196190809Y-118810235D01*
X196069857Y-118892616D01*
X195888428Y-118892616D01*
X196674619Y-117739287D02*
X197158428Y-117739287D01*
X196856047Y-117162622D02*
X196856047Y-118645474D01*
X196916523Y-118810235D01*
X197037476Y-118892616D01*
X197158428Y-118892616D01*
D11*
X144816285Y-102567619D02*
X144235714Y-102567619D01*
X144526000Y-102567619D02*
X144526000Y-101551619D01*
X144429238Y-101696761D01*
X144332476Y-101793523D01*
X144235714Y-101841904D01*
X136180285Y-109933619D02*
X135599714Y-109933619D01*
X135890000Y-109933619D02*
X135890000Y-108917619D01*
X135793238Y-109062761D01*
X135696476Y-109159523D01*
X135599714Y-109207904D01*
D10*
X153494619Y-87015616D02*
X153494619Y-85285622D01*
X153494619Y-86109429D02*
X154220333Y-86109429D01*
X154220333Y-87015616D02*
X154220333Y-85285622D01*
X156518428Y-86850855D02*
X156457952Y-86933235D01*
X156276523Y-87015616D01*
X156155571Y-87015616D01*
X155974142Y-86933235D01*
X155853190Y-86768474D01*
X155792714Y-86603713D01*
X155732238Y-86274190D01*
X155732238Y-86027048D01*
X155792714Y-85697525D01*
X155853190Y-85532764D01*
X155974142Y-85368003D01*
X156155571Y-85285622D01*
X156276523Y-85285622D01*
X156457952Y-85368003D01*
X156518428Y-85450383D01*
X157607000Y-85862287D02*
X157607000Y-87015616D01*
X157062714Y-85862287D02*
X157062714Y-86768474D01*
X157123190Y-86933235D01*
X157244142Y-87015616D01*
X157425571Y-87015616D01*
X157546523Y-86933235D01*
X157607000Y-86850855D01*
X158211761Y-87015616D02*
X158211761Y-85862287D01*
X158211761Y-86191809D02*
X158272238Y-86027048D01*
X158332714Y-85944667D01*
X158453666Y-85862287D01*
X158574619Y-85862287D01*
X158997952Y-87015616D02*
X158997952Y-85862287D01*
X158997952Y-86191809D02*
X159058428Y-86027048D01*
X159118904Y-85944667D01*
X159239857Y-85862287D01*
X159360809Y-85862287D01*
X126346857Y-121813616D02*
X126346857Y-120083622D01*
X126346857Y-120907429D02*
X127072571Y-120907429D01*
X127072571Y-121813616D02*
X127072571Y-120083622D01*
X127495904Y-120083622D02*
X127919238Y-121813616D01*
X128342571Y-120083622D01*
X153645809Y-121985235D02*
X153827238Y-122067616D01*
X154129619Y-122067616D01*
X154250571Y-121985235D01*
X154311047Y-121902855D01*
X154371523Y-121738093D01*
X154371523Y-121573332D01*
X154311047Y-121408571D01*
X154250571Y-121326190D01*
X154129619Y-121243809D01*
X153887714Y-121161429D01*
X153766761Y-121079048D01*
X153706285Y-120996667D01*
X153645809Y-120831906D01*
X153645809Y-120667145D01*
X153706285Y-120502383D01*
X153766761Y-120420003D01*
X153887714Y-120337622D01*
X154190095Y-120337622D01*
X154371523Y-120420003D01*
X154734380Y-120914287D02*
X155218190Y-120914287D01*
X154915809Y-120337622D02*
X154915809Y-121820474D01*
X154976285Y-121985235D01*
X155097238Y-122067616D01*
X155218190Y-122067616D01*
X156185809Y-122067616D02*
X156185809Y-121161429D01*
X156125333Y-120996667D01*
X156004380Y-120914287D01*
X155762476Y-120914287D01*
X155641523Y-120996667D01*
X156185809Y-121985235D02*
X156064857Y-122067616D01*
X155762476Y-122067616D01*
X155641523Y-121985235D01*
X155581047Y-121820474D01*
X155581047Y-121655713D01*
X155641523Y-121490951D01*
X155762476Y-121408571D01*
X156064857Y-121408571D01*
X156185809Y-121326190D01*
X156790571Y-122067616D02*
X156790571Y-120914287D01*
X156790571Y-121243809D02*
X156851047Y-121079048D01*
X156911523Y-120996667D01*
X157032476Y-120914287D01*
X157153428Y-120914287D01*
X157395333Y-120914287D02*
X157879142Y-120914287D01*
X157576761Y-120337622D02*
X157576761Y-121820474D01*
X157637238Y-121985235D01*
X157758190Y-122067616D01*
X157879142Y-122067616D01*
X148251333Y-122067616D02*
X148251333Y-120337622D01*
X148674666Y-121573332D01*
X149098000Y-120337622D01*
X149098000Y-122067616D01*
X149884190Y-122067616D02*
X149763238Y-121985235D01*
X149702761Y-121902855D01*
X149642285Y-121738093D01*
X149642285Y-121243809D01*
X149702761Y-121079048D01*
X149763238Y-120996667D01*
X149884190Y-120914287D01*
X150065619Y-120914287D01*
X150186571Y-120996667D01*
X150247047Y-121079048D01*
X150307523Y-121243809D01*
X150307523Y-121738093D01*
X150247047Y-121902855D01*
X150186571Y-121985235D01*
X150065619Y-122067616D01*
X149884190Y-122067616D01*
X151396095Y-122067616D02*
X151396095Y-120337622D01*
X151396095Y-121985235D02*
X151275142Y-122067616D01*
X151033238Y-122067616D01*
X150912285Y-121985235D01*
X150851809Y-121902855D01*
X150791333Y-121738093D01*
X150791333Y-121243809D01*
X150851809Y-121079048D01*
X150912285Y-120996667D01*
X151033238Y-120914287D01*
X151275142Y-120914287D01*
X151396095Y-120996667D01*
X152484666Y-121985235D02*
X152363714Y-122067616D01*
X152121809Y-122067616D01*
X152000857Y-121985235D01*
X151940380Y-121820474D01*
X151940380Y-121161429D01*
X152000857Y-120996667D01*
X152121809Y-120914287D01*
X152363714Y-120914287D01*
X152484666Y-120996667D01*
X152545142Y-121161429D01*
X152545142Y-121326190D01*
X151940380Y-121490951D01*
X143612809Y-122067616D02*
X143008047Y-122067616D01*
X143008047Y-120337622D01*
X144036142Y-122067616D02*
X144036142Y-120914287D01*
X144036142Y-120337622D02*
X143975666Y-120420003D01*
X144036142Y-120502383D01*
X144096619Y-120420003D01*
X144036142Y-120337622D01*
X144036142Y-120502383D01*
X144640904Y-122067616D02*
X144640904Y-120914287D01*
X144640904Y-121079048D02*
X144701380Y-120996667D01*
X144822333Y-120914287D01*
X145003761Y-120914287D01*
X145124714Y-120996667D01*
X145185190Y-121161429D01*
X145185190Y-122067616D01*
X145185190Y-121161429D02*
X145245666Y-120996667D01*
X145366619Y-120914287D01*
X145548047Y-120914287D01*
X145669000Y-120996667D01*
X145729476Y-121161429D01*
X145729476Y-122067616D01*
X146334238Y-122067616D02*
X146334238Y-120914287D01*
X146334238Y-120337622D02*
X146273761Y-120420003D01*
X146334238Y-120502383D01*
X146394714Y-120420003D01*
X146334238Y-120337622D01*
X146334238Y-120502383D01*
X146757571Y-120914287D02*
X147241380Y-120914287D01*
X146939000Y-120337622D02*
X146939000Y-121820474D01*
X146999476Y-121985235D01*
X147120428Y-122067616D01*
X147241380Y-122067616D01*
X139113380Y-120420003D02*
X138992428Y-120337622D01*
X138811000Y-120337622D01*
X138629571Y-120420003D01*
X138508619Y-120584764D01*
X138448142Y-120749525D01*
X138387666Y-121079048D01*
X138387666Y-121326190D01*
X138448142Y-121655713D01*
X138508619Y-121820474D01*
X138629571Y-121985235D01*
X138811000Y-122067616D01*
X138931952Y-122067616D01*
X139113380Y-121985235D01*
X139173857Y-121902855D01*
X139173857Y-121326190D01*
X138931952Y-121326190D01*
X139718142Y-122067616D02*
X139718142Y-120337622D01*
X140443857Y-122067616D01*
X140443857Y-120337622D01*
X141048619Y-122067616D02*
X141048619Y-120337622D01*
X141351000Y-120337622D01*
X141532428Y-120420003D01*
X141653380Y-120584764D01*
X141713857Y-120749525D01*
X141774333Y-121079048D01*
X141774333Y-121326190D01*
X141713857Y-121655713D01*
X141653380Y-121820474D01*
X141532428Y-121985235D01*
X141351000Y-122067616D01*
X141048619Y-122067616D01*
X176330428Y-96331235D02*
X176511857Y-96413616D01*
X176814238Y-96413616D01*
X176935190Y-96331235D01*
X176995666Y-96248855D01*
X177056142Y-96084093D01*
X177056142Y-95919332D01*
X176995666Y-95754571D01*
X176935190Y-95672190D01*
X176814238Y-95589809D01*
X176572333Y-95507429D01*
X176451380Y-95425048D01*
X176390904Y-95342667D01*
X176330428Y-95177906D01*
X176330428Y-95013145D01*
X176390904Y-94848383D01*
X176451380Y-94766003D01*
X176572333Y-94683622D01*
X176874714Y-94683622D01*
X177056142Y-94766003D01*
X177781857Y-96413616D02*
X177660904Y-96331235D01*
X177600428Y-96248855D01*
X177539952Y-96084093D01*
X177539952Y-95589809D01*
X177600428Y-95425048D01*
X177660904Y-95342667D01*
X177781857Y-95260287D01*
X177963285Y-95260287D01*
X178084238Y-95342667D01*
X178144714Y-95425048D01*
X178205190Y-95589809D01*
X178205190Y-96084093D01*
X178144714Y-96248855D01*
X178084238Y-96331235D01*
X177963285Y-96413616D01*
X177781857Y-96413616D01*
X179293761Y-95260287D02*
X179293761Y-96413616D01*
X178749476Y-95260287D02*
X178749476Y-96166474D01*
X178809952Y-96331235D01*
X178930904Y-96413616D01*
X179112333Y-96413616D01*
X179233285Y-96331235D01*
X179293761Y-96248855D01*
X179898523Y-96413616D02*
X179898523Y-95260287D01*
X179898523Y-95589809D02*
X179959000Y-95425048D01*
X180019476Y-95342667D01*
X180140428Y-95260287D01*
X180261380Y-95260287D01*
X181229000Y-96331235D02*
X181108047Y-96413616D01*
X180866142Y-96413616D01*
X180745190Y-96331235D01*
X180684714Y-96248855D01*
X180624238Y-96084093D01*
X180624238Y-95589809D01*
X180684714Y-95425048D01*
X180745190Y-95342667D01*
X180866142Y-95260287D01*
X181108047Y-95260287D01*
X181229000Y-95342667D01*
X182257095Y-96331235D02*
X182136142Y-96413616D01*
X181894238Y-96413616D01*
X181773285Y-96331235D01*
X181712809Y-96166474D01*
X181712809Y-95507429D01*
X181773285Y-95342667D01*
X181894238Y-95260287D01*
X182136142Y-95260287D01*
X182257095Y-95342667D01*
X182317571Y-95507429D01*
X182317571Y-95672190D01*
X181712809Y-95836951D01*
X178809952Y-112292003D02*
X178689000Y-112209622D01*
X178507571Y-112209622D01*
X178326142Y-112292003D01*
X178205190Y-112456764D01*
X178144714Y-112621525D01*
X178084238Y-112951048D01*
X178084238Y-113198190D01*
X178144714Y-113527713D01*
X178205190Y-113692474D01*
X178326142Y-113857235D01*
X178507571Y-113939616D01*
X178628523Y-113939616D01*
X178809952Y-113857235D01*
X178870428Y-113774855D01*
X178870428Y-113198190D01*
X178628523Y-113198190D01*
X179959000Y-113939616D02*
X179959000Y-113033429D01*
X179898523Y-112868667D01*
X179777571Y-112786287D01*
X179535666Y-112786287D01*
X179414714Y-112868667D01*
X179959000Y-113857235D02*
X179838047Y-113939616D01*
X179535666Y-113939616D01*
X179414714Y-113857235D01*
X179354238Y-113692474D01*
X179354238Y-113527713D01*
X179414714Y-113362951D01*
X179535666Y-113280571D01*
X179838047Y-113280571D01*
X179959000Y-113198190D01*
X180382333Y-112786287D02*
X180866142Y-112786287D01*
X180563761Y-112209622D02*
X180563761Y-113692474D01*
X180624238Y-113857235D01*
X180745190Y-113939616D01*
X180866142Y-113939616D01*
X181773285Y-113857235D02*
X181652333Y-113939616D01*
X181410428Y-113939616D01*
X181289476Y-113857235D01*
X181229000Y-113692474D01*
X181229000Y-113033429D01*
X181289476Y-112868667D01*
X181410428Y-112786287D01*
X181652333Y-112786287D01*
X181773285Y-112868667D01*
X181833761Y-113033429D01*
X181833761Y-113198190D01*
X181229000Y-113362951D01*
X164465000Y-87015616D02*
X164465000Y-85285622D01*
X164948809Y-85285622D01*
X165069761Y-85368003D01*
X165130238Y-85450383D01*
X165190714Y-85615145D01*
X165190714Y-85862287D01*
X165130238Y-86027048D01*
X165069761Y-86109429D01*
X164948809Y-86191809D01*
X164465000Y-86191809D01*
X165735000Y-87015616D02*
X165735000Y-85862287D01*
X165735000Y-85285622D02*
X165674523Y-85368003D01*
X165735000Y-85450383D01*
X165795476Y-85368003D01*
X165735000Y-85285622D01*
X165735000Y-85450383D01*
X166521190Y-87015616D02*
X166400238Y-86933235D01*
X166339761Y-86768474D01*
X166339761Y-85285622D01*
X167186428Y-87015616D02*
X167065476Y-86933235D01*
X167005000Y-86850855D01*
X166944523Y-86686093D01*
X166944523Y-86191809D01*
X167005000Y-86027048D01*
X167065476Y-85944667D01*
X167186428Y-85862287D01*
X167367857Y-85862287D01*
X167488809Y-85944667D01*
X167549285Y-86027048D01*
X167609761Y-86191809D01*
X167609761Y-86686093D01*
X167549285Y-86850855D01*
X167488809Y-86933235D01*
X167367857Y-87015616D01*
X167186428Y-87015616D01*
X167972619Y-85862287D02*
X168456428Y-85862287D01*
X168154047Y-85285622D02*
X168154047Y-86768474D01*
X168214523Y-86933235D01*
X168335476Y-87015616D01*
X168456428Y-87015616D01*
X169913904Y-86933235D02*
X170095333Y-87015616D01*
X170397714Y-87015616D01*
X170518666Y-86933235D01*
X170579142Y-86850855D01*
X170639619Y-86686093D01*
X170639619Y-86521332D01*
X170579142Y-86356571D01*
X170518666Y-86274190D01*
X170397714Y-86191809D01*
X170155809Y-86109429D01*
X170034857Y-86027048D01*
X169974380Y-85944667D01*
X169913904Y-85779906D01*
X169913904Y-85615145D01*
X169974380Y-85450383D01*
X170034857Y-85368003D01*
X170155809Y-85285622D01*
X170458190Y-85285622D01*
X170639619Y-85368003D01*
X171849142Y-85368003D02*
X171728190Y-85285622D01*
X171546761Y-85285622D01*
X171365333Y-85368003D01*
X171244380Y-85532764D01*
X171183904Y-85697525D01*
X171123428Y-86027048D01*
X171123428Y-86274190D01*
X171183904Y-86603713D01*
X171244380Y-86768474D01*
X171365333Y-86933235D01*
X171546761Y-87015616D01*
X171667714Y-87015616D01*
X171849142Y-86933235D01*
X171909619Y-86850855D01*
X171909619Y-86274190D01*
X171667714Y-86274190D01*
X172453904Y-87015616D02*
X172453904Y-85285622D01*
X173179619Y-87015616D01*
X173179619Y-85285622D01*
X173784380Y-87015616D02*
X173784380Y-85285622D01*
X174086761Y-85285622D01*
X174268190Y-85368003D01*
X174389142Y-85532764D01*
X174449619Y-85697525D01*
X174510095Y-86027048D01*
X174510095Y-86274190D01*
X174449619Y-86603713D01*
X174389142Y-86768474D01*
X174268190Y-86933235D01*
X174086761Y-87015616D01*
X173784380Y-87015616D01*
X121669429Y-90889666D02*
X121669429Y-91857285D01*
X121010383Y-91373476D02*
X122328474Y-91373476D01*
X121010383Y-93127285D02*
X121010383Y-92401571D01*
X121010383Y-92764428D02*
X122740377Y-92764428D01*
X122493235Y-92643476D01*
X122328474Y-92522523D01*
X122246093Y-92401571D01*
X122575616Y-93611095D02*
X122657997Y-93671571D01*
X122740377Y-93792523D01*
X122740377Y-94094904D01*
X122657997Y-94215857D01*
X122575616Y-94276333D01*
X122410855Y-94336809D01*
X122246093Y-94336809D01*
X121998951Y-94276333D01*
X121010383Y-93550619D01*
X121010383Y-94336809D01*
X122784997Y-86662380D02*
X122867377Y-86541428D01*
X122867377Y-86360000D01*
X122784997Y-86178571D01*
X122620235Y-86057619D01*
X122455474Y-85997142D01*
X122125951Y-85936666D01*
X121878809Y-85936666D01*
X121549287Y-85997142D01*
X121384525Y-86057619D01*
X121219764Y-86178571D01*
X121137383Y-86360000D01*
X121137383Y-86480952D01*
X121219764Y-86662380D01*
X121302145Y-86722857D01*
X121878809Y-86722857D01*
X121878809Y-86480952D01*
X121137383Y-87267142D02*
X122867377Y-87267142D01*
X121137383Y-87992857D01*
X122867377Y-87992857D01*
X121137383Y-88597619D02*
X122867377Y-88597619D01*
X122867377Y-88900000D01*
X122784997Y-89081428D01*
X122620235Y-89202380D01*
X122455474Y-89262857D01*
X122125951Y-89323333D01*
X121878809Y-89323333D01*
X121549287Y-89262857D01*
X121384525Y-89202380D01*
X121219764Y-89081428D01*
X121137383Y-88900000D01*
X121137383Y-88597619D01*
D12*
X172850000Y-92710000D02*
G75*
G03X172850000Y-92710000I-1400000J0D01*
G01*
X197780000Y-91567000D02*
G75*
G03X197780000Y-91567000I-2200000J0D01*
G01*
X197780000Y-114173000D02*
G75*
G03X197780000Y-114173000I-2200000J0D01*
G01*
D11*
X149542500Y-100139500D02*
X149542500Y-101282500D01*
X147129500Y-100139500D02*
X149542500Y-100139500D01*
X147129500Y-101282500D02*
X147129500Y-100139500D01*
X149542500Y-101282500D02*
X147129500Y-101282500D01*
X142176500Y-116306600D02*
X140779500Y-116306600D01*
X142176500Y-113309400D02*
X142176500Y-116306600D01*
X140779500Y-113309400D02*
X142176500Y-113309400D01*
X140779500Y-116306600D02*
X140779500Y-113309400D01*
X140779500Y-114808000D02*
X140119100Y-114808000D01*
X142176500Y-115760500D02*
X142836900Y-115760500D01*
X142176500Y-113855500D02*
X142836900Y-113855500D01*
X131508500Y-113474500D02*
X131508500Y-112331500D01*
X133921500Y-113474500D02*
X131508500Y-113474500D01*
X133921500Y-112331500D02*
X133921500Y-113474500D01*
X131508500Y-112331500D02*
X133921500Y-112331500D01*
D10*
X133365240Y-110185200D02*
X133365240Y-97383600D01*
X125867160Y-97383600D02*
X125867160Y-110185200D01*
D11*
X124764800Y-98069400D02*
X125857000Y-98069400D01*
X125857000Y-99339400D02*
X124764800Y-99339400D01*
X125857000Y-100609400D02*
X124764800Y-100609400D01*
X125857000Y-101879400D02*
X124764800Y-101879400D01*
X134467600Y-109499400D02*
X133375400Y-109499400D01*
X133375400Y-98069400D02*
X134467600Y-98069400D01*
D10*
X133365240Y-97383600D02*
X125867160Y-97383600D01*
X125867160Y-110185200D02*
X133365240Y-110185200D01*
D11*
X125857000Y-109499400D02*
X124764800Y-109499400D01*
X125857000Y-108229400D02*
X124764800Y-108229400D01*
X125857000Y-106959400D02*
X124764800Y-106959400D01*
X124764800Y-105689400D02*
X125857000Y-105689400D01*
X124764800Y-104419400D02*
X125857000Y-104419400D01*
X124764800Y-103149400D02*
X125857000Y-103149400D01*
X133375400Y-99339400D02*
X134467600Y-99339400D01*
X133375400Y-100609400D02*
X134467600Y-100609400D01*
X133375400Y-101879400D02*
X134467600Y-101879400D01*
X133375400Y-108229400D02*
X134467600Y-108229400D01*
X134467600Y-106959400D02*
X133375400Y-106959400D01*
X134467600Y-103149400D02*
X133375400Y-103149400D01*
X134467600Y-104419400D02*
X133375400Y-104419400D01*
X134467600Y-105689400D02*
X133375400Y-105689400D01*
D10*
X132735347Y-108999020D02*
G75*
G03X132735347Y-108999020I-472467J0D01*
G01*
D13*
X176056000Y-98094000D02*
X176056000Y-110694000D01*
X161256000Y-98094000D02*
X176056000Y-98094000D01*
X161256000Y-110694000D02*
X161256000Y-98094000D01*
X176056000Y-110694000D02*
X161256000Y-110694000D01*
D14*
X172096312Y-107094000D02*
G75*
G03X172096312Y-107094000I-640312J0D01*
G01*
D15*
X174256000Y-110894000D02*
X176256000Y-110894000D01*
X176256000Y-110894000D02*
X176256000Y-109494000D01*
D13*
X123317000Y-96393000D02*
G75*
G03X123317000Y-96393000I-762000J0D01*
G01*
X123317000Y-98933000D02*
G75*
G03X123317000Y-98933000I-762000J0D01*
G01*
X123317000Y-101854000D02*
G75*
G03X123317000Y-101854000I-762000J0D01*
G01*
X123317000Y-104648000D02*
G75*
G03X123317000Y-104648000I-762000J0D01*
G01*
D11*
X136144000Y-97726500D02*
X138684000Y-97726500D01*
X138684000Y-97726500D02*
X138684000Y-98869500D01*
X138684000Y-98869500D02*
X136144000Y-98869500D01*
X136144000Y-98869500D02*
X136144000Y-97726500D01*
X150558500Y-102933500D02*
X150558500Y-100520500D01*
X150558500Y-100520500D02*
X151701500Y-100520500D01*
X151701500Y-100520500D02*
X151701500Y-102933500D01*
X151701500Y-102933500D02*
X150558500Y-102933500D01*
D15*
X199791000Y-97680000D02*
X199791000Y-110180000D01*
X199791000Y-113180000D02*
X199791000Y-115680000D01*
X202291000Y-97680000D02*
X202291000Y-100180000D01*
X199791000Y-97680000D02*
G75*
G02X202291000Y-97680000I1250000J0D01*
G01*
X202291000Y-103180000D02*
X202291000Y-115680000D01*
X202291000Y-115680000D02*
G75*
G02X199791000Y-115680000I-1250000J0D01*
G01*
X199791000Y-113180000D02*
G75*
G02X199791000Y-110180000I0J1500000D01*
G01*
X202291000Y-100180000D02*
G75*
G02X202291000Y-103180000I0J-1500000D01*
G01*
X186118600Y-112337000D02*
X186118600Y-96197000D01*
X191389600Y-112337000D02*
X191389600Y-96197000D01*
X186118600Y-112337000D02*
X191389600Y-112337000D01*
X186118600Y-96197000D02*
X191389600Y-96197000D01*
X186118600Y-106071000D02*
X191389600Y-106071000D01*
X186118600Y-102462000D02*
X191389600Y-102462000D01*
X198880000Y-108781000D02*
X198880000Y-95181000D01*
X198880000Y-95181000D02*
X192280000Y-95181000D01*
X192280000Y-95181000D02*
X192280000Y-108781000D01*
X192280000Y-108781000D02*
X198880000Y-108781000D01*
D13*
X146502000Y-87329000D02*
X144802000Y-87329000D01*
X146502000Y-91229000D02*
X146502000Y-87329000D01*
X139502000Y-91229000D02*
X146502000Y-91229000D01*
X139502000Y-87329000D02*
X139502000Y-91229000D01*
X141202000Y-87329000D02*
X139502000Y-87329000D01*
X131379159Y-119888000D02*
G75*
G03X131379159Y-119888000I-1204159J0D01*
G01*
X189799159Y-94615000D02*
G75*
G03X189799159Y-94615000I-1204159J0D01*
G01*
X189799159Y-113792000D02*
G75*
G03X189799159Y-113792000I-1204159J0D01*
G01*
D11*
X166598600Y-93548200D02*
X166598600Y-91871800D01*
X169697400Y-93548200D02*
X166598600Y-93548200D01*
X169697400Y-91871800D02*
X169697400Y-93548200D01*
X166598600Y-91871800D02*
X169697400Y-91871800D01*
X180390800Y-99923600D02*
X182067200Y-99923600D01*
X180390800Y-103022400D02*
X180390800Y-99923600D01*
X182067200Y-103022400D02*
X180390800Y-103022400D01*
X182067200Y-99923600D02*
X182067200Y-103022400D01*
X178790600Y-109169200D02*
X178790600Y-107492800D01*
X181889400Y-109169200D02*
X178790600Y-109169200D01*
X181889400Y-107492800D02*
X181889400Y-109169200D01*
X178790600Y-107492800D02*
X181889400Y-107492800D01*
X158410940Y-107505500D02*
X157750540Y-107505500D01*
X158410940Y-105600500D02*
X157750540Y-105600500D01*
X159807940Y-106553000D02*
X160468340Y-106553000D01*
X159807940Y-105054400D02*
X159807940Y-108051600D01*
X159807940Y-108051600D02*
X158410940Y-108051600D01*
X158410940Y-108051600D02*
X158410940Y-105054400D01*
X158410940Y-105054400D02*
X159807940Y-105054400D01*
X154749500Y-107505500D02*
X154089100Y-107505500D01*
X154749500Y-105600500D02*
X154089100Y-105600500D01*
X156146500Y-106553000D02*
X156806900Y-106553000D01*
X156146500Y-105054400D02*
X156146500Y-108051600D01*
X156146500Y-108051600D02*
X154749500Y-108051600D01*
X154749500Y-108051600D02*
X154749500Y-105054400D01*
X154749500Y-105054400D02*
X156146500Y-105054400D01*
X143659860Y-112458500D02*
X142999460Y-112458500D01*
X143659860Y-110553500D02*
X142999460Y-110553500D01*
X145056860Y-111506000D02*
X145717260Y-111506000D01*
X145056860Y-110007400D02*
X145056860Y-113004600D01*
X145056860Y-113004600D02*
X143659860Y-113004600D01*
X143659860Y-113004600D02*
X143659860Y-110007400D01*
X143659860Y-110007400D02*
X145056860Y-110007400D01*
D15*
X146110000Y-102810000D02*
X146110000Y-104140000D01*
X144780000Y-102810000D02*
X146110000Y-102810000D01*
X146110000Y-105410000D02*
X146110000Y-108010000D01*
X143510000Y-105410000D02*
X146110000Y-105410000D01*
X143510000Y-102810000D02*
X143510000Y-105410000D01*
X146110000Y-108010000D02*
X138370000Y-108010000D01*
X143510000Y-102810000D02*
X138370000Y-102810000D01*
X138370000Y-102810000D02*
X138370000Y-108010000D01*
D11*
X150558500Y-108648500D02*
X151218900Y-108648500D01*
X150558500Y-110553500D02*
X151218900Y-110553500D01*
X149161500Y-109601000D02*
X148501100Y-109601000D01*
X149161500Y-111099600D02*
X149161500Y-108102400D01*
X149161500Y-108102400D02*
X150558500Y-108102400D01*
X150558500Y-108102400D02*
X150558500Y-111099600D01*
X150558500Y-111099600D02*
X149161500Y-111099600D01*
X150558500Y-104838500D02*
X151218900Y-104838500D01*
X150558500Y-106743500D02*
X151218900Y-106743500D01*
X149161500Y-105791000D02*
X148501100Y-105791000D01*
X149161500Y-107289600D02*
X149161500Y-104292400D01*
X149161500Y-104292400D02*
X150558500Y-104292400D01*
X150558500Y-104292400D02*
X150558500Y-107289600D01*
X150558500Y-107289600D02*
X149161500Y-107289600D01*
X180329000Y-103810000D02*
X182129000Y-103810000D01*
X180329000Y-107010000D02*
X180329000Y-103810000D01*
X182129000Y-107010000D02*
X180329000Y-107010000D01*
X182129000Y-103810000D02*
X182129000Y-107010000D01*
D15*
X144510000Y-94532000D02*
X142510000Y-94532000D01*
X142510000Y-97492000D02*
X144510000Y-97492000D01*
D11*
X157531000Y-110247000D02*
X157531000Y-108447000D01*
X160731000Y-110247000D02*
X157531000Y-110247000D01*
X160731000Y-108447000D02*
X160731000Y-110247000D01*
X157531000Y-108447000D02*
X160731000Y-108447000D01*
D15*
X156805000Y-96945000D02*
X154805000Y-96945000D01*
X154805000Y-99905000D02*
X156805000Y-99905000D01*
X156829000Y-100120000D02*
X154829000Y-100120000D01*
X154829000Y-103080000D02*
X156829000Y-103080000D01*
D11*
X146964400Y-95313500D02*
X149961600Y-95313500D01*
X149961600Y-95313500D02*
X149961600Y-96710500D01*
X149961600Y-96710500D02*
X146964400Y-96710500D01*
X146964400Y-96710500D02*
X146964400Y-95313500D01*
X134975600Y-116268500D02*
X131978400Y-116268500D01*
X131978400Y-116268500D02*
X131978400Y-114871500D01*
X131978400Y-114871500D02*
X134975600Y-114871500D01*
X134975600Y-114871500D02*
X134975600Y-116268500D01*
X130175000Y-112585500D02*
X130175000Y-113728500D01*
X127635000Y-112585500D02*
X130175000Y-112585500D01*
X127635000Y-113728500D02*
X127635000Y-112585500D01*
X130175000Y-113728500D02*
X127635000Y-113728500D01*
X136842500Y-115966140D02*
X135699500Y-115966140D01*
X136842500Y-113426140D02*
X136842500Y-115966140D01*
X135699500Y-113426140D02*
X136842500Y-113426140D01*
X135699500Y-115966140D02*
X135699500Y-113426140D01*
X136842500Y-118999000D02*
X135699500Y-118999000D01*
X136842500Y-116459000D02*
X136842500Y-118999000D01*
X135699500Y-116459000D02*
X136842500Y-116459000D01*
X135699500Y-118999000D02*
X135699500Y-116459000D01*
X136894570Y-119786400D02*
X132322570Y-119786400D01*
X136894570Y-121767600D02*
X136894570Y-119786400D01*
X132322570Y-121767600D02*
X136894570Y-121767600D01*
X132322570Y-119786400D02*
X132322570Y-121767600D01*
X160502600Y-102616000D02*
X160502600Y-98044000D01*
X158521400Y-102616000D02*
X160502600Y-102616000D01*
X158521400Y-98044000D02*
X158521400Y-102616000D01*
X160502600Y-98044000D02*
X158521400Y-98044000D01*
X149606000Y-98488500D02*
X149606000Y-99631500D01*
X147066000Y-98488500D02*
X149606000Y-98488500D01*
X147066000Y-99631500D02*
X147066000Y-98488500D01*
X149606000Y-99631500D02*
X147066000Y-99631500D01*
X164655500Y-91821000D02*
X165798500Y-91821000D01*
X164655500Y-94361000D02*
X164655500Y-91821000D01*
X165798500Y-94361000D02*
X164655500Y-94361000D01*
X165798500Y-91821000D02*
X165798500Y-94361000D01*
X138112500Y-113538000D02*
X139255500Y-113538000D01*
X138112500Y-116078000D02*
X138112500Y-113538000D01*
X139255500Y-116078000D02*
X138112500Y-116078000D01*
X139255500Y-113538000D02*
X139255500Y-116078000D01*
X144843500Y-116586000D02*
X143700500Y-116586000D01*
X144843500Y-114046000D02*
X144843500Y-116586000D01*
X143700500Y-114046000D02*
X144843500Y-114046000D01*
X143700500Y-116586000D02*
X143700500Y-114046000D01*
X157367000Y-104584500D02*
X157367000Y-103441500D01*
X159907000Y-104584500D02*
X157367000Y-104584500D01*
X159907000Y-103441500D02*
X159907000Y-104584500D01*
X157367000Y-103441500D02*
X159907000Y-103441500D01*
X141922500Y-112738000D02*
X140779500Y-112738000D01*
X141922500Y-110198000D02*
X141922500Y-112738000D01*
X140779500Y-110198000D02*
X141922500Y-110198000D01*
X140779500Y-112738000D02*
X140779500Y-110198000D01*
X154065000Y-104584500D02*
X154065000Y-103441500D01*
X156605000Y-104584500D02*
X154065000Y-104584500D01*
X156605000Y-103441500D02*
X156605000Y-104584500D01*
X154065000Y-103441500D02*
X156605000Y-103441500D01*
X150558500Y-97536000D02*
X151701500Y-97536000D01*
X150558500Y-100076000D02*
X150558500Y-97536000D01*
X151701500Y-100076000D02*
X150558500Y-100076000D01*
X151701500Y-97536000D02*
X151701500Y-100076000D01*
X150495000Y-94488000D02*
X151638000Y-94488000D01*
X150495000Y-97028000D02*
X150495000Y-94488000D01*
X151638000Y-97028000D02*
X150495000Y-97028000D01*
X151638000Y-94488000D02*
X151638000Y-97028000D01*
X154432000Y-92773500D02*
X154432000Y-93916500D01*
X151892000Y-92773500D02*
X154432000Y-92773500D01*
X151892000Y-93916500D02*
X151892000Y-92773500D01*
X154432000Y-93916500D02*
X151892000Y-93916500D01*
X152971500Y-114389000D02*
X151828500Y-114389000D01*
X152971500Y-111849000D02*
X152971500Y-114389000D01*
X151828500Y-111849000D02*
X152971500Y-111849000D01*
X151828500Y-114389000D02*
X151828500Y-111849000D01*
X149428200Y-114960400D02*
X147751800Y-114960400D01*
X149428200Y-111861600D02*
X149428200Y-114960400D01*
X147751800Y-111861600D02*
X149428200Y-111861600D01*
X147751800Y-114960400D02*
X147751800Y-111861600D01*
X157048200Y-114960400D02*
X155371800Y-114960400D01*
X157048200Y-111861600D02*
X157048200Y-114960400D01*
X155371800Y-111861600D02*
X157048200Y-111861600D01*
X155371800Y-114960400D02*
X155371800Y-111861600D01*
X158940500Y-114465000D02*
X157797500Y-114465000D01*
X158940500Y-111925000D02*
X158940500Y-114465000D01*
X157797500Y-111925000D02*
X158940500Y-111925000D01*
X157797500Y-114465000D02*
X157797500Y-111925000D01*
X160020000Y-116014500D02*
X160020000Y-114871500D01*
X162560000Y-116014500D02*
X160020000Y-116014500D01*
X162560000Y-114871500D02*
X162560000Y-116014500D01*
X160020000Y-114871500D02*
X162560000Y-114871500D01*
X171196000Y-114998500D02*
X171196000Y-116141500D01*
X168656000Y-114998500D02*
X171196000Y-114998500D01*
X168656000Y-116141500D02*
X168656000Y-114998500D01*
X171196000Y-116141500D02*
X168656000Y-116141500D01*
D15*
X177121000Y-109744000D02*
X180971000Y-109744000D01*
X177121000Y-111744000D02*
X180971000Y-111744000D01*
X177121000Y-109744000D02*
X177121000Y-111744000D01*
D11*
X130111500Y-110934500D02*
X130111500Y-112077500D01*
X127698500Y-110934500D02*
X130111500Y-110934500D01*
X127698500Y-112077500D02*
X127698500Y-110934500D01*
X130111500Y-112077500D02*
X127698500Y-112077500D01*
X135064500Y-117919500D02*
X135064500Y-119062500D01*
X132651500Y-117919500D02*
X135064500Y-117919500D01*
X132651500Y-119062500D02*
X132651500Y-117919500D01*
X135064500Y-119062500D02*
X132651500Y-119062500D01*
D15*
X127263207Y-92424275D02*
X127970313Y-93131381D01*
X127263207Y-93131381D02*
X127970313Y-92424275D01*
X131962329Y-96076879D02*
X133467671Y-96076879D01*
X127443121Y-91557671D02*
X127443121Y-90052329D01*
X127443121Y-91557671D02*
X128847126Y-92961676D01*
X131962329Y-96076879D02*
X130558324Y-94672874D01*
X133467671Y-96076879D02*
X138739550Y-90805000D01*
X127443121Y-90052329D02*
X132715000Y-84780450D01*
X132715000Y-84780450D02*
X134871676Y-86937126D01*
X138739550Y-90805000D02*
X136582874Y-88648324D01*
D11*
X151193500Y-114363500D02*
X150050500Y-114363500D01*
X151193500Y-111950500D02*
X151193500Y-114363500D01*
X150050500Y-111950500D02*
X151193500Y-111950500D01*
X150050500Y-114363500D02*
X150050500Y-111950500D01*
X154749500Y-114351500D02*
X153606500Y-114351500D01*
X154749500Y-111938500D02*
X154749500Y-114351500D01*
X153606500Y-111938500D02*
X154749500Y-111938500D01*
X153606500Y-114351500D02*
X153606500Y-111938500D01*
X145605500Y-113220500D02*
X146748500Y-113220500D01*
X145605500Y-115633500D02*
X145605500Y-113220500D01*
X146748500Y-115633500D02*
X145605500Y-115633500D01*
X146748500Y-113220500D02*
X146748500Y-115633500D01*
D16*
X145901833Y-100819857D02*
X145859500Y-100868238D01*
X145732500Y-100916619D01*
X145647833Y-100916619D01*
X145520833Y-100868238D01*
X145436166Y-100771476D01*
X145393833Y-100674714D01*
X145351500Y-100481190D01*
X145351500Y-100336047D01*
X145393833Y-100142523D01*
X145436166Y-100045761D01*
X145520833Y-99949000D01*
X145647833Y-99900619D01*
X145732500Y-99900619D01*
X145859500Y-99949000D01*
X145901833Y-99997380D01*
X146706166Y-99900619D02*
X146282833Y-99900619D01*
X146240500Y-100384428D01*
X146282833Y-100336047D01*
X146367500Y-100287666D01*
X146579166Y-100287666D01*
X146663833Y-100336047D01*
X146706166Y-100384428D01*
X146748500Y-100481190D01*
X146748500Y-100723095D01*
X146706166Y-100819857D01*
X146663833Y-100868238D01*
X146579166Y-100916619D01*
X146367500Y-100916619D01*
X146282833Y-100868238D01*
X146240500Y-100819857D01*
X139742333Y-113205380D02*
X139657666Y-113157000D01*
X139573000Y-113060238D01*
X139446000Y-112915095D01*
X139361333Y-112866714D01*
X139276666Y-112866714D01*
X139319000Y-113108619D02*
X139234333Y-113060238D01*
X139149666Y-112963476D01*
X139107333Y-112769952D01*
X139107333Y-112431285D01*
X139149666Y-112237761D01*
X139234333Y-112141000D01*
X139319000Y-112092619D01*
X139488333Y-112092619D01*
X139573000Y-112141000D01*
X139657666Y-112237761D01*
X139700000Y-112431285D01*
X139700000Y-112769952D01*
X139657666Y-112963476D01*
X139573000Y-113060238D01*
X139488333Y-113108619D01*
X139319000Y-113108619D01*
X140504333Y-112092619D02*
X140081000Y-112092619D01*
X140038666Y-112576428D01*
X140081000Y-112528047D01*
X140165666Y-112479666D01*
X140377333Y-112479666D01*
X140462000Y-112528047D01*
X140504333Y-112576428D01*
X140546666Y-112673190D01*
X140546666Y-112915095D01*
X140504333Y-113011857D01*
X140462000Y-113060238D01*
X140377333Y-113108619D01*
X140165666Y-113108619D01*
X140081000Y-113060238D01*
X140038666Y-113011857D01*
X133582833Y-111741857D02*
X133540500Y-111790238D01*
X133413500Y-111838619D01*
X133328833Y-111838619D01*
X133201833Y-111790238D01*
X133117166Y-111693476D01*
X133074833Y-111596714D01*
X133032500Y-111403190D01*
X133032500Y-111258047D01*
X133074833Y-111064523D01*
X133117166Y-110967761D01*
X133201833Y-110871000D01*
X133328833Y-110822619D01*
X133413500Y-110822619D01*
X133540500Y-110871000D01*
X133582833Y-110919380D01*
X134344833Y-110822619D02*
X134175500Y-110822619D01*
X134090833Y-110871000D01*
X134048500Y-110919380D01*
X133963833Y-111064523D01*
X133921500Y-111258047D01*
X133921500Y-111645095D01*
X133963833Y-111741857D01*
X134006166Y-111790238D01*
X134090833Y-111838619D01*
X134260166Y-111838619D01*
X134344833Y-111790238D01*
X134387166Y-111741857D01*
X134429500Y-111645095D01*
X134429500Y-111403190D01*
X134387166Y-111306428D01*
X134344833Y-111258047D01*
X134260166Y-111209666D01*
X134090833Y-111209666D01*
X134006166Y-111258047D01*
X133963833Y-111306428D01*
X133921500Y-111403190D01*
X127021166Y-96852619D02*
X127021166Y-95836619D01*
X127952500Y-96755857D02*
X127910166Y-96804238D01*
X127783166Y-96852619D01*
X127698500Y-96852619D01*
X127571500Y-96804238D01*
X127486833Y-96707476D01*
X127444500Y-96610714D01*
X127402166Y-96417190D01*
X127402166Y-96272047D01*
X127444500Y-96078523D01*
X127486833Y-95981761D01*
X127571500Y-95885000D01*
X127698500Y-95836619D01*
X127783166Y-95836619D01*
X127910166Y-95885000D01*
X127952500Y-95933380D01*
X128799166Y-96852619D02*
X128291166Y-96852619D01*
X128545166Y-96852619D02*
X128545166Y-95836619D01*
X128460500Y-95981761D01*
X128375833Y-96078523D01*
X128291166Y-96126904D01*
X166962666Y-96471619D02*
X167470666Y-96471619D01*
X167216666Y-97487619D02*
X167216666Y-96471619D01*
X168232666Y-97487619D02*
X167724666Y-97487619D01*
X167978666Y-97487619D02*
X167978666Y-96471619D01*
X167894000Y-96616761D01*
X167809333Y-96713523D01*
X167724666Y-96761904D01*
X137392833Y-97360619D02*
X137096500Y-96876809D01*
X136884833Y-97360619D02*
X136884833Y-96344619D01*
X137223500Y-96344619D01*
X137308166Y-96393000D01*
X137350500Y-96441380D01*
X137392833Y-96538142D01*
X137392833Y-96683285D01*
X137350500Y-96780047D01*
X137308166Y-96828428D01*
X137223500Y-96876809D01*
X136884833Y-96876809D01*
X137689166Y-96344619D02*
X138239500Y-96344619D01*
X137943166Y-96731666D01*
X138070166Y-96731666D01*
X138154833Y-96780047D01*
X138197166Y-96828428D01*
X138239500Y-96925190D01*
X138239500Y-97167095D01*
X138197166Y-97263857D01*
X138154833Y-97312238D01*
X138070166Y-97360619D01*
X137816166Y-97360619D01*
X137731500Y-97312238D01*
X137689166Y-97263857D01*
X150095857Y-103187500D02*
X150144238Y-103229833D01*
X150192619Y-103356833D01*
X150192619Y-103441500D01*
X150144238Y-103568500D01*
X150047476Y-103653166D01*
X149950714Y-103695500D01*
X149757190Y-103737833D01*
X149612047Y-103737833D01*
X149418523Y-103695500D01*
X149321761Y-103653166D01*
X149225000Y-103568500D01*
X149176619Y-103441500D01*
X149176619Y-103356833D01*
X149225000Y-103229833D01*
X149273380Y-103187500D01*
X150192619Y-102340833D02*
X150192619Y-102848833D01*
X150192619Y-102594833D02*
X149176619Y-102594833D01*
X149321761Y-102679500D01*
X149418523Y-102764166D01*
X149466904Y-102848833D01*
X149273380Y-102002166D02*
X149225000Y-101959833D01*
X149176619Y-101875166D01*
X149176619Y-101663500D01*
X149225000Y-101578833D01*
X149273380Y-101536500D01*
X149370142Y-101494166D01*
X149466904Y-101494166D01*
X149612047Y-101536500D01*
X150192619Y-102044500D01*
X150192619Y-101494166D01*
X201083333Y-93804619D02*
X201676000Y-93804619D01*
X201083333Y-94820619D01*
X201676000Y-94820619D01*
X202480333Y-94820619D02*
X201972333Y-94820619D01*
X202226333Y-94820619D02*
X202226333Y-93804619D01*
X202141666Y-93949761D01*
X202057000Y-94046523D01*
X201972333Y-94094904D01*
X188510333Y-92758380D02*
X188425666Y-92710000D01*
X188341000Y-92613238D01*
X188214000Y-92468095D01*
X188129333Y-92419714D01*
X188044666Y-92419714D01*
X188087000Y-92661619D02*
X188002333Y-92613238D01*
X187917666Y-92516476D01*
X187875333Y-92322952D01*
X187875333Y-91984285D01*
X187917666Y-91790761D01*
X188002333Y-91694000D01*
X188087000Y-91645619D01*
X188256333Y-91645619D01*
X188341000Y-91694000D01*
X188425666Y-91790761D01*
X188468000Y-91984285D01*
X188468000Y-92322952D01*
X188425666Y-92516476D01*
X188341000Y-92613238D01*
X188256333Y-92661619D01*
X188087000Y-92661619D01*
X188764333Y-91645619D02*
X189314666Y-91645619D01*
X189018333Y-92032666D01*
X189145333Y-92032666D01*
X189230000Y-92081047D01*
X189272333Y-92129428D01*
X189314666Y-92226190D01*
X189314666Y-92468095D01*
X189272333Y-92564857D01*
X189230000Y-92613238D01*
X189145333Y-92661619D01*
X188891333Y-92661619D01*
X188806666Y-92613238D01*
X188764333Y-92564857D01*
X197929500Y-93961857D02*
X197887166Y-94010238D01*
X197760166Y-94058619D01*
X197675500Y-94058619D01*
X197548500Y-94010238D01*
X197463833Y-93913476D01*
X197421500Y-93816714D01*
X197379166Y-93623190D01*
X197379166Y-93478047D01*
X197421500Y-93284523D01*
X197463833Y-93187761D01*
X197548500Y-93091000D01*
X197675500Y-93042619D01*
X197760166Y-93042619D01*
X197887166Y-93091000D01*
X197929500Y-93139380D01*
X198776166Y-94058619D02*
X198268166Y-94058619D01*
X198522166Y-94058619D02*
X198522166Y-93042619D01*
X198437500Y-93187761D01*
X198352833Y-93284523D01*
X198268166Y-93332904D01*
X199326500Y-93042619D02*
X199411166Y-93042619D01*
X199495833Y-93091000D01*
X199538166Y-93139380D01*
X199580500Y-93236142D01*
X199622833Y-93429666D01*
X199622833Y-93671571D01*
X199580500Y-93865095D01*
X199538166Y-93961857D01*
X199495833Y-94010238D01*
X199411166Y-94058619D01*
X199326500Y-94058619D01*
X199241833Y-94010238D01*
X199199500Y-93961857D01*
X199157166Y-93865095D01*
X199114833Y-93671571D01*
X199114833Y-93429666D01*
X199157166Y-93236142D01*
X199199500Y-93139380D01*
X199241833Y-93091000D01*
X199326500Y-93042619D01*
X138514666Y-85676619D02*
X138514666Y-86499095D01*
X138557000Y-86595857D01*
X138599333Y-86644238D01*
X138684000Y-86692619D01*
X138853333Y-86692619D01*
X138938000Y-86644238D01*
X138980333Y-86595857D01*
X139022666Y-86499095D01*
X139022666Y-85676619D01*
X139911666Y-86692619D02*
X139403666Y-86692619D01*
X139657666Y-86692619D02*
X139657666Y-85676619D01*
X139573000Y-85821761D01*
X139488333Y-85918523D01*
X139403666Y-85966904D01*
X167703500Y-94947619D02*
X167407166Y-94463809D01*
X167195500Y-94947619D02*
X167195500Y-93931619D01*
X167534166Y-93931619D01*
X167618833Y-93980000D01*
X167661166Y-94028380D01*
X167703500Y-94125142D01*
X167703500Y-94270285D01*
X167661166Y-94367047D01*
X167618833Y-94415428D01*
X167534166Y-94463809D01*
X167195500Y-94463809D01*
X168550166Y-94947619D02*
X168042166Y-94947619D01*
X168296166Y-94947619D02*
X168296166Y-93931619D01*
X168211500Y-94076761D01*
X168126833Y-94173523D01*
X168042166Y-94221904D01*
X168973500Y-94947619D02*
X169142833Y-94947619D01*
X169227500Y-94899238D01*
X169269833Y-94850857D01*
X169354500Y-94705714D01*
X169396833Y-94512190D01*
X169396833Y-94125142D01*
X169354500Y-94028380D01*
X169312166Y-93980000D01*
X169227500Y-93931619D01*
X169058166Y-93931619D01*
X168973500Y-93980000D01*
X168931166Y-94028380D01*
X168888833Y-94125142D01*
X168888833Y-94367047D01*
X168931166Y-94463809D01*
X168973500Y-94512190D01*
X169058166Y-94560571D01*
X169227500Y-94560571D01*
X169312166Y-94512190D01*
X169354500Y-94463809D01*
X169396833Y-94367047D01*
X181688619Y-98954166D02*
X181204809Y-99250500D01*
X181688619Y-99462166D02*
X180672619Y-99462166D01*
X180672619Y-99123500D01*
X180721000Y-99038833D01*
X180769380Y-98996500D01*
X180866142Y-98954166D01*
X181011285Y-98954166D01*
X181108047Y-98996500D01*
X181156428Y-99038833D01*
X181204809Y-99123500D01*
X181204809Y-99462166D01*
X181688619Y-98530833D02*
X181688619Y-98361500D01*
X181640238Y-98276833D01*
X181591857Y-98234500D01*
X181446714Y-98149833D01*
X181253190Y-98107500D01*
X180866142Y-98107500D01*
X180769380Y-98149833D01*
X180721000Y-98192166D01*
X180672619Y-98276833D01*
X180672619Y-98446166D01*
X180721000Y-98530833D01*
X180769380Y-98573166D01*
X180866142Y-98615500D01*
X181108047Y-98615500D01*
X181204809Y-98573166D01*
X181253190Y-98530833D01*
X181301571Y-98446166D01*
X181301571Y-98276833D01*
X181253190Y-98192166D01*
X181204809Y-98149833D01*
X181108047Y-98107500D01*
X177397833Y-108917619D02*
X177101500Y-108433809D01*
X176889833Y-108917619D02*
X176889833Y-107901619D01*
X177228500Y-107901619D01*
X177313166Y-107950000D01*
X177355500Y-107998380D01*
X177397833Y-108095142D01*
X177397833Y-108240285D01*
X177355500Y-108337047D01*
X177313166Y-108385428D01*
X177228500Y-108433809D01*
X176889833Y-108433809D01*
X177905833Y-108337047D02*
X177821166Y-108288666D01*
X177778833Y-108240285D01*
X177736500Y-108143523D01*
X177736500Y-108095142D01*
X177778833Y-107998380D01*
X177821166Y-107950000D01*
X177905833Y-107901619D01*
X178075166Y-107901619D01*
X178159833Y-107950000D01*
X178202166Y-107998380D01*
X178244500Y-108095142D01*
X178244500Y-108143523D01*
X178202166Y-108240285D01*
X178159833Y-108288666D01*
X178075166Y-108337047D01*
X177905833Y-108337047D01*
X177821166Y-108385428D01*
X177778833Y-108433809D01*
X177736500Y-108530571D01*
X177736500Y-108724095D01*
X177778833Y-108820857D01*
X177821166Y-108869238D01*
X177905833Y-108917619D01*
X178075166Y-108917619D01*
X178159833Y-108869238D01*
X178202166Y-108820857D01*
X178244500Y-108724095D01*
X178244500Y-108530571D01*
X178202166Y-108433809D01*
X178159833Y-108385428D01*
X178075166Y-108337047D01*
X159687380Y-106764666D02*
X159639000Y-106849333D01*
X159542238Y-106934000D01*
X159397095Y-107061000D01*
X159348714Y-107145666D01*
X159348714Y-107230333D01*
X159590619Y-107188000D02*
X159542238Y-107272666D01*
X159445476Y-107357333D01*
X159251952Y-107399666D01*
X158913285Y-107399666D01*
X158719761Y-107357333D01*
X158623000Y-107272666D01*
X158574619Y-107188000D01*
X158574619Y-107018666D01*
X158623000Y-106934000D01*
X158719761Y-106849333D01*
X158913285Y-106807000D01*
X159251952Y-106807000D01*
X159445476Y-106849333D01*
X159542238Y-106934000D01*
X159590619Y-107018666D01*
X159590619Y-107188000D01*
X158913285Y-106045000D02*
X159590619Y-106045000D01*
X158526238Y-106256666D02*
X159251952Y-106468333D01*
X159251952Y-105918000D01*
X154220333Y-109903380D02*
X154135666Y-109855000D01*
X154051000Y-109758238D01*
X153924000Y-109613095D01*
X153839333Y-109564714D01*
X153754666Y-109564714D01*
X153797000Y-109806619D02*
X153712333Y-109758238D01*
X153627666Y-109661476D01*
X153585333Y-109467952D01*
X153585333Y-109129285D01*
X153627666Y-108935761D01*
X153712333Y-108839000D01*
X153797000Y-108790619D01*
X153966333Y-108790619D01*
X154051000Y-108839000D01*
X154135666Y-108935761D01*
X154178000Y-109129285D01*
X154178000Y-109467952D01*
X154135666Y-109661476D01*
X154051000Y-109758238D01*
X153966333Y-109806619D01*
X153797000Y-109806619D01*
X154516666Y-108887380D02*
X154559000Y-108839000D01*
X154643666Y-108790619D01*
X154855333Y-108790619D01*
X154940000Y-108839000D01*
X154982333Y-108887380D01*
X155024666Y-108984142D01*
X155024666Y-109080904D01*
X154982333Y-109226047D01*
X154474333Y-109806619D01*
X155024666Y-109806619D01*
X144314333Y-109649380D02*
X144229666Y-109601000D01*
X144145000Y-109504238D01*
X144018000Y-109359095D01*
X143933333Y-109310714D01*
X143848666Y-109310714D01*
X143891000Y-109552619D02*
X143806333Y-109504238D01*
X143721666Y-109407476D01*
X143679333Y-109213952D01*
X143679333Y-108875285D01*
X143721666Y-108681761D01*
X143806333Y-108585000D01*
X143891000Y-108536619D01*
X144060333Y-108536619D01*
X144145000Y-108585000D01*
X144229666Y-108681761D01*
X144272000Y-108875285D01*
X144272000Y-109213952D01*
X144229666Y-109407476D01*
X144145000Y-109504238D01*
X144060333Y-109552619D01*
X143891000Y-109552619D01*
X145118666Y-109552619D02*
X144610666Y-109552619D01*
X144864666Y-109552619D02*
X144864666Y-108536619D01*
X144780000Y-108681761D01*
X144695333Y-108778523D01*
X144610666Y-108826904D01*
X141710833Y-102313619D02*
X141710833Y-101297619D01*
X142049500Y-101297619D01*
X142134166Y-101346000D01*
X142176500Y-101394380D01*
X142218833Y-101491142D01*
X142218833Y-101636285D01*
X142176500Y-101733047D01*
X142134166Y-101781428D01*
X142049500Y-101829809D01*
X141710833Y-101829809D01*
X143065500Y-102313619D02*
X142557500Y-102313619D01*
X142811500Y-102313619D02*
X142811500Y-101297619D01*
X142726833Y-101442761D01*
X142642166Y-101539523D01*
X142557500Y-101587904D01*
X148160619Y-108860166D02*
X147144619Y-108860166D01*
X147144619Y-108648500D01*
X147193000Y-108521500D01*
X147289761Y-108436833D01*
X147386523Y-108394500D01*
X147580047Y-108352166D01*
X147725190Y-108352166D01*
X147918714Y-108394500D01*
X148015476Y-108436833D01*
X148112238Y-108521500D01*
X148160619Y-108648500D01*
X148160619Y-108860166D01*
X147241380Y-108013500D02*
X147193000Y-107971166D01*
X147144619Y-107886500D01*
X147144619Y-107674833D01*
X147193000Y-107590166D01*
X147241380Y-107547833D01*
X147338142Y-107505500D01*
X147434904Y-107505500D01*
X147580047Y-107547833D01*
X148160619Y-108055833D01*
X148160619Y-107505500D01*
X148160619Y-104923166D02*
X147144619Y-104923166D01*
X147144619Y-104711500D01*
X147193000Y-104584500D01*
X147289761Y-104499833D01*
X147386523Y-104457500D01*
X147580047Y-104415166D01*
X147725190Y-104415166D01*
X147918714Y-104457500D01*
X148015476Y-104499833D01*
X148112238Y-104584500D01*
X148160619Y-104711500D01*
X148160619Y-104923166D01*
X148160619Y-103568500D02*
X148160619Y-104076500D01*
X148160619Y-103822500D02*
X147144619Y-103822500D01*
X147289761Y-103907166D01*
X147386523Y-103991833D01*
X147434904Y-104076500D01*
X183369857Y-105431166D02*
X183418238Y-105473500D01*
X183466619Y-105600500D01*
X183466619Y-105685166D01*
X183418238Y-105812166D01*
X183321476Y-105896833D01*
X183224714Y-105939166D01*
X183031190Y-105981500D01*
X182886047Y-105981500D01*
X182692523Y-105939166D01*
X182595761Y-105896833D01*
X182499000Y-105812166D01*
X182450619Y-105685166D01*
X182450619Y-105600500D01*
X182499000Y-105473500D01*
X182547380Y-105431166D01*
X182450619Y-105134833D02*
X182450619Y-104542166D01*
X183466619Y-104923166D01*
X139932833Y-97390857D02*
X139890500Y-97439238D01*
X139763500Y-97487619D01*
X139678833Y-97487619D01*
X139551833Y-97439238D01*
X139467166Y-97342476D01*
X139424833Y-97245714D01*
X139382500Y-97052190D01*
X139382500Y-96907047D01*
X139424833Y-96713523D01*
X139467166Y-96616761D01*
X139551833Y-96520000D01*
X139678833Y-96471619D01*
X139763500Y-96471619D01*
X139890500Y-96520000D01*
X139932833Y-96568380D01*
X140694833Y-96810285D02*
X140694833Y-97487619D01*
X140483166Y-96423238D02*
X140271500Y-97148952D01*
X140821833Y-97148952D01*
X156503833Y-109582857D02*
X156461500Y-109631238D01*
X156334500Y-109679619D01*
X156249833Y-109679619D01*
X156122833Y-109631238D01*
X156038166Y-109534476D01*
X155995833Y-109437714D01*
X155953500Y-109244190D01*
X155953500Y-109099047D01*
X155995833Y-108905523D01*
X156038166Y-108808761D01*
X156122833Y-108712000D01*
X156249833Y-108663619D01*
X156334500Y-108663619D01*
X156461500Y-108712000D01*
X156503833Y-108760380D01*
X156800166Y-108663619D02*
X157350500Y-108663619D01*
X157054166Y-109050666D01*
X157181166Y-109050666D01*
X157265833Y-109099047D01*
X157308166Y-109147428D01*
X157350500Y-109244190D01*
X157350500Y-109486095D01*
X157308166Y-109582857D01*
X157265833Y-109631238D01*
X157181166Y-109679619D01*
X156927166Y-109679619D01*
X156842500Y-109631238D01*
X156800166Y-109582857D01*
X155553833Y-96374857D02*
X155511500Y-96423238D01*
X155384500Y-96471619D01*
X155299833Y-96471619D01*
X155172833Y-96423238D01*
X155088166Y-96326476D01*
X155045833Y-96229714D01*
X155003500Y-96036190D01*
X155003500Y-95891047D01*
X155045833Y-95697523D01*
X155088166Y-95600761D01*
X155172833Y-95504000D01*
X155299833Y-95455619D01*
X155384500Y-95455619D01*
X155511500Y-95504000D01*
X155553833Y-95552380D01*
X155892500Y-95552380D02*
X155934833Y-95504000D01*
X156019500Y-95455619D01*
X156231166Y-95455619D01*
X156315833Y-95504000D01*
X156358166Y-95552380D01*
X156400500Y-95649142D01*
X156400500Y-95745904D01*
X156358166Y-95891047D01*
X155850166Y-96471619D01*
X156400500Y-96471619D01*
X152505833Y-103232857D02*
X152463500Y-103281238D01*
X152336500Y-103329619D01*
X152251833Y-103329619D01*
X152124833Y-103281238D01*
X152040166Y-103184476D01*
X151997833Y-103087714D01*
X151955500Y-102894190D01*
X151955500Y-102749047D01*
X151997833Y-102555523D01*
X152040166Y-102458761D01*
X152124833Y-102362000D01*
X152251833Y-102313619D01*
X152336500Y-102313619D01*
X152463500Y-102362000D01*
X152505833Y-102410380D01*
X153352500Y-103329619D02*
X152844500Y-103329619D01*
X153098500Y-103329619D02*
X153098500Y-102313619D01*
X153013833Y-102458761D01*
X152929166Y-102555523D01*
X152844500Y-102603904D01*
X148166666Y-92534619D02*
X148166666Y-93357095D01*
X148209000Y-93453857D01*
X148251333Y-93502238D01*
X148336000Y-93550619D01*
X148505333Y-93550619D01*
X148590000Y-93502238D01*
X148632333Y-93453857D01*
X148674666Y-93357095D01*
X148674666Y-92534619D01*
X149013333Y-92534619D02*
X149563666Y-92534619D01*
X149267333Y-92921666D01*
X149394333Y-92921666D01*
X149479000Y-92970047D01*
X149521333Y-93018428D01*
X149563666Y-93115190D01*
X149563666Y-93357095D01*
X149521333Y-93453857D01*
X149479000Y-93502238D01*
X149394333Y-93550619D01*
X149140333Y-93550619D01*
X149055666Y-93502238D01*
X149013333Y-93453857D01*
X130259666Y-114378619D02*
X130259666Y-115201095D01*
X130302000Y-115297857D01*
X130344333Y-115346238D01*
X130429000Y-115394619D01*
X130598333Y-115394619D01*
X130683000Y-115346238D01*
X130725333Y-115297857D01*
X130767666Y-115201095D01*
X130767666Y-114378619D01*
X131148666Y-114475380D02*
X131191000Y-114427000D01*
X131275666Y-114378619D01*
X131487333Y-114378619D01*
X131572000Y-114427000D01*
X131614333Y-114475380D01*
X131656666Y-114572142D01*
X131656666Y-114668904D01*
X131614333Y-114814047D01*
X131106333Y-115394619D01*
X131656666Y-115394619D01*
X125412500Y-113743619D02*
X125116166Y-113259809D01*
X124904500Y-113743619D02*
X124904500Y-112727619D01*
X125243166Y-112727619D01*
X125327833Y-112776000D01*
X125370166Y-112824380D01*
X125412500Y-112921142D01*
X125412500Y-113066285D01*
X125370166Y-113163047D01*
X125327833Y-113211428D01*
X125243166Y-113259809D01*
X124904500Y-113259809D01*
X125751166Y-112824380D02*
X125793500Y-112776000D01*
X125878166Y-112727619D01*
X126089833Y-112727619D01*
X126174500Y-112776000D01*
X126216833Y-112824380D01*
X126259166Y-112921142D01*
X126259166Y-113017904D01*
X126216833Y-113163047D01*
X125708833Y-113743619D01*
X126259166Y-113743619D01*
X127021166Y-112727619D02*
X126851833Y-112727619D01*
X126767166Y-112776000D01*
X126724833Y-112824380D01*
X126640166Y-112969523D01*
X126597833Y-113163047D01*
X126597833Y-113550095D01*
X126640166Y-113646857D01*
X126682500Y-113695238D01*
X126767166Y-113743619D01*
X126936500Y-113743619D01*
X127021166Y-113695238D01*
X127063500Y-113646857D01*
X127105833Y-113550095D01*
X127105833Y-113308190D01*
X127063500Y-113211428D01*
X127021166Y-113163047D01*
X126936500Y-113114666D01*
X126767166Y-113114666D01*
X126682500Y-113163047D01*
X126640166Y-113211428D01*
X126597833Y-113308190D01*
X136857619Y-112458500D02*
X136373809Y-112754833D01*
X136857619Y-112966500D02*
X135841619Y-112966500D01*
X135841619Y-112627833D01*
X135890000Y-112543166D01*
X135938380Y-112500833D01*
X136035142Y-112458500D01*
X136180285Y-112458500D01*
X136277047Y-112500833D01*
X136325428Y-112543166D01*
X136373809Y-112627833D01*
X136373809Y-112966500D01*
X135938380Y-112119833D02*
X135890000Y-112077500D01*
X135841619Y-111992833D01*
X135841619Y-111781166D01*
X135890000Y-111696500D01*
X135938380Y-111654166D01*
X136035142Y-111611833D01*
X136131904Y-111611833D01*
X136277047Y-111654166D01*
X136857619Y-112162166D01*
X136857619Y-111611833D01*
X135841619Y-110807500D02*
X135841619Y-111230833D01*
X136325428Y-111273166D01*
X136277047Y-111230833D01*
X136228666Y-111146166D01*
X136228666Y-110934500D01*
X136277047Y-110849833D01*
X136325428Y-110807500D01*
X136422190Y-110765166D01*
X136664095Y-110765166D01*
X136760857Y-110807500D01*
X136809238Y-110849833D01*
X136857619Y-110934500D01*
X136857619Y-111146166D01*
X136809238Y-111230833D01*
X136760857Y-111273166D01*
X138254619Y-118173500D02*
X137770809Y-118469833D01*
X138254619Y-118681500D02*
X137238619Y-118681500D01*
X137238619Y-118342833D01*
X137287000Y-118258166D01*
X137335380Y-118215833D01*
X137432142Y-118173500D01*
X137577285Y-118173500D01*
X137674047Y-118215833D01*
X137722428Y-118258166D01*
X137770809Y-118342833D01*
X137770809Y-118681500D01*
X137335380Y-117834833D02*
X137287000Y-117792500D01*
X137238619Y-117707833D01*
X137238619Y-117496166D01*
X137287000Y-117411500D01*
X137335380Y-117369166D01*
X137432142Y-117326833D01*
X137528904Y-117326833D01*
X137674047Y-117369166D01*
X138254619Y-117877166D01*
X138254619Y-117326833D01*
X137577285Y-116564833D02*
X138254619Y-116564833D01*
X137190238Y-116776500D02*
X137915952Y-116988166D01*
X137915952Y-116437833D01*
X130111500Y-122379619D02*
X129815166Y-121895809D01*
X129603500Y-122379619D02*
X129603500Y-121363619D01*
X129942166Y-121363619D01*
X130026833Y-121412000D01*
X130069166Y-121460380D01*
X130111500Y-121557142D01*
X130111500Y-121702285D01*
X130069166Y-121799047D01*
X130026833Y-121847428D01*
X129942166Y-121895809D01*
X129603500Y-121895809D01*
X130450166Y-121460380D02*
X130492500Y-121412000D01*
X130577166Y-121363619D01*
X130788833Y-121363619D01*
X130873500Y-121412000D01*
X130915833Y-121460380D01*
X130958166Y-121557142D01*
X130958166Y-121653904D01*
X130915833Y-121799047D01*
X130407833Y-122379619D01*
X130958166Y-122379619D01*
X131254500Y-121363619D02*
X131804833Y-121363619D01*
X131508500Y-121750666D01*
X131635500Y-121750666D01*
X131720166Y-121799047D01*
X131762500Y-121847428D01*
X131804833Y-121944190D01*
X131804833Y-122186095D01*
X131762500Y-122282857D01*
X131720166Y-122331238D01*
X131635500Y-122379619D01*
X131381500Y-122379619D01*
X131296833Y-122331238D01*
X131254500Y-122282857D01*
X159971619Y-96964500D02*
X159487809Y-97260833D01*
X159971619Y-97472500D02*
X158955619Y-97472500D01*
X158955619Y-97133833D01*
X159004000Y-97049166D01*
X159052380Y-97006833D01*
X159149142Y-96964500D01*
X159294285Y-96964500D01*
X159391047Y-97006833D01*
X159439428Y-97049166D01*
X159487809Y-97133833D01*
X159487809Y-97472500D01*
X159052380Y-96625833D02*
X159004000Y-96583500D01*
X158955619Y-96498833D01*
X158955619Y-96287166D01*
X159004000Y-96202500D01*
X159052380Y-96160166D01*
X159149142Y-96117833D01*
X159245904Y-96117833D01*
X159391047Y-96160166D01*
X159971619Y-96668166D01*
X159971619Y-96117833D01*
X159052380Y-95779166D02*
X159004000Y-95736833D01*
X158955619Y-95652166D01*
X158955619Y-95440500D01*
X159004000Y-95355833D01*
X159052380Y-95313500D01*
X159149142Y-95271166D01*
X159245904Y-95271166D01*
X159391047Y-95313500D01*
X159971619Y-95821500D01*
X159971619Y-95271166D01*
X145097500Y-99519619D02*
X144801166Y-99035809D01*
X144589500Y-99519619D02*
X144589500Y-98503619D01*
X144928166Y-98503619D01*
X145012833Y-98552000D01*
X145055166Y-98600380D01*
X145097500Y-98697142D01*
X145097500Y-98842285D01*
X145055166Y-98939047D01*
X145012833Y-98987428D01*
X144928166Y-99035809D01*
X144589500Y-99035809D01*
X145436166Y-98600380D02*
X145478500Y-98552000D01*
X145563166Y-98503619D01*
X145774833Y-98503619D01*
X145859500Y-98552000D01*
X145901833Y-98600380D01*
X145944166Y-98697142D01*
X145944166Y-98793904D01*
X145901833Y-98939047D01*
X145393833Y-99519619D01*
X145944166Y-99519619D01*
X146790833Y-99519619D02*
X146282833Y-99519619D01*
X146536833Y-99519619D02*
X146536833Y-98503619D01*
X146452166Y-98648761D01*
X146367500Y-98745523D01*
X146282833Y-98793904D01*
X164035619Y-93535500D02*
X163551809Y-93831833D01*
X164035619Y-94043500D02*
X163019619Y-94043500D01*
X163019619Y-93704833D01*
X163068000Y-93620166D01*
X163116380Y-93577833D01*
X163213142Y-93535500D01*
X163358285Y-93535500D01*
X163455047Y-93577833D01*
X163503428Y-93620166D01*
X163551809Y-93704833D01*
X163551809Y-94043500D01*
X163116380Y-93196833D02*
X163068000Y-93154500D01*
X163019619Y-93069833D01*
X163019619Y-92858166D01*
X163068000Y-92773500D01*
X163116380Y-92731166D01*
X163213142Y-92688833D01*
X163309904Y-92688833D01*
X163455047Y-92731166D01*
X164035619Y-93239166D01*
X164035619Y-92688833D01*
X163019619Y-92138500D02*
X163019619Y-92053833D01*
X163068000Y-91969166D01*
X163116380Y-91926833D01*
X163213142Y-91884500D01*
X163406666Y-91842166D01*
X163648571Y-91842166D01*
X163842095Y-91884500D01*
X163938857Y-91926833D01*
X163987238Y-91969166D01*
X164035619Y-92053833D01*
X164035619Y-92138500D01*
X163987238Y-92223166D01*
X163938857Y-92265500D01*
X163842095Y-92307833D01*
X163648571Y-92350166D01*
X163406666Y-92350166D01*
X163213142Y-92307833D01*
X163116380Y-92265500D01*
X163068000Y-92223166D01*
X163019619Y-92138500D01*
X138508619Y-112585500D02*
X138024809Y-112881833D01*
X138508619Y-113093500D02*
X137492619Y-113093500D01*
X137492619Y-112754833D01*
X137541000Y-112670166D01*
X137589380Y-112627833D01*
X137686142Y-112585500D01*
X137831285Y-112585500D01*
X137928047Y-112627833D01*
X137976428Y-112670166D01*
X138024809Y-112754833D01*
X138024809Y-113093500D01*
X138508619Y-111738833D02*
X138508619Y-112246833D01*
X138508619Y-111992833D02*
X137492619Y-111992833D01*
X137637761Y-112077500D01*
X137734523Y-112162166D01*
X137782904Y-112246833D01*
X137928047Y-111230833D02*
X137879666Y-111315500D01*
X137831285Y-111357833D01*
X137734523Y-111400166D01*
X137686142Y-111400166D01*
X137589380Y-111357833D01*
X137541000Y-111315500D01*
X137492619Y-111230833D01*
X137492619Y-111061500D01*
X137541000Y-110976833D01*
X137589380Y-110934500D01*
X137686142Y-110892166D01*
X137734523Y-110892166D01*
X137831285Y-110934500D01*
X137879666Y-110976833D01*
X137928047Y-111061500D01*
X137928047Y-111230833D01*
X137976428Y-111315500D01*
X138024809Y-111357833D01*
X138121571Y-111400166D01*
X138315095Y-111400166D01*
X138411857Y-111357833D01*
X138460238Y-111315500D01*
X138508619Y-111230833D01*
X138508619Y-111061500D01*
X138460238Y-110976833D01*
X138411857Y-110934500D01*
X138315095Y-110892166D01*
X138121571Y-110892166D01*
X138024809Y-110934500D01*
X137976428Y-110976833D01*
X137928047Y-111061500D01*
X143461619Y-118554500D02*
X142977809Y-118850833D01*
X143461619Y-119062500D02*
X142445619Y-119062500D01*
X142445619Y-118723833D01*
X142494000Y-118639166D01*
X142542380Y-118596833D01*
X142639142Y-118554500D01*
X142784285Y-118554500D01*
X142881047Y-118596833D01*
X142929428Y-118639166D01*
X142977809Y-118723833D01*
X142977809Y-119062500D01*
X143461619Y-117707833D02*
X143461619Y-118215833D01*
X143461619Y-117961833D02*
X142445619Y-117961833D01*
X142590761Y-118046500D01*
X142687523Y-118131166D01*
X142735904Y-118215833D01*
X142445619Y-117411500D02*
X142445619Y-116818833D01*
X143461619Y-117199833D01*
X140779500Y-109679619D02*
X140483166Y-109195809D01*
X140271500Y-109679619D02*
X140271500Y-108663619D01*
X140610166Y-108663619D01*
X140694833Y-108712000D01*
X140737166Y-108760380D01*
X140779500Y-108857142D01*
X140779500Y-109002285D01*
X140737166Y-109099047D01*
X140694833Y-109147428D01*
X140610166Y-109195809D01*
X140271500Y-109195809D01*
X141626166Y-109679619D02*
X141118166Y-109679619D01*
X141372166Y-109679619D02*
X141372166Y-108663619D01*
X141287500Y-108808761D01*
X141202833Y-108905523D01*
X141118166Y-108953904D01*
X142430500Y-108663619D02*
X142007166Y-108663619D01*
X141964833Y-109147428D01*
X142007166Y-109099047D01*
X142091833Y-109050666D01*
X142303500Y-109050666D01*
X142388166Y-109099047D01*
X142430500Y-109147428D01*
X142472833Y-109244190D01*
X142472833Y-109486095D01*
X142430500Y-109582857D01*
X142388166Y-109631238D01*
X142303500Y-109679619D01*
X142091833Y-109679619D01*
X142007166Y-109631238D01*
X141964833Y-109582857D01*
X152986619Y-99377500D02*
X152502809Y-99673833D01*
X152986619Y-99885500D02*
X151970619Y-99885500D01*
X151970619Y-99546833D01*
X152019000Y-99462166D01*
X152067380Y-99419833D01*
X152164142Y-99377500D01*
X152309285Y-99377500D01*
X152406047Y-99419833D01*
X152454428Y-99462166D01*
X152502809Y-99546833D01*
X152502809Y-99885500D01*
X152986619Y-98530833D02*
X152986619Y-99038833D01*
X152986619Y-98784833D02*
X151970619Y-98784833D01*
X152115761Y-98869500D01*
X152212523Y-98954166D01*
X152260904Y-99038833D01*
X151970619Y-98234500D02*
X151970619Y-97684166D01*
X152357666Y-97980500D01*
X152357666Y-97853500D01*
X152406047Y-97768833D01*
X152454428Y-97726500D01*
X152551190Y-97684166D01*
X152793095Y-97684166D01*
X152889857Y-97726500D01*
X152938238Y-97768833D01*
X152986619Y-97853500D01*
X152986619Y-98107500D01*
X152938238Y-98192166D01*
X152889857Y-98234500D01*
X152986619Y-96456500D02*
X152502809Y-96752833D01*
X152986619Y-96964500D02*
X151970619Y-96964500D01*
X151970619Y-96625833D01*
X152019000Y-96541166D01*
X152067380Y-96498833D01*
X152164142Y-96456500D01*
X152309285Y-96456500D01*
X152406047Y-96498833D01*
X152454428Y-96541166D01*
X152502809Y-96625833D01*
X152502809Y-96964500D01*
X152986619Y-95609833D02*
X152986619Y-96117833D01*
X152986619Y-95863833D02*
X151970619Y-95863833D01*
X152115761Y-95948500D01*
X152212523Y-96033166D01*
X152260904Y-96117833D01*
X152067380Y-95271166D02*
X152019000Y-95228833D01*
X151970619Y-95144166D01*
X151970619Y-94932500D01*
X152019000Y-94847833D01*
X152067380Y-94805500D01*
X152164142Y-94763166D01*
X152260904Y-94763166D01*
X152406047Y-94805500D01*
X152986619Y-95313500D01*
X152986619Y-94763166D01*
X152590500Y-92407619D02*
X152294166Y-91923809D01*
X152082500Y-92407619D02*
X152082500Y-91391619D01*
X152421166Y-91391619D01*
X152505833Y-91440000D01*
X152548166Y-91488380D01*
X152590500Y-91585142D01*
X152590500Y-91730285D01*
X152548166Y-91827047D01*
X152505833Y-91875428D01*
X152421166Y-91923809D01*
X152082500Y-91923809D01*
X153437166Y-92407619D02*
X152929166Y-92407619D01*
X153183166Y-92407619D02*
X153183166Y-91391619D01*
X153098500Y-91536761D01*
X153013833Y-91633523D01*
X152929166Y-91681904D01*
X154283833Y-92407619D02*
X153775833Y-92407619D01*
X154029833Y-92407619D02*
X154029833Y-91391619D01*
X153945166Y-91536761D01*
X153860500Y-91633523D01*
X153775833Y-91681904D01*
X152859619Y-115718166D02*
X152375809Y-116014500D01*
X152859619Y-116226166D02*
X151843619Y-116226166D01*
X151843619Y-115887500D01*
X151892000Y-115802833D01*
X151940380Y-115760500D01*
X152037142Y-115718166D01*
X152182285Y-115718166D01*
X152279047Y-115760500D01*
X152327428Y-115802833D01*
X152375809Y-115887500D01*
X152375809Y-116226166D01*
X151843619Y-115421833D02*
X151843619Y-114829166D01*
X152859619Y-115210166D01*
X149049619Y-116226166D02*
X148565809Y-116522500D01*
X149049619Y-116734166D02*
X148033619Y-116734166D01*
X148033619Y-116395500D01*
X148082000Y-116310833D01*
X148130380Y-116268500D01*
X148227142Y-116226166D01*
X148372285Y-116226166D01*
X148469047Y-116268500D01*
X148517428Y-116310833D01*
X148565809Y-116395500D01*
X148565809Y-116734166D01*
X148033619Y-115464166D02*
X148033619Y-115633500D01*
X148082000Y-115718166D01*
X148130380Y-115760500D01*
X148275523Y-115845166D01*
X148469047Y-115887500D01*
X148856095Y-115887500D01*
X148952857Y-115845166D01*
X149001238Y-115802833D01*
X149049619Y-115718166D01*
X149049619Y-115548833D01*
X149001238Y-115464166D01*
X148952857Y-115421833D01*
X148856095Y-115379500D01*
X148614190Y-115379500D01*
X148517428Y-115421833D01*
X148469047Y-115464166D01*
X148420666Y-115548833D01*
X148420666Y-115718166D01*
X148469047Y-115802833D01*
X148517428Y-115845166D01*
X148614190Y-115887500D01*
X156669619Y-116099166D02*
X156185809Y-116395500D01*
X156669619Y-116607166D02*
X155653619Y-116607166D01*
X155653619Y-116268500D01*
X155702000Y-116183833D01*
X155750380Y-116141500D01*
X155847142Y-116099166D01*
X155992285Y-116099166D01*
X156089047Y-116141500D01*
X156137428Y-116183833D01*
X156185809Y-116268500D01*
X156185809Y-116607166D01*
X155653619Y-115294833D02*
X155653619Y-115718166D01*
X156137428Y-115760500D01*
X156089047Y-115718166D01*
X156040666Y-115633500D01*
X156040666Y-115421833D01*
X156089047Y-115337166D01*
X156137428Y-115294833D01*
X156234190Y-115252500D01*
X156476095Y-115252500D01*
X156572857Y-115294833D01*
X156621238Y-115337166D01*
X156669619Y-115421833D01*
X156669619Y-115633500D01*
X156621238Y-115718166D01*
X156572857Y-115760500D01*
X158955619Y-115845166D02*
X158471809Y-116141500D01*
X158955619Y-116353166D02*
X157939619Y-116353166D01*
X157939619Y-116014500D01*
X157988000Y-115929833D01*
X158036380Y-115887500D01*
X158133142Y-115845166D01*
X158278285Y-115845166D01*
X158375047Y-115887500D01*
X158423428Y-115929833D01*
X158471809Y-116014500D01*
X158471809Y-116353166D01*
X158278285Y-115083166D02*
X158955619Y-115083166D01*
X157891238Y-115294833D02*
X158616952Y-115506500D01*
X158616952Y-114956166D01*
X163681833Y-116029619D02*
X163385500Y-115545809D01*
X163173833Y-116029619D02*
X163173833Y-115013619D01*
X163512500Y-115013619D01*
X163597166Y-115062000D01*
X163639500Y-115110380D01*
X163681833Y-115207142D01*
X163681833Y-115352285D01*
X163639500Y-115449047D01*
X163597166Y-115497428D01*
X163512500Y-115545809D01*
X163173833Y-115545809D01*
X164020500Y-115110380D02*
X164062833Y-115062000D01*
X164147500Y-115013619D01*
X164359166Y-115013619D01*
X164443833Y-115062000D01*
X164486166Y-115110380D01*
X164528500Y-115207142D01*
X164528500Y-115303904D01*
X164486166Y-115449047D01*
X163978166Y-116029619D01*
X164528500Y-116029619D01*
X167491833Y-116029619D02*
X167195500Y-115545809D01*
X166983833Y-116029619D02*
X166983833Y-115013619D01*
X167322500Y-115013619D01*
X167407166Y-115062000D01*
X167449500Y-115110380D01*
X167491833Y-115207142D01*
X167491833Y-115352285D01*
X167449500Y-115449047D01*
X167407166Y-115497428D01*
X167322500Y-115545809D01*
X166983833Y-115545809D01*
X168338500Y-116029619D02*
X167830500Y-116029619D01*
X168084500Y-116029619D02*
X168084500Y-115013619D01*
X167999833Y-115158761D01*
X167915166Y-115255523D01*
X167830500Y-115303904D01*
X174857833Y-112600619D02*
X174857833Y-111584619D01*
X175069500Y-111584619D01*
X175196500Y-111633000D01*
X175281166Y-111729761D01*
X175323500Y-111826523D01*
X175365833Y-112020047D01*
X175365833Y-112165190D01*
X175323500Y-112358714D01*
X175281166Y-112455476D01*
X175196500Y-112552238D01*
X175069500Y-112600619D01*
X174857833Y-112600619D01*
X175662166Y-111584619D02*
X176212500Y-111584619D01*
X175916166Y-111971666D01*
X176043166Y-111971666D01*
X176127833Y-112020047D01*
X176170166Y-112068428D01*
X176212500Y-112165190D01*
X176212500Y-112407095D01*
X176170166Y-112503857D01*
X176127833Y-112552238D01*
X176043166Y-112600619D01*
X175789166Y-112600619D01*
X175704500Y-112552238D01*
X175662166Y-112503857D01*
X125539500Y-111868857D02*
X125497166Y-111917238D01*
X125370166Y-111965619D01*
X125285500Y-111965619D01*
X125158500Y-111917238D01*
X125073833Y-111820476D01*
X125031500Y-111723714D01*
X124989166Y-111530190D01*
X124989166Y-111385047D01*
X125031500Y-111191523D01*
X125073833Y-111094761D01*
X125158500Y-110998000D01*
X125285500Y-110949619D01*
X125370166Y-110949619D01*
X125497166Y-110998000D01*
X125539500Y-111046380D01*
X126386166Y-111965619D02*
X125878166Y-111965619D01*
X126132166Y-111965619D02*
X126132166Y-110949619D01*
X126047500Y-111094761D01*
X125962833Y-111191523D01*
X125878166Y-111239904D01*
X126894166Y-111385047D02*
X126809500Y-111336666D01*
X126767166Y-111288285D01*
X126724833Y-111191523D01*
X126724833Y-111143142D01*
X126767166Y-111046380D01*
X126809500Y-110998000D01*
X126894166Y-110949619D01*
X127063500Y-110949619D01*
X127148166Y-110998000D01*
X127190500Y-111046380D01*
X127232833Y-111143142D01*
X127232833Y-111191523D01*
X127190500Y-111288285D01*
X127148166Y-111336666D01*
X127063500Y-111385047D01*
X126894166Y-111385047D01*
X126809500Y-111433428D01*
X126767166Y-111481809D01*
X126724833Y-111578571D01*
X126724833Y-111772095D01*
X126767166Y-111868857D01*
X126809500Y-111917238D01*
X126894166Y-111965619D01*
X127063500Y-111965619D01*
X127148166Y-111917238D01*
X127190500Y-111868857D01*
X127232833Y-111772095D01*
X127232833Y-111578571D01*
X127190500Y-111481809D01*
X127148166Y-111433428D01*
X127063500Y-111385047D01*
X129857500Y-117837857D02*
X129815166Y-117886238D01*
X129688166Y-117934619D01*
X129603500Y-117934619D01*
X129476500Y-117886238D01*
X129391833Y-117789476D01*
X129349500Y-117692714D01*
X129307166Y-117499190D01*
X129307166Y-117354047D01*
X129349500Y-117160523D01*
X129391833Y-117063761D01*
X129476500Y-116967000D01*
X129603500Y-116918619D01*
X129688166Y-116918619D01*
X129815166Y-116967000D01*
X129857500Y-117015380D01*
X130704166Y-117934619D02*
X130196166Y-117934619D01*
X130450166Y-117934619D02*
X130450166Y-116918619D01*
X130365500Y-117063761D01*
X130280833Y-117160523D01*
X130196166Y-117208904D01*
X131000500Y-116918619D02*
X131593166Y-116918619D01*
X131212166Y-117934619D01*
X128757467Y-87528690D02*
X128761743Y-87592834D01*
X128706151Y-87716848D01*
X128646283Y-87776716D01*
X128522270Y-87832308D01*
X128393980Y-87823755D01*
X128295625Y-87785269D01*
X128128849Y-87678361D01*
X128026217Y-87575729D01*
X127919309Y-87408953D01*
X127880823Y-87310598D01*
X127872270Y-87182308D01*
X127927862Y-87058295D01*
X127987730Y-86998427D01*
X128111744Y-86942835D01*
X128175888Y-86947111D01*
X129424571Y-86998427D02*
X129065361Y-87357637D01*
X129244966Y-87178032D02*
X128526546Y-86459612D01*
X128569309Y-86622112D01*
X128577862Y-86750401D01*
X128552204Y-86844480D01*
X129244966Y-85741191D02*
X129125230Y-85860928D01*
X129099572Y-85955007D01*
X129103848Y-86019151D01*
X129146611Y-86181651D01*
X129253519Y-86348428D01*
X129527203Y-86622112D01*
X129625558Y-86660598D01*
X129689703Y-86664875D01*
X129783782Y-86639217D01*
X129903518Y-86519480D01*
X129929176Y-86425401D01*
X129924900Y-86361256D01*
X129886413Y-86262901D01*
X129715361Y-86091849D01*
X129617006Y-86053362D01*
X129552861Y-86049086D01*
X129458782Y-86074744D01*
X129339045Y-86194480D01*
X129313387Y-86288559D01*
X129317664Y-86352704D01*
X129356150Y-86451059D01*
X150984857Y-116268500D02*
X151033238Y-116310833D01*
X151081619Y-116437833D01*
X151081619Y-116522500D01*
X151033238Y-116649500D01*
X150936476Y-116734166D01*
X150839714Y-116776500D01*
X150646190Y-116818833D01*
X150501047Y-116818833D01*
X150307523Y-116776500D01*
X150210761Y-116734166D01*
X150114000Y-116649500D01*
X150065619Y-116522500D01*
X150065619Y-116437833D01*
X150114000Y-116310833D01*
X150162380Y-116268500D01*
X151081619Y-115421833D02*
X151081619Y-115929833D01*
X151081619Y-115675833D02*
X150065619Y-115675833D01*
X150210761Y-115760500D01*
X150307523Y-115845166D01*
X150355904Y-115929833D01*
X150404285Y-114659833D02*
X151081619Y-114659833D01*
X150017238Y-114871500D02*
X150742952Y-115083166D01*
X150742952Y-114532833D01*
X154540857Y-116395500D02*
X154589238Y-116437833D01*
X154637619Y-116564833D01*
X154637619Y-116649500D01*
X154589238Y-116776500D01*
X154492476Y-116861166D01*
X154395714Y-116903500D01*
X154202190Y-116945833D01*
X154057047Y-116945833D01*
X153863523Y-116903500D01*
X153766761Y-116861166D01*
X153670000Y-116776500D01*
X153621619Y-116649500D01*
X153621619Y-116564833D01*
X153670000Y-116437833D01*
X153718380Y-116395500D01*
X154637619Y-115548833D02*
X154637619Y-116056833D01*
X154637619Y-115802833D02*
X153621619Y-115802833D01*
X153766761Y-115887500D01*
X153863523Y-115972166D01*
X153911904Y-116056833D01*
X153621619Y-115252500D02*
X153621619Y-114702166D01*
X154008666Y-114998500D01*
X154008666Y-114871500D01*
X154057047Y-114786833D01*
X154105428Y-114744500D01*
X154202190Y-114702166D01*
X154444095Y-114702166D01*
X154540857Y-114744500D01*
X154589238Y-114786833D01*
X154637619Y-114871500D01*
X154637619Y-115125500D01*
X154589238Y-115210166D01*
X154540857Y-115252500D01*
X147174857Y-112458500D02*
X147223238Y-112500833D01*
X147271619Y-112627833D01*
X147271619Y-112712500D01*
X147223238Y-112839500D01*
X147126476Y-112924166D01*
X147029714Y-112966500D01*
X146836190Y-113008833D01*
X146691047Y-113008833D01*
X146497523Y-112966500D01*
X146400761Y-112924166D01*
X146304000Y-112839500D01*
X146255619Y-112712500D01*
X146255619Y-112627833D01*
X146304000Y-112500833D01*
X146352380Y-112458500D01*
X147271619Y-111611833D02*
X147271619Y-112119833D01*
X147271619Y-111865833D02*
X146255619Y-111865833D01*
X146400761Y-111950500D01*
X146497523Y-112035166D01*
X146545904Y-112119833D01*
X147271619Y-110765166D02*
X147271619Y-111273166D01*
X147271619Y-111019166D02*
X146255619Y-111019166D01*
X146400761Y-111103833D01*
X146497523Y-111188500D01*
X146545904Y-111273166D01*
M02*
