G04 #@! TF.GenerationSoftware,KiCad,Pcbnew,(5.99.0-273-g43768b71c)*
G04 #@! TF.CreationDate,2019-11-20T15:23:38-05:00*
G04 #@! TF.ProjectId,Plasma_Pilot3,506c6173-6d61-45f5-9069-6c6f74332e6b,rev?*
G04 #@! TF.SameCoordinates,Original*
G04 #@! TF.FileFunction,Copper,L1,Top*
G04 #@! TF.FilePolarity,Positive*
%FSLAX46Y46*%
G04 Gerber Fmt 4.6, Leading zero omitted, Abs format (unit mm)*
G04 Created by KiCad (PCBNEW (5.99.0-273-g43768b71c)) date 2019-11-20 15:23:38*
%MOMM*%
%LPD*%
G04 APERTURE LIST*
%ADD10C,2.540000*%
%ADD11C,4.064000*%
%ADD12R,0.700000X0.900000*%
%ADD13C,5.080000*%
%ADD14R,1.000760X0.599440*%
%ADD15R,1.430020X0.551180*%
%ADD16R,2.800000X1.600000*%
%ADD17C,1.270000*%
%ADD18R,0.900000X0.700000*%
%ADD19C,2.500000*%
%ADD20O,4.500000X2.500000*%
%ADD21R,4.500000X2.500000*%
%ADD22C,2.000000*%
%ADD23R,3.250000X2.150000*%
%ADD24R,0.950000X2.150000*%
%ADD25R,1.000000X1.500000*%
%ADD26R,1.500000X1.000000*%
%ADD27O,1.700000X1.700000*%
%ADD28R,1.700000X1.700000*%
%ADD29R,1.200000X2.500000*%
%ADD30R,0.599440X1.000760*%
%ADD31C,2.600000*%
%ADD32R,2.600000X2.600000*%
%ADD33R,1.600200X1.803400*%
%ADD34R,1.803400X1.600200*%
%ADD35R,1.100000X1.100000*%
%ADD36R,2.500000X2.500000*%
%ADD37C,0.889000*%
%ADD38C,0.381000*%
%ADD39C,0.254000*%
%ADD40C,0.889000*%
%ADD41C,0.508000*%
%ADD42C,0.635000*%
%ADD43C,1.270000*%
G04 APERTURE END LIST*
D10*
X171450000Y-92710000D03*
D11*
X195580000Y-91567000D03*
X195580000Y-114173000D03*
D12*
X149086000Y-100711000D03*
X147586000Y-100711000D03*
D13*
X124460000Y-117475000D03*
X177800000Y-117475000D03*
X177800000Y-89535000D03*
D14*
X142534640Y-113855500D03*
X140421360Y-114808000D03*
X142534640Y-115760500D03*
D12*
X131965000Y-112903000D03*
X133465000Y-112903000D03*
D15*
X134426960Y-109499400D03*
X134426960Y-108229400D03*
X134426960Y-106959400D03*
X134426960Y-105689400D03*
X134426960Y-104419400D03*
X134426960Y-103149400D03*
X134426960Y-101879400D03*
X134426960Y-100609400D03*
X134426960Y-99339400D03*
X134426960Y-98069400D03*
X124805440Y-98069400D03*
X124805440Y-99339400D03*
X124805440Y-100609400D03*
X124805440Y-101879400D03*
X124805440Y-103149400D03*
X124805440Y-104419400D03*
X124805440Y-105689400D03*
X124805440Y-106959400D03*
X124805440Y-108229400D03*
X124805440Y-109499400D03*
D16*
X163006000Y-108144000D03*
X163006000Y-105644000D03*
X163006000Y-103144000D03*
X163006000Y-100644000D03*
X174306000Y-100644000D03*
X174306000Y-103144000D03*
X174306000Y-105644000D03*
X174306000Y-108144000D03*
D17*
X122555000Y-96393000D03*
X122555000Y-98933000D03*
X122555000Y-101854000D03*
X122555000Y-104648000D03*
D12*
X136614000Y-98298000D03*
X138214000Y-98298000D03*
D18*
X151130000Y-102477000D03*
X151130000Y-100977000D03*
D19*
X202141000Y-101680000D03*
X199941000Y-111680000D03*
D20*
X188569600Y-98817000D03*
X188569600Y-104267000D03*
D21*
X188569600Y-109717000D03*
D22*
X195580000Y-96981000D03*
X195580000Y-106981000D03*
D23*
X143002000Y-86529000D03*
D24*
X145302000Y-92329000D03*
X143002000Y-92329000D03*
X140702000Y-92329000D03*
D22*
X130175000Y-119888000D03*
X188595000Y-94615000D03*
X188595000Y-113792000D03*
D25*
X167198000Y-92710000D03*
X169098000Y-92710000D03*
D26*
X181229000Y-100523000D03*
X181229000Y-102423000D03*
D25*
X179390000Y-108331000D03*
X181290000Y-108331000D03*
D14*
X158052800Y-105600500D03*
X160166080Y-106553000D03*
X158052800Y-107505500D03*
X154391360Y-105600500D03*
X156504640Y-106553000D03*
X154391360Y-107505500D03*
X143301720Y-110553500D03*
X145415000Y-111506000D03*
X143301720Y-112458500D03*
D27*
X139700000Y-106680000D03*
X139700000Y-104140000D03*
X142240000Y-106680000D03*
X142240000Y-104140000D03*
X144780000Y-106680000D03*
D28*
X144780000Y-104140000D03*
D14*
X150916640Y-110553500D03*
X148803360Y-109601000D03*
X150916640Y-108648500D03*
X150916640Y-106743500D03*
X148803360Y-105791000D03*
X150916640Y-104838500D03*
D26*
X181229000Y-104460000D03*
X181229000Y-106360000D03*
D29*
X142010000Y-96012000D03*
X145010000Y-96012000D03*
D25*
X158181000Y-109347000D03*
X160081000Y-109347000D03*
D29*
X154305000Y-98425000D03*
X157305000Y-98425000D03*
X154329000Y-101600000D03*
X157329000Y-101600000D03*
D30*
X147510500Y-94955360D03*
X149415500Y-94955360D03*
X148463000Y-97068640D03*
X149415500Y-97068640D03*
X147510500Y-97068640D03*
X134429500Y-116626640D03*
X132524500Y-116626640D03*
X133477000Y-114513360D03*
X132524500Y-114513360D03*
X134429500Y-114513360D03*
D31*
X161290000Y-88900000D03*
X156210000Y-88900000D03*
D32*
X151130000Y-88900000D03*
D31*
X170688000Y-118364000D03*
X165608000Y-118364000D03*
D32*
X160528000Y-118364000D03*
D12*
X129705000Y-113157000D03*
X128105000Y-113157000D03*
D18*
X136271000Y-115496140D03*
X136271000Y-113896140D03*
X136271000Y-118529000D03*
X136271000Y-116929000D03*
D33*
X133211570Y-120777000D03*
X136005570Y-120777000D03*
D34*
X159512000Y-98933000D03*
X159512000Y-101727000D03*
D12*
X149136000Y-99060000D03*
X147536000Y-99060000D03*
D18*
X165227000Y-92291000D03*
X165227000Y-93891000D03*
X138684000Y-114008000D03*
X138684000Y-115608000D03*
X144272000Y-116116000D03*
X144272000Y-114516000D03*
D12*
X157837000Y-104013000D03*
X159437000Y-104013000D03*
D18*
X141351000Y-112268000D03*
X141351000Y-110668000D03*
D12*
X154535000Y-104013000D03*
X156135000Y-104013000D03*
D18*
X151130000Y-98006000D03*
X151130000Y-99606000D03*
X151066500Y-94958000D03*
X151066500Y-96558000D03*
D12*
X153962000Y-93345000D03*
X152362000Y-93345000D03*
D18*
X152400000Y-113919000D03*
X152400000Y-112319000D03*
D26*
X148590000Y-114361000D03*
X148590000Y-112461000D03*
X156210000Y-114361000D03*
X156210000Y-112461000D03*
D18*
X158369000Y-113995000D03*
X158369000Y-112395000D03*
D12*
X160490000Y-115443000D03*
X162090000Y-115443000D03*
X170726000Y-115570000D03*
X169126000Y-115570000D03*
D35*
X180721000Y-110744000D03*
X177921000Y-110744000D03*
D12*
X129655000Y-111506000D03*
X128155000Y-111506000D03*
X134608000Y-118491000D03*
X133108000Y-118491000D03*
G04 #@! TA.AperFunction,SMDPad,CuDef*
G36*
X136063362Y-86331389D02*
G01*
X136144468Y-86385582D01*
X137134418Y-87375532D01*
X137188611Y-87456638D01*
X137207641Y-87552309D01*
X137188611Y-87647980D01*
X137134418Y-87729086D01*
X134553478Y-90310026D01*
X134472372Y-90364219D01*
X134376701Y-90383249D01*
X134281030Y-90364219D01*
X134199924Y-90310026D01*
X133209974Y-89320076D01*
X133155781Y-89238970D01*
X133136751Y-89143299D01*
X133155781Y-89047628D01*
X133209974Y-88966522D01*
X135790914Y-86385582D01*
X135872020Y-86331389D01*
X135967691Y-86312359D01*
X136063362Y-86331389D01*
G37*
G04 #@! TD.AperFunction*
G04 #@! TA.AperFunction,SMDPad,CuDef*
G36*
X131148970Y-91245781D02*
G01*
X131230076Y-91299974D01*
X132220026Y-92289924D01*
X132274219Y-92371030D01*
X132293249Y-92466701D01*
X132274219Y-92562372D01*
X132220026Y-92643478D01*
X129639086Y-95224418D01*
X129557980Y-95278611D01*
X129462309Y-95297641D01*
X129366638Y-95278611D01*
X129285532Y-95224418D01*
X128295582Y-94234468D01*
X128241389Y-94153362D01*
X128222359Y-94057691D01*
X128241389Y-93962020D01*
X128295582Y-93880914D01*
X130876522Y-91299974D01*
X130957628Y-91245781D01*
X131053299Y-91226751D01*
X131148970Y-91245781D01*
G37*
G04 #@! TD.AperFunction*
D18*
X150622000Y-113907000D03*
X150622000Y-112407000D03*
X154178000Y-113895000D03*
X154178000Y-112395000D03*
X146177000Y-113677000D03*
X146177000Y-115177000D03*
D36*
X155448000Y-118364000D03*
D19*
X150368000Y-118364000D03*
D36*
X125095000Y-92710000D03*
D19*
X125095000Y-87630000D03*
D36*
X145288000Y-118364000D03*
D19*
X140208000Y-118364000D03*
D36*
X178435000Y-105664000D03*
D19*
X178435000Y-100584000D03*
D36*
X171450000Y-88900000D03*
D19*
X166370000Y-88900000D03*
D37*
X184150000Y-101600000D03*
X184150000Y-106045000D03*
X184150000Y-105029000D03*
X184150000Y-103886000D03*
X184150000Y-102743000D03*
X143002000Y-90170000D03*
X140081000Y-86106000D03*
X140081000Y-87630000D03*
X141351000Y-88773000D03*
X143129000Y-88773000D03*
X144653000Y-88646000D03*
X145669000Y-87376000D03*
X145669000Y-86106000D03*
X156845000Y-93980000D03*
X159893000Y-93853000D03*
X126746000Y-101092000D03*
X131826000Y-109347000D03*
X131191000Y-108204000D03*
X131191000Y-106172000D03*
X135255000Y-113919000D03*
X129794000Y-114300000D03*
X129921000Y-116205000D03*
X137795000Y-120904000D03*
X152273000Y-100330000D03*
X143637000Y-98806000D03*
X131064000Y-115951000D03*
X137795000Y-119634000D03*
X153162000Y-98425000D03*
X153035000Y-101600000D03*
X156845000Y-109347000D03*
X148717000Y-106934000D03*
X138557000Y-101092000D03*
X136525000Y-99568000D03*
X134493000Y-112903000D03*
X159512000Y-96520000D03*
X139954000Y-95631000D03*
X138684000Y-94488000D03*
X147574000Y-93726000D03*
X152400000Y-114935000D03*
X154178000Y-114935000D03*
X158369000Y-115062000D03*
X154305000Y-108458000D03*
X131064000Y-112903000D03*
X132080000Y-118491000D03*
X152654000Y-110871000D03*
X138811000Y-111760000D03*
X139192000Y-110617000D03*
X146177000Y-110363000D03*
X132461000Y-102743000D03*
X132334000Y-104775000D03*
X160147000Y-105029000D03*
X126492000Y-105791000D03*
X126619000Y-102743000D03*
X126619000Y-104140000D03*
X140081000Y-112268000D03*
D38*
X181930000Y-100523000D02*
X182626000Y-101219000D01*
X182626000Y-103759000D02*
X181991000Y-104394000D01*
X181229000Y-100523000D02*
X181930000Y-100523000D01*
X181991000Y-104394000D02*
X181102000Y-104394000D01*
X182626000Y-101219000D02*
X182626000Y-103759000D01*
D39*
X156337000Y-92837000D02*
X154686000Y-94488000D01*
X154686000Y-94488000D02*
X153035000Y-94488000D01*
X163469000Y-92837000D02*
X156337000Y-92837000D01*
X165227000Y-93891000D02*
X164523000Y-93891000D01*
X152400000Y-95123000D02*
X152400000Y-96012000D01*
X164523000Y-93891000D02*
X163469000Y-92837000D01*
X153035000Y-94488000D02*
X152400000Y-95123000D01*
D38*
X163449000Y-92075000D02*
X154940000Y-92075000D01*
X166370000Y-89154000D02*
X163449000Y-92075000D01*
X154940000Y-92075000D02*
X154000000Y-93015000D01*
D39*
X154000000Y-93015000D02*
X154000000Y-93345000D01*
X165347000Y-91567000D02*
X165735000Y-91567000D01*
X165227000Y-92291000D02*
X165227000Y-91687000D01*
X165227000Y-91687000D02*
X165347000Y-91567000D01*
D40*
X169164000Y-92710000D02*
X171450000Y-92710000D01*
D39*
X167112000Y-92710000D02*
X167132000Y-92710000D01*
X165227000Y-93891000D02*
X165931000Y-93891000D01*
X165931000Y-93891000D02*
X167112000Y-92710000D01*
X128905000Y-100584000D02*
X132842000Y-96647000D01*
X128905000Y-106172000D02*
X128905000Y-100584000D01*
X132842000Y-96647000D02*
X138557000Y-96647000D01*
X138557000Y-96647000D02*
X140716000Y-98806000D01*
X124805440Y-108229400D02*
X126847600Y-108229400D01*
X126847600Y-108229400D02*
X128905000Y-106172000D01*
X140716000Y-98806000D02*
X143637000Y-98806000D01*
X128270000Y-99822000D02*
X133604000Y-94488000D01*
X128270000Y-105918000D02*
X128270000Y-99822000D01*
X124805440Y-106959400D02*
X127228600Y-106959400D01*
X127228600Y-106959400D02*
X128270000Y-105918000D01*
X133604000Y-94488000D02*
X138055383Y-94488000D01*
X138055383Y-94488000D02*
X138684000Y-94488000D01*
D41*
X132334000Y-105403617D02*
X132080000Y-105657617D01*
X132080000Y-105657617D02*
X132080000Y-109093000D01*
X132080000Y-109093000D02*
X131826000Y-109347000D01*
X132334000Y-104775000D02*
X132334000Y-105403617D01*
D39*
X145415000Y-109347000D02*
X137287000Y-109347000D01*
X154432000Y-104140000D02*
X147828000Y-104140000D01*
X147828000Y-104140000D02*
X147320000Y-104648000D01*
X147320000Y-107442000D02*
X145415000Y-109347000D01*
X147320000Y-104648000D02*
X147320000Y-107442000D01*
X137287000Y-109347000D02*
X136271000Y-110363000D01*
X132842000Y-109982000D02*
X132842000Y-106305350D01*
X132842000Y-106305350D02*
X133457950Y-105689400D01*
X136271000Y-110363000D02*
X133223000Y-110363000D01*
X133223000Y-110363000D02*
X132842000Y-109982000D01*
X133457950Y-105689400D02*
X134426960Y-105689400D01*
X130429000Y-109173278D02*
X132126722Y-110871000D01*
X134426960Y-101879400D02*
X131800600Y-101879400D01*
X131800600Y-101879400D02*
X130429000Y-103251000D01*
X132126722Y-110871000D02*
X137829034Y-110871000D01*
X130429000Y-103251000D02*
X130429000Y-109173278D01*
X140512811Y-109778811D02*
X141351000Y-110617000D01*
X137829034Y-110871000D02*
X138921223Y-109778811D01*
X138921223Y-109778811D02*
X140512811Y-109778811D01*
X129921000Y-109347000D02*
X131953000Y-111379000D01*
X131953000Y-111379000D02*
X138083032Y-111379000D01*
X129921000Y-102743000D02*
X129921000Y-109347000D01*
X138972032Y-110490000D02*
X139319000Y-110490000D01*
X134426960Y-100609400D02*
X132054600Y-100609400D01*
X132054600Y-100609400D02*
X129921000Y-102743000D01*
X138083032Y-111379000D02*
X138972032Y-110490000D01*
X131699000Y-111887000D02*
X138684000Y-111887000D01*
X129413000Y-109601000D02*
X131699000Y-111887000D01*
X129413000Y-102108000D02*
X129413000Y-109601000D01*
X132181600Y-99339400D02*
X129413000Y-102108000D01*
X134426960Y-99339400D02*
X132181600Y-99339400D01*
X138684000Y-111887000D02*
X138811000Y-111760000D01*
D38*
X131953000Y-113060480D02*
X131953000Y-112903000D01*
X132524500Y-114513360D02*
X132524500Y-113631980D01*
X132524500Y-113631980D02*
X131953000Y-113060480D01*
X134429500Y-114513360D02*
X134429500Y-113982500D01*
X134429500Y-113982500D02*
X134493000Y-113919000D01*
D41*
X134493000Y-113919000D02*
X135255000Y-113919000D01*
X135883617Y-113919000D02*
X135255000Y-113919000D01*
X136271000Y-113919000D02*
X135883617Y-113919000D01*
D38*
X129705000Y-114211000D02*
X129794000Y-114300000D01*
X129705000Y-113157000D02*
X129705000Y-114211000D01*
D39*
X129292383Y-116205000D02*
X129921000Y-116205000D01*
X130568699Y-115455699D02*
X130619501Y-115506501D01*
X122555000Y-101854000D02*
X121412000Y-102997000D01*
X121412000Y-102997000D02*
X121412000Y-109220000D01*
X128397000Y-116205000D02*
X129292383Y-116205000D01*
X128697733Y-115455699D02*
X130568699Y-115455699D01*
X130619501Y-115506501D02*
X131064000Y-115951000D01*
X122555000Y-109312966D02*
X128697733Y-115455699D01*
X122555000Y-104648000D02*
X122555000Y-109312966D01*
X121412000Y-109220000D02*
X128397000Y-116205000D01*
D40*
X129655000Y-111506000D02*
X129974142Y-111506000D01*
X129974142Y-111506000D02*
X131064000Y-112595858D01*
X131064000Y-112595858D02*
X131064000Y-112903000D01*
D39*
X138430000Y-120269000D02*
X158496000Y-120269000D01*
X137795000Y-119634000D02*
X138430000Y-120269000D01*
D38*
X160401000Y-118364000D02*
X160528000Y-118364000D01*
D39*
X158496000Y-120269000D02*
X160401000Y-118364000D01*
X168148000Y-120904000D02*
X170561000Y-118491000D01*
X137795000Y-120904000D02*
X168148000Y-120904000D01*
X128143000Y-110236000D02*
X128143000Y-111506000D01*
X127406400Y-109499400D02*
X128143000Y-110236000D01*
X124805440Y-109499400D02*
X127406400Y-109499400D01*
D42*
X147574000Y-99614000D02*
X147574000Y-99187000D01*
X147586000Y-100711000D02*
X147586000Y-99626000D01*
X147586000Y-99626000D02*
X147574000Y-99614000D01*
X146431000Y-101854000D02*
X147574000Y-100711000D01*
X146431000Y-105537000D02*
X146431000Y-101854000D01*
D40*
X145034000Y-99314000D02*
X144399000Y-99949000D01*
X144399000Y-99949000D02*
X138176000Y-99949000D01*
X145034000Y-98806000D02*
X145034000Y-99314000D01*
D39*
X152273000Y-100330000D02*
X151391000Y-100330000D01*
X151391000Y-100330000D02*
X151130000Y-100591000D01*
D42*
X151130000Y-100591000D02*
X151130000Y-100838000D01*
X151130000Y-99606000D02*
X151130000Y-100591000D01*
X147536000Y-99060000D02*
X145288000Y-99060000D01*
X145288000Y-99060000D02*
X145034000Y-98806000D01*
D38*
X147536000Y-100673000D02*
X147574000Y-100711000D01*
X147536000Y-99060000D02*
X147536000Y-100673000D01*
X147574000Y-98839020D02*
X147574000Y-99060000D01*
X148463000Y-97068640D02*
X148463000Y-97950020D01*
X148463000Y-97950020D02*
X147574000Y-98839020D01*
X151130000Y-97352500D02*
X151130000Y-98044000D01*
X151066500Y-96558000D02*
X151066500Y-97289000D01*
X151066500Y-97289000D02*
X151130000Y-97352500D01*
X149098000Y-98267520D02*
X149098000Y-99060000D01*
X149415500Y-97068640D02*
X149415500Y-97950020D01*
X149415500Y-97950020D02*
X149098000Y-98267520D01*
D39*
X151892000Y-98806000D02*
X152400000Y-98298000D01*
X152400000Y-98298000D02*
X152400000Y-96012000D01*
X149994000Y-98806000D02*
X151892000Y-98806000D01*
X149136000Y-99060000D02*
X149740000Y-99060000D01*
X149740000Y-99060000D02*
X149994000Y-98806000D01*
D38*
X128143000Y-112349000D02*
X128143000Y-113157000D01*
X128155000Y-111506000D02*
X128155000Y-112337000D01*
X128155000Y-112337000D02*
X128143000Y-112349000D01*
D40*
X154305000Y-98425000D02*
X153162000Y-98425000D01*
X154329000Y-101600000D02*
X153035000Y-101600000D01*
X145034000Y-96036000D02*
X145034000Y-98175000D01*
X145010000Y-96012000D02*
X145034000Y-96036000D01*
X145034000Y-98175000D02*
X145034000Y-98806000D01*
D42*
X146431000Y-105537000D02*
X145288000Y-106680000D01*
X145288000Y-106680000D02*
X144780000Y-106680000D01*
D38*
X152400000Y-105791000D02*
X148717000Y-105791000D01*
X153162000Y-106553000D02*
X152400000Y-105791000D01*
X153162000Y-109347000D02*
X153162000Y-106553000D01*
X154813000Y-110998000D02*
X153162000Y-109347000D01*
X158750000Y-110998000D02*
X154813000Y-110998000D01*
X159639000Y-111887000D02*
X158750000Y-110998000D01*
X159639000Y-112522000D02*
X159639000Y-111887000D01*
X160782000Y-113665000D02*
X159639000Y-112522000D01*
X161270000Y-113665000D02*
X160782000Y-113665000D01*
X162090000Y-115443000D02*
X162090000Y-114485000D01*
X162090000Y-114485000D02*
X161270000Y-113665000D01*
D42*
X158181000Y-109347000D02*
X156845000Y-109347000D01*
D41*
X162306000Y-115570000D02*
X162179000Y-115443000D01*
X169126000Y-115570000D02*
X162306000Y-115570000D01*
X148717000Y-106934000D02*
X148717000Y-109601000D01*
X148803360Y-105791000D02*
X148803360Y-106847640D01*
X148803360Y-106847640D02*
X148717000Y-106934000D01*
D42*
X144780000Y-106680000D02*
X144780000Y-106807000D01*
D39*
X138557000Y-102997000D02*
X139700000Y-104140000D01*
X138557000Y-101092000D02*
X138557000Y-102997000D01*
X136614000Y-99479000D02*
X136525000Y-99568000D01*
X136614000Y-98298000D02*
X136614000Y-99479000D01*
D41*
X133477000Y-112903000D02*
X134493000Y-112903000D01*
D40*
X135864600Y-104419400D02*
X136398000Y-103886000D01*
X136398000Y-103886000D02*
X136398000Y-101346000D01*
D38*
X134426960Y-104419400D02*
X135864600Y-104419400D01*
D40*
X136398000Y-101346000D02*
X137795000Y-99949000D01*
D38*
X137795000Y-99949000D02*
X138176000Y-99949000D01*
D40*
X138176000Y-99949000D02*
X138176000Y-98298000D01*
X159512000Y-96520000D02*
X159512000Y-98679000D01*
X140702000Y-94883000D02*
X139954000Y-95631000D01*
X140702000Y-92329000D02*
X140702000Y-94883000D01*
D38*
X147510500Y-97068640D02*
X147510500Y-97091500D01*
D40*
X145415000Y-95631000D02*
X145034000Y-96012000D01*
X145415000Y-92456000D02*
X145415000Y-95631000D01*
X145415000Y-90424000D02*
X145415000Y-92456000D01*
X146939000Y-88900000D02*
X145415000Y-90424000D01*
X148941000Y-88900000D02*
X146939000Y-88900000D01*
X151130000Y-88900000D02*
X148941000Y-88900000D01*
D38*
X135756000Y-98171000D02*
X134366000Y-98171000D01*
X136614000Y-98298000D02*
X135883000Y-98298000D01*
X135883000Y-98298000D02*
X135756000Y-98171000D01*
D43*
X154305000Y-100945000D02*
X154305000Y-101600000D01*
X154305000Y-98425000D02*
X154305000Y-100945000D01*
D39*
X152400000Y-97289000D02*
X152400000Y-96012000D01*
D38*
X149392640Y-94955360D02*
X151170640Y-94955360D01*
X149352000Y-94996000D02*
X149392640Y-94955360D01*
X151170640Y-94955360D02*
X152209500Y-93916500D01*
X152209500Y-93916500D02*
X152209500Y-93497500D01*
X152209500Y-93497500D02*
X152362000Y-93345000D01*
D42*
X154000000Y-93345000D02*
X153962000Y-93307000D01*
X153962000Y-93307000D02*
X153962000Y-93345000D01*
D41*
X151384000Y-88900000D02*
X151130000Y-88900000D01*
X147510500Y-93789500D02*
X147574000Y-93726000D01*
X147510500Y-94955360D02*
X147510500Y-93789500D01*
D38*
X147510500Y-96377760D02*
X147876260Y-96012000D01*
X147510500Y-97068640D02*
X147510500Y-96377760D01*
X150749000Y-96012000D02*
X151003000Y-96266000D01*
X147876260Y-96012000D02*
X150749000Y-96012000D01*
X151003000Y-96266000D02*
X151003000Y-96520000D01*
D40*
X171450000Y-88900000D02*
X171450000Y-92710000D01*
D42*
X163006000Y-108144000D02*
X160214000Y-108144000D01*
X160214000Y-108144000D02*
X160147000Y-108077000D01*
X162560000Y-100965000D02*
X160147000Y-100965000D01*
X162814000Y-100711000D02*
X162560000Y-100965000D01*
X160147000Y-100965000D02*
X159512000Y-101600000D01*
D38*
X162941000Y-100584000D02*
X162306000Y-101219000D01*
D43*
X178435000Y-104013000D02*
X178435000Y-105664000D01*
X180025000Y-102423000D02*
X178435000Y-104013000D01*
X181229000Y-102423000D02*
X180025000Y-102423000D01*
X178496000Y-100523000D02*
X178435000Y-100584000D01*
X181229000Y-100523000D02*
X178496000Y-100523000D01*
X178375000Y-100644000D02*
X178435000Y-100584000D01*
X174306000Y-100644000D02*
X178375000Y-100644000D01*
X178435000Y-107315000D02*
X179324000Y-108204000D01*
X178435000Y-105664000D02*
X178435000Y-107315000D01*
X179324000Y-108204000D02*
X179324000Y-108331000D01*
X181290000Y-110175000D02*
X180848000Y-110617000D01*
X181290000Y-108331000D02*
X181290000Y-110175000D01*
X181229000Y-106360000D02*
X181229000Y-108458000D01*
X176530000Y-110744000D02*
X177800000Y-110744000D01*
X175895000Y-110109000D02*
X176530000Y-110744000D01*
X175895000Y-108712000D02*
X175895000Y-110109000D01*
X175327000Y-108144000D02*
X175895000Y-108712000D01*
X174306000Y-108144000D02*
X175327000Y-108144000D01*
D40*
X153739000Y-113919000D02*
X154305000Y-113919000D01*
X152400000Y-113919000D02*
X153739000Y-113919000D01*
X152388000Y-113907000D02*
X152400000Y-113919000D01*
X150622000Y-113907000D02*
X152388000Y-113907000D01*
D42*
X152400000Y-113919000D02*
X152400000Y-114935000D01*
X154178000Y-113895000D02*
X154178000Y-114935000D01*
X158369000Y-113995000D02*
X158369000Y-115062000D01*
X188595000Y-109855000D02*
X188468000Y-109728000D01*
X188595000Y-113792000D02*
X188595000Y-109855000D01*
X188595000Y-96029213D02*
X188595000Y-98933000D01*
X188595000Y-94615000D02*
X188595000Y-96029213D01*
X200105000Y-101680000D02*
X195580000Y-97155000D01*
X202141000Y-101680000D02*
X200105000Y-101680000D01*
X195580000Y-91567000D02*
X195580000Y-97155000D01*
X193243600Y-97028000D02*
X195453000Y-97028000D01*
X188569600Y-98817000D02*
X191454600Y-98817000D01*
X191454600Y-98817000D02*
X193243600Y-97028000D01*
X195580000Y-111633000D02*
X195580000Y-113792000D01*
X199941000Y-111680000D02*
X195627000Y-111680000D01*
X195580000Y-106981000D02*
X195580000Y-111633000D01*
X195627000Y-111680000D02*
X195580000Y-111633000D01*
X195580000Y-113792000D02*
X194945000Y-114427000D01*
X194121600Y-106934000D02*
X195580000Y-106934000D01*
X188569600Y-104267000D02*
X191454600Y-104267000D01*
X191454600Y-104267000D02*
X194121600Y-106934000D01*
X140716000Y-92456000D02*
X140716000Y-92329000D01*
X139909804Y-93262196D02*
X140716000Y-92456000D01*
X130257804Y-93262196D02*
X139909804Y-93262196D01*
X127615000Y-93345000D02*
X130302000Y-93345000D01*
X125095000Y-92710000D02*
X126980000Y-92710000D01*
X126980000Y-92710000D02*
X127615000Y-93345000D01*
X170764000Y-118364000D02*
X170815000Y-118364000D01*
X170726000Y-118326000D02*
X170764000Y-118364000D01*
X170726000Y-115570000D02*
X170726000Y-118326000D01*
X160490000Y-118326000D02*
X160528000Y-118364000D01*
X160490000Y-115443000D02*
X160490000Y-118326000D01*
X154391360Y-108371640D02*
X154305000Y-108458000D01*
X154391360Y-107505500D02*
X154391360Y-108371640D01*
X158242000Y-109347000D02*
X158115000Y-109347000D01*
X158242000Y-108629420D02*
X158242000Y-109347000D01*
X158052800Y-107505500D02*
X158052800Y-108440220D01*
X158052800Y-108440220D02*
X158242000Y-108629420D01*
D38*
X166497000Y-89027000D02*
X166497000Y-89154000D01*
D42*
X131965000Y-112903000D02*
X131064000Y-112903000D01*
X133465000Y-114542000D02*
X133477000Y-114554000D01*
X133465000Y-112903000D02*
X133465000Y-114542000D01*
X133108000Y-118491000D02*
X132080000Y-118491000D01*
X133096000Y-118237000D02*
X133096000Y-118491000D01*
X134429500Y-116903500D02*
X133096000Y-118237000D01*
X134429500Y-116626640D02*
X134429500Y-116903500D01*
X134608000Y-118491000D02*
X136398000Y-118491000D01*
X136271000Y-120523000D02*
X136017000Y-120777000D01*
X136271000Y-118529000D02*
X136271000Y-120523000D01*
D39*
X141478000Y-105410000D02*
X143256000Y-105410000D01*
X140970000Y-105918000D02*
X141478000Y-105410000D01*
X140970000Y-107569000D02*
X140970000Y-105918000D01*
X134426960Y-108229400D02*
X140309600Y-108229400D01*
X140309600Y-108229400D02*
X140970000Y-107569000D01*
X143256000Y-105410000D02*
X144399000Y-104267000D01*
X144399000Y-104267000D02*
X144780000Y-104267000D01*
X152654000Y-110871000D02*
X152781000Y-110871000D01*
X152781000Y-110871000D02*
X154178000Y-112268000D01*
X152654000Y-110871000D02*
X152654000Y-110242383D01*
X152654000Y-110242383D02*
X152400000Y-109988383D01*
X152400000Y-109988383D02*
X152400000Y-109093000D01*
X146431000Y-110363000D02*
X146177000Y-110363000D01*
X152400000Y-107472480D02*
X152400000Y-109093000D01*
X150916640Y-106743500D02*
X151671020Y-106743500D01*
X151671020Y-106743500D02*
X152400000Y-107472480D01*
X147246000Y-110363000D02*
X146431000Y-110363000D01*
X148590000Y-112461000D02*
X148590000Y-111707000D01*
X148590000Y-111707000D02*
X147246000Y-110363000D01*
X154559000Y-104013000D02*
X154432000Y-104013000D01*
X154535000Y-104013000D02*
X154559000Y-104013000D01*
X140970000Y-108712000D02*
X142240000Y-107442000D01*
X136652000Y-108712000D02*
X140970000Y-108712000D01*
X135885153Y-109478847D02*
X136652000Y-108712000D01*
X134426960Y-109499400D02*
X134447513Y-109478847D01*
X134447513Y-109478847D02*
X135885153Y-109478847D01*
X142240000Y-107442000D02*
X142240000Y-106807000D01*
D38*
X123952000Y-102235000D02*
X122555000Y-103632000D01*
X122555000Y-103632000D02*
X122555000Y-104648000D01*
X124010420Y-102235000D02*
X123952000Y-102235000D01*
X124805440Y-101879400D02*
X124366020Y-101879400D01*
X124366020Y-101879400D02*
X124010420Y-102235000D01*
D41*
X134426960Y-103149400D02*
X132867400Y-103149400D01*
X132867400Y-103149400D02*
X132461000Y-102743000D01*
X132689600Y-104419400D02*
X132334000Y-104775000D01*
X134426960Y-104419400D02*
X132689600Y-104419400D01*
D38*
X139065000Y-115951000D02*
X142217140Y-115951000D01*
X142217140Y-115951000D02*
X142407640Y-115760500D01*
X144272000Y-116116000D02*
X142763140Y-116116000D01*
X142763140Y-116116000D02*
X142407640Y-115760500D01*
X140294360Y-114808000D02*
X143980000Y-114808000D01*
X143980000Y-114808000D02*
X144272000Y-114516000D01*
D42*
X144869000Y-114516000D02*
X145530000Y-115177000D01*
X145530000Y-115177000D02*
X146177000Y-115177000D01*
X144272000Y-114516000D02*
X144869000Y-114516000D01*
X146177000Y-115177000D02*
X146177000Y-117475000D01*
X146177000Y-117475000D02*
X145288000Y-118364000D01*
X148590000Y-112461000D02*
X150568000Y-112461000D01*
X150568000Y-112461000D02*
X150622000Y-112407000D01*
X150558500Y-112343500D02*
X150622000Y-112407000D01*
X152400000Y-112319000D02*
X150710000Y-112319000D01*
X150710000Y-112319000D02*
X150622000Y-112407000D01*
X154114500Y-112331500D02*
X154178000Y-112395000D01*
X156210000Y-112461000D02*
X154244000Y-112461000D01*
X154244000Y-112461000D02*
X154178000Y-112395000D01*
X158369000Y-112395000D02*
X156276000Y-112395000D01*
X156276000Y-112395000D02*
X156210000Y-112461000D01*
X156210000Y-114361000D02*
X156210000Y-117602000D01*
X156210000Y-117602000D02*
X155448000Y-118364000D01*
X148590000Y-114361000D02*
X148590000Y-116586000D01*
X148590000Y-116586000D02*
X150368000Y-118364000D01*
X159512000Y-98933000D02*
X157813000Y-98933000D01*
X157813000Y-98933000D02*
X157305000Y-98425000D01*
X159437000Y-104319000D02*
X160147000Y-105029000D01*
X159437000Y-104013000D02*
X159437000Y-104319000D01*
X155384500Y-105600500D02*
X156135000Y-104850000D01*
X154391360Y-105600500D02*
X155384500Y-105600500D01*
X156135000Y-104850000D02*
X156135000Y-104013000D01*
X157837000Y-104013000D02*
X156135000Y-104013000D01*
X158052800Y-105600500D02*
X158052800Y-104228800D01*
X158052800Y-104228800D02*
X157837000Y-104013000D01*
D41*
X126390400Y-105689400D02*
X126492000Y-105791000D01*
X124805440Y-105689400D02*
X126390400Y-105689400D01*
X126619000Y-102743000D02*
X126212600Y-103149400D01*
X126212600Y-103149400D02*
X124805440Y-103149400D01*
X126339600Y-104419400D02*
X126619000Y-104140000D01*
X124805440Y-104419400D02*
X126339600Y-104419400D01*
X124805440Y-98069400D02*
X124231400Y-98069400D01*
X124231400Y-98069400D02*
X122555000Y-96393000D01*
X124805440Y-99339400D02*
X122961400Y-99339400D01*
X122961400Y-99339400D02*
X122555000Y-98933000D01*
X124805440Y-100609400D02*
X123799600Y-100609400D01*
X123799600Y-100609400D02*
X122555000Y-101854000D01*
D38*
X156504640Y-106553000D02*
X157386020Y-106553000D01*
X157386020Y-106553000D02*
X160147000Y-106553000D01*
D42*
X160147000Y-106553000D02*
X160147000Y-109220000D01*
X160147000Y-109220000D02*
X160020000Y-109347000D01*
X157329000Y-101600000D02*
X159639000Y-101600000D01*
D38*
X143367760Y-113411000D02*
X142923260Y-113855500D01*
X145080000Y-113411000D02*
X143367760Y-113411000D01*
X146177000Y-113677000D02*
X145346000Y-113677000D01*
X142923260Y-113855500D02*
X142407640Y-113855500D01*
X145346000Y-113677000D02*
X145080000Y-113411000D01*
X142217140Y-113665000D02*
X142407640Y-113855500D01*
X139065000Y-113665000D02*
X142217140Y-113665000D01*
D42*
X146177000Y-112141000D02*
X145542000Y-111506000D01*
X146177000Y-113677000D02*
X146177000Y-112141000D01*
X142166340Y-110553500D02*
X142102840Y-110617000D01*
X143301720Y-110553500D02*
X142166340Y-110553500D01*
X142102840Y-110617000D02*
X141351000Y-110617000D01*
X143301720Y-112458500D02*
X141541500Y-112458500D01*
X141541500Y-112458500D02*
X141351000Y-112268000D01*
X141351000Y-112268000D02*
X141478000Y-112268000D01*
X141478000Y-112268000D02*
X140081000Y-112268000D01*
X150876000Y-112395000D02*
X150622000Y-112395000D01*
X150916640Y-110553500D02*
X150916640Y-112354360D01*
X150916640Y-112354360D02*
X150876000Y-112395000D01*
D38*
X132524500Y-116626640D02*
X132524500Y-116268500D01*
X132524500Y-116268500D02*
X133223000Y-115570000D01*
X133223000Y-115570000D02*
X136271000Y-115570000D01*
X136271000Y-116929000D02*
X136271000Y-115570000D01*
D40*
X133211570Y-120777000D02*
X131064000Y-120777000D01*
X131064000Y-120777000D02*
X130175000Y-119888000D01*
D39*
X141732000Y-104140000D02*
X142240000Y-104140000D01*
X140462000Y-105410000D02*
X141732000Y-104140000D01*
X138430000Y-105410000D02*
X140462000Y-105410000D01*
X134426960Y-106959400D02*
X136880600Y-106959400D01*
X136880600Y-106959400D02*
X138430000Y-105410000D01*
G36*
X175645355Y-115139336D02*
G01*
X180133532Y-119627513D01*
X180294947Y-119445390D01*
X180501964Y-119150288D01*
X180674243Y-118833649D01*
X180809570Y-118499541D01*
X180906206Y-118152262D01*
X180963124Y-117794914D01*
X180974380Y-117298904D01*
X180938521Y-116981711D01*
X182119000Y-118162190D01*
X182119000Y-121794000D01*
X138142178Y-121794000D01*
X138334846Y-121698359D01*
X138512943Y-121538000D01*
X168120331Y-121538000D01*
X168204108Y-121545329D01*
X168285345Y-121523562D01*
X168368185Y-121508955D01*
X168392716Y-121494792D01*
X168420072Y-121487461D01*
X168488959Y-121439226D01*
X168561813Y-121397164D01*
X168615880Y-121332730D01*
X169938911Y-120009699D01*
X170006165Y-120043157D01*
X170268001Y-120126972D01*
X170539502Y-120170216D01*
X170814421Y-120171895D01*
X171086430Y-120131971D01*
X171349270Y-120051362D01*
X171596893Y-119931923D01*
X171777397Y-119808097D01*
X175647922Y-119808097D01*
X175786367Y-119935179D01*
X176077811Y-120147314D01*
X176391396Y-120325093D01*
X176723090Y-120466231D01*
X177068630Y-120568913D01*
X177423572Y-120631818D01*
X177783354Y-120654138D01*
X178143350Y-120635587D01*
X178498931Y-120576401D01*
X178845527Y-120477344D01*
X179178681Y-120339688D01*
X179494110Y-120165202D01*
X179787760Y-119956131D01*
X179952258Y-119808277D01*
X177800000Y-117656019D01*
X175647922Y-119808097D01*
X171777397Y-119808097D01*
X171823600Y-119776402D01*
X172024175Y-119588379D01*
X172194002Y-119372180D01*
X172329171Y-119132781D01*
X172426575Y-118875690D01*
X172484350Y-118605037D01*
X172495483Y-118229921D01*
X172453860Y-117956319D01*
X172371876Y-117693904D01*
X172251142Y-117446909D01*
X172220593Y-117402873D01*
X174621637Y-117402873D01*
X174633902Y-117763137D01*
X174686872Y-118119697D01*
X174779866Y-118467970D01*
X174911688Y-118803475D01*
X175080641Y-119121902D01*
X175284556Y-119419156D01*
X175465875Y-119628106D01*
X177618981Y-117475000D01*
X175455945Y-115311964D01*
X175158149Y-115706435D01*
X174974924Y-116016870D01*
X174828019Y-116346050D01*
X174719322Y-116689745D01*
X174650233Y-117043535D01*
X174621637Y-117402873D01*
X172220593Y-117402873D01*
X172094436Y-117221020D01*
X171905366Y-117021432D01*
X171688281Y-116852741D01*
X171550500Y-116775894D01*
X171550500Y-116222437D01*
X171553584Y-116217821D01*
X171590464Y-116032410D01*
X171590464Y-115107590D01*
X171581197Y-115061000D01*
X175738878Y-115061000D01*
X175645355Y-115139336D01*
G37*
X175645355Y-115139336D02*
X180133532Y-119627513D01*
X180294947Y-119445390D01*
X180501964Y-119150288D01*
X180674243Y-118833649D01*
X180809570Y-118499541D01*
X180906206Y-118152262D01*
X180963124Y-117794914D01*
X180974380Y-117298904D01*
X180938521Y-116981711D01*
X182119000Y-118162190D01*
X182119000Y-121794000D01*
X138142178Y-121794000D01*
X138334846Y-121698359D01*
X138512943Y-121538000D01*
X168120331Y-121538000D01*
X168204108Y-121545329D01*
X168285345Y-121523562D01*
X168368185Y-121508955D01*
X168392716Y-121494792D01*
X168420072Y-121487461D01*
X168488959Y-121439226D01*
X168561813Y-121397164D01*
X168615880Y-121332730D01*
X169938911Y-120009699D01*
X170006165Y-120043157D01*
X170268001Y-120126972D01*
X170539502Y-120170216D01*
X170814421Y-120171895D01*
X171086430Y-120131971D01*
X171349270Y-120051362D01*
X171596893Y-119931923D01*
X171777397Y-119808097D01*
X175647922Y-119808097D01*
X175786367Y-119935179D01*
X176077811Y-120147314D01*
X176391396Y-120325093D01*
X176723090Y-120466231D01*
X177068630Y-120568913D01*
X177423572Y-120631818D01*
X177783354Y-120654138D01*
X178143350Y-120635587D01*
X178498931Y-120576401D01*
X178845527Y-120477344D01*
X179178681Y-120339688D01*
X179494110Y-120165202D01*
X179787760Y-119956131D01*
X179952258Y-119808277D01*
X177800000Y-117656019D01*
X175647922Y-119808097D01*
X171777397Y-119808097D01*
X171823600Y-119776402D01*
X172024175Y-119588379D01*
X172194002Y-119372180D01*
X172329171Y-119132781D01*
X172426575Y-118875690D01*
X172484350Y-118605037D01*
X172495483Y-118229921D01*
X172453860Y-117956319D01*
X172371876Y-117693904D01*
X172251142Y-117446909D01*
X172220593Y-117402873D01*
X174621637Y-117402873D01*
X174633902Y-117763137D01*
X174686872Y-118119697D01*
X174779866Y-118467970D01*
X174911688Y-118803475D01*
X175080641Y-119121902D01*
X175284556Y-119419156D01*
X175465875Y-119628106D01*
X177618981Y-117475000D01*
X175455945Y-115311964D01*
X175158149Y-115706435D01*
X174974924Y-116016870D01*
X174828019Y-116346050D01*
X174719322Y-116689745D01*
X174650233Y-117043535D01*
X174621637Y-117402873D01*
X172220593Y-117402873D01*
X172094436Y-117221020D01*
X171905366Y-117021432D01*
X171688281Y-116852741D01*
X171550500Y-116775894D01*
X171550500Y-116222437D01*
X171553584Y-116217821D01*
X171590464Y-116032410D01*
X171590464Y-115107590D01*
X171581197Y-115061000D01*
X175738878Y-115061000D01*
X175645355Y-115139336D01*
G36*
X182119000Y-88212810D02*
G01*
X180974230Y-89357580D01*
X180933731Y-88999341D01*
X180852948Y-88648036D01*
X180732916Y-88308135D01*
X180575178Y-87984006D01*
X180381761Y-87679816D01*
X180137893Y-87378126D01*
X175647922Y-91868097D01*
X175736059Y-91949000D01*
X173056625Y-91949000D01*
X172969827Y-91778650D01*
X172805419Y-91552362D01*
X172607638Y-91354581D01*
X172401500Y-91204813D01*
X172401500Y-90664464D01*
X172712410Y-90664464D01*
X172897822Y-90627583D01*
X173065527Y-90515527D01*
X173177583Y-90347822D01*
X173214464Y-90162410D01*
X173214464Y-89462873D01*
X174621637Y-89462873D01*
X174633902Y-89823137D01*
X174686872Y-90179697D01*
X174779866Y-90527970D01*
X174911688Y-90863475D01*
X175080641Y-91181902D01*
X175284556Y-91479156D01*
X175465875Y-91688106D01*
X177618981Y-89535000D01*
X175455945Y-87371964D01*
X175158149Y-87766435D01*
X174974924Y-88076870D01*
X174828019Y-88406050D01*
X174719322Y-88749745D01*
X174650233Y-89103535D01*
X174621637Y-89462873D01*
X173214464Y-89462873D01*
X173214464Y-87637590D01*
X173177583Y-87452178D01*
X173065527Y-87284473D01*
X172938110Y-87199336D01*
X175645355Y-87199336D01*
X177800000Y-89353981D01*
X179959477Y-87194504D01*
X179614403Y-86924417D01*
X179307212Y-86735802D01*
X178980646Y-86583174D01*
X178638900Y-86468496D01*
X178286370Y-86393243D01*
X177927587Y-86358379D01*
X177567162Y-86364356D01*
X177209732Y-86411095D01*
X176859891Y-86497996D01*
X176522135Y-86623942D01*
X176200808Y-86787313D01*
X175900041Y-86986009D01*
X175645355Y-87199336D01*
X172938110Y-87199336D01*
X172897822Y-87172417D01*
X172712410Y-87135536D01*
X170187590Y-87135536D01*
X170002178Y-87172417D01*
X169834473Y-87284473D01*
X169722417Y-87452178D01*
X169685536Y-87637590D01*
X169685536Y-90162410D01*
X169722417Y-90347822D01*
X169834473Y-90515527D01*
X170002178Y-90627583D01*
X170187590Y-90664464D01*
X170498500Y-90664464D01*
X170498501Y-91204812D01*
X170292362Y-91354581D01*
X170094581Y-91552362D01*
X170011654Y-91666501D01*
X169963527Y-91594473D01*
X169795822Y-91482417D01*
X169610410Y-91445536D01*
X168585590Y-91445536D01*
X168400178Y-91482417D01*
X168232473Y-91594473D01*
X168148000Y-91720897D01*
X168063527Y-91594473D01*
X167895822Y-91482417D01*
X167710410Y-91445536D01*
X166685590Y-91445536D01*
X166500178Y-91482417D01*
X166332473Y-91594473D01*
X166220417Y-91762178D01*
X166183536Y-91947590D01*
X166183536Y-91949000D01*
X164561412Y-91949000D01*
X165911854Y-90598558D01*
X165958568Y-90613736D01*
X166231722Y-90657000D01*
X166508278Y-90657000D01*
X166781432Y-90613736D01*
X167044454Y-90528276D01*
X167290868Y-90402721D01*
X167514608Y-90240164D01*
X167710164Y-90044608D01*
X167872721Y-89820868D01*
X167998276Y-89574454D01*
X168083736Y-89311432D01*
X168127000Y-89038278D01*
X168127000Y-88761722D01*
X168083736Y-88488568D01*
X167998276Y-88225546D01*
X167872721Y-87979132D01*
X167710164Y-87755392D01*
X167514608Y-87559836D01*
X167290868Y-87397279D01*
X167044454Y-87271724D01*
X166781432Y-87186264D01*
X166508278Y-87143000D01*
X166231722Y-87143000D01*
X165958568Y-87186264D01*
X165695546Y-87271724D01*
X165449132Y-87397279D01*
X165225392Y-87559836D01*
X165029836Y-87755392D01*
X164867279Y-87979132D01*
X164741724Y-88225546D01*
X164656264Y-88488568D01*
X164613000Y-88761722D01*
X164613000Y-89038278D01*
X164656264Y-89311432D01*
X164741724Y-89574454D01*
X164816459Y-89721129D01*
X163160088Y-91377500D01*
X155014418Y-91377500D01*
X154973310Y-91368649D01*
X154898529Y-91377500D01*
X154882110Y-91377500D01*
X154841692Y-91384228D01*
X154737115Y-91396605D01*
X154725282Y-91403603D01*
X154710948Y-91405989D01*
X154506591Y-91516254D01*
X154436400Y-91592186D01*
X153648051Y-92380536D01*
X153599590Y-92380536D01*
X153414178Y-92417417D01*
X153246473Y-92529473D01*
X153162000Y-92655897D01*
X153077527Y-92529473D01*
X152909822Y-92417417D01*
X152724410Y-92380536D01*
X151999590Y-92380536D01*
X151814178Y-92417417D01*
X151646473Y-92529473D01*
X151534417Y-92697178D01*
X151497536Y-92882590D01*
X151497536Y-93642050D01*
X151046051Y-94093536D01*
X150604090Y-94093536D01*
X150418678Y-94130417D01*
X150250973Y-94242473D01*
X150240692Y-94257860D01*
X150192943Y-94257860D01*
X150192804Y-94257159D01*
X150080747Y-94089453D01*
X149913042Y-93977397D01*
X149727630Y-93940516D01*
X149103370Y-93940516D01*
X148917958Y-93977397D01*
X148750253Y-94089453D01*
X148638197Y-94257158D01*
X148601316Y-94442570D01*
X148601316Y-95314500D01*
X147950678Y-95314500D01*
X147909570Y-95305649D01*
X147834789Y-95314500D01*
X147818370Y-95314500D01*
X147777952Y-95321228D01*
X147673375Y-95333605D01*
X147661542Y-95340603D01*
X147647208Y-95342989D01*
X147442851Y-95453254D01*
X147372636Y-95529212D01*
X147069921Y-95831927D01*
X147034590Y-95854741D01*
X146987968Y-95913879D01*
X146976359Y-95925488D01*
X146952542Y-95958818D01*
X146887342Y-96041523D01*
X146883924Y-96054838D01*
X146875474Y-96066662D01*
X146826294Y-96231108D01*
X146733197Y-96370438D01*
X146696316Y-96555850D01*
X146696316Y-97581430D01*
X146733197Y-97766842D01*
X146845253Y-97934547D01*
X147012958Y-98046603D01*
X147198370Y-98083484D01*
X147343123Y-98083484D01*
X147331071Y-98095536D01*
X147173590Y-98095536D01*
X146988178Y-98132417D01*
X146833902Y-98235500D01*
X145985500Y-98235500D01*
X145985500Y-97612600D01*
X146087583Y-97459822D01*
X146124464Y-97274410D01*
X146124464Y-96271314D01*
X146155030Y-96243207D01*
X146200075Y-96170557D01*
X146251746Y-96102483D01*
X146268465Y-96060255D01*
X146294896Y-96017625D01*
X146305968Y-95965535D01*
X146347714Y-95860097D01*
X146374963Y-95600832D01*
X146366500Y-95550794D01*
X146366500Y-90818123D01*
X147333123Y-89851500D01*
X149315536Y-89851500D01*
X149315536Y-90212410D01*
X149352417Y-90397822D01*
X149464473Y-90565527D01*
X149632178Y-90677583D01*
X149817590Y-90714464D01*
X152442410Y-90714464D01*
X152627822Y-90677583D01*
X152795527Y-90565527D01*
X152907583Y-90397822D01*
X152944464Y-90212410D01*
X152944464Y-88846235D01*
X154398488Y-88846235D01*
X154411199Y-89120865D01*
X154465304Y-89390412D01*
X154559559Y-89648673D01*
X154691793Y-89889706D01*
X154858967Y-90107964D01*
X155057229Y-90298423D01*
X155282019Y-90456702D01*
X155528165Y-90579157D01*
X155790001Y-90662972D01*
X156061502Y-90706216D01*
X156336421Y-90707895D01*
X156608430Y-90667971D01*
X156871270Y-90587362D01*
X157118893Y-90467923D01*
X157283202Y-90355207D01*
X160015812Y-90355207D01*
X160141841Y-90463032D01*
X160385482Y-90615571D01*
X160648995Y-90730423D01*
X160926590Y-90805064D01*
X161212168Y-90837854D01*
X161499455Y-90828072D01*
X161782143Y-90775935D01*
X162054018Y-90682586D01*
X162309108Y-90550077D01*
X162569917Y-90360936D01*
X161290000Y-89081019D01*
X160015812Y-90355207D01*
X157283202Y-90355207D01*
X157345600Y-90312402D01*
X157546175Y-90124379D01*
X157716002Y-89908180D01*
X157851171Y-89668781D01*
X157948575Y-89411690D01*
X158006350Y-89141037D01*
X158010792Y-88991359D01*
X159352737Y-88991359D01*
X159387520Y-89276701D01*
X159464097Y-89553768D01*
X159580786Y-89816472D01*
X159735025Y-90059048D01*
X159834879Y-90174102D01*
X161108981Y-88900000D01*
X161471019Y-88900000D01*
X162748745Y-90177726D01*
X162920209Y-89950597D01*
X163057590Y-89698098D01*
X163156142Y-89428065D01*
X163214029Y-89144805D01*
X163224452Y-88759603D01*
X163181967Y-88473627D01*
X163098164Y-88198660D01*
X162974638Y-87939099D01*
X162756272Y-87614747D01*
X161471019Y-88900000D01*
X161108981Y-88900000D01*
X159828136Y-87619156D01*
X159632848Y-87892436D01*
X159502123Y-88148447D01*
X159410675Y-88420966D01*
X159360512Y-88704010D01*
X159352737Y-88991359D01*
X158010792Y-88991359D01*
X158017483Y-88765921D01*
X157975860Y-88492319D01*
X157893876Y-88229904D01*
X157773142Y-87982909D01*
X157616436Y-87757020D01*
X157427366Y-87557432D01*
X157278720Y-87441923D01*
X160012942Y-87441923D01*
X161290000Y-88718981D01*
X162565068Y-87443913D01*
X162396851Y-87307450D01*
X162149300Y-87161339D01*
X161882871Y-87053425D01*
X161603417Y-86986075D01*
X161317078Y-86960773D01*
X161030145Y-86978071D01*
X160748920Y-87037590D01*
X160479581Y-87138024D01*
X160228047Y-87277166D01*
X160012942Y-87441923D01*
X157278720Y-87441923D01*
X157210281Y-87388741D01*
X156970178Y-87254826D01*
X156712581Y-87158770D01*
X156443417Y-87102784D01*
X156168883Y-87088157D01*
X155895296Y-87115223D01*
X155628950Y-87183362D01*
X155375975Y-87291003D01*
X155142194Y-87435672D01*
X154932985Y-87614038D01*
X154753163Y-87821997D01*
X154606865Y-88054762D01*
X154497459Y-88306980D01*
X154427464Y-88572843D01*
X154398488Y-88846235D01*
X152944464Y-88846235D01*
X152944464Y-87587590D01*
X152907583Y-87402178D01*
X152795527Y-87234473D01*
X152627822Y-87122417D01*
X152442410Y-87085536D01*
X149817590Y-87085536D01*
X149632178Y-87122417D01*
X149464473Y-87234473D01*
X149352417Y-87402178D01*
X149315536Y-87587590D01*
X149315536Y-87948500D01*
X146960143Y-87948500D01*
X146848614Y-87943825D01*
X146765399Y-87963342D01*
X146680719Y-87974942D01*
X146639032Y-87992982D01*
X146590203Y-88004435D01*
X146545537Y-88033442D01*
X146441467Y-88078475D01*
X146238871Y-88242536D01*
X146209469Y-88283908D01*
X144757165Y-89736212D01*
X144674969Y-89811794D01*
X144629928Y-89884440D01*
X144578254Y-89952518D01*
X144561534Y-89994749D01*
X144535104Y-90037375D01*
X144524031Y-90089468D01*
X144482286Y-90194905D01*
X144455037Y-90454168D01*
X144463500Y-90504206D01*
X144463500Y-90887119D01*
X144461473Y-90888473D01*
X144349417Y-91056178D01*
X144312536Y-91241590D01*
X144312536Y-93416410D01*
X144349417Y-93601822D01*
X144461473Y-93769527D01*
X144463500Y-93770881D01*
X144463501Y-94247536D01*
X144397590Y-94247536D01*
X144212178Y-94284417D01*
X144044473Y-94396473D01*
X143932417Y-94564178D01*
X143895536Y-94749590D01*
X143895536Y-97274410D01*
X143932417Y-97459822D01*
X144044473Y-97627527D01*
X144082501Y-97652936D01*
X144082501Y-97965163D01*
X143962337Y-97902343D01*
X143707341Y-97848142D01*
X143447163Y-97864510D01*
X143200970Y-97950244D01*
X142986903Y-98099025D01*
X142926533Y-98172000D01*
X140978611Y-98172000D01*
X139024880Y-96218270D01*
X138970813Y-96153836D01*
X138897959Y-96111774D01*
X138829072Y-96063539D01*
X138801716Y-96056208D01*
X138777185Y-96042045D01*
X138694345Y-96027438D01*
X138613108Y-96005671D01*
X138529331Y-96013000D01*
X132975610Y-96013000D01*
X133612610Y-95376000D01*
X138341903Y-95376000D01*
X138474487Y-95425307D01*
X138734266Y-95447121D01*
X138990340Y-95398272D01*
X139029356Y-95378904D01*
X139028740Y-95383077D01*
X139021286Y-95401903D01*
X139009745Y-95511716D01*
X138993615Y-95620942D01*
X138996153Y-95641032D01*
X138994037Y-95661168D01*
X139012453Y-95770050D01*
X139026289Y-95879580D01*
X139034135Y-95898244D01*
X139037511Y-95918208D01*
X139084513Y-96018092D01*
X139127311Y-96119902D01*
X139139889Y-96135771D01*
X139148509Y-96154091D01*
X139220639Y-96237654D01*
X139289239Y-96324206D01*
X139305624Y-96336110D01*
X139318852Y-96351435D01*
X139410813Y-96412534D01*
X139500145Y-96477437D01*
X139519128Y-96484497D01*
X139535988Y-96495699D01*
X139640972Y-96529810D01*
X139744488Y-96568307D01*
X139764663Y-96570001D01*
X139783920Y-96576258D01*
X139894227Y-96580881D01*
X140004268Y-96590121D01*
X140024155Y-96586327D01*
X140044383Y-96587176D01*
X140151886Y-96561961D01*
X140260339Y-96541272D01*
X140278477Y-96532269D01*
X140302797Y-96526565D01*
X140344422Y-96499533D01*
X140493846Y-96425359D01*
X140584933Y-96343344D01*
X140591624Y-96339000D01*
X140608494Y-96322129D01*
X140687578Y-96250922D01*
X140701260Y-96229363D01*
X141359835Y-95570788D01*
X141442030Y-95495206D01*
X141487075Y-95422557D01*
X141538746Y-95354484D01*
X141555468Y-95312251D01*
X141581896Y-95269625D01*
X141592969Y-95217533D01*
X141634714Y-95112096D01*
X141661963Y-94852832D01*
X141653500Y-94802794D01*
X141653500Y-94775506D01*
X141973676Y-94455331D01*
X142085512Y-94276170D01*
X142112000Y-94117441D01*
X142112000Y-90416178D01*
X142097104Y-90296668D01*
X142030901Y-90145745D01*
X141917476Y-90022530D01*
X141770188Y-89942823D01*
X141615441Y-89917000D01*
X122801178Y-89917000D01*
X122681668Y-89931896D01*
X122530745Y-89998099D01*
X122407530Y-90111524D01*
X122327823Y-90258812D01*
X122302000Y-90413559D01*
X122302000Y-94876822D01*
X122316896Y-94996332D01*
X122383099Y-95147255D01*
X122478042Y-95250393D01*
X122450998Y-95250204D01*
X122231008Y-95292169D01*
X122023359Y-95376064D01*
X121835960Y-95498695D01*
X121675950Y-95655388D01*
X121549421Y-95840178D01*
X121461195Y-96046025D01*
X121414632Y-96265088D01*
X121411505Y-96489022D01*
X121451934Y-96709299D01*
X121534377Y-96917528D01*
X121655697Y-97105779D01*
X121811270Y-97266880D01*
X121995172Y-97394695D01*
X122200397Y-97484356D01*
X122419130Y-97532447D01*
X122622492Y-97536707D01*
X122943075Y-97857290D01*
X122894331Y-97836800D01*
X122674949Y-97791767D01*
X122450998Y-97790204D01*
X122231008Y-97832169D01*
X122023359Y-97916064D01*
X121835960Y-98038695D01*
X121675950Y-98195388D01*
X121549421Y-98380178D01*
X121461195Y-98586025D01*
X121414632Y-98805088D01*
X121411505Y-99029022D01*
X121451934Y-99249299D01*
X121534377Y-99457528D01*
X121655697Y-99645779D01*
X121811270Y-99806880D01*
X121995172Y-99934695D01*
X122200397Y-100024356D01*
X122419130Y-100072447D01*
X122643037Y-100077137D01*
X122709904Y-100065347D01*
X122723306Y-100072176D01*
X122783206Y-100081663D01*
X122840869Y-100100399D01*
X122900992Y-100100399D01*
X122900998Y-100100400D01*
X123232384Y-100100400D01*
X122620399Y-100712386D01*
X122450998Y-100711204D01*
X122231008Y-100753169D01*
X122023359Y-100837064D01*
X121835960Y-100959695D01*
X121675950Y-101116388D01*
X121549421Y-101301178D01*
X121461195Y-101507025D01*
X121414632Y-101726088D01*
X121411505Y-101950022D01*
X121434900Y-102077490D01*
X120983270Y-102529120D01*
X120918836Y-102583187D01*
X120876785Y-102656023D01*
X120828538Y-102724928D01*
X120821208Y-102752284D01*
X120807045Y-102776815D01*
X120792437Y-102859658D01*
X120770671Y-102940892D01*
X120778000Y-103024669D01*
X120778001Y-109192320D01*
X120770671Y-109276109D01*
X120792441Y-109357356D01*
X120807046Y-109440185D01*
X120821208Y-109464716D01*
X120828539Y-109492072D01*
X120876786Y-109560978D01*
X120918837Y-109633814D01*
X120983266Y-109687876D01*
X125977521Y-114682132D01*
X125967212Y-114675802D01*
X125640646Y-114523174D01*
X125298900Y-114408496D01*
X124946370Y-114333243D01*
X124587587Y-114298379D01*
X124227162Y-114304356D01*
X123869732Y-114351095D01*
X123519891Y-114437996D01*
X123182135Y-114563942D01*
X122860808Y-114727313D01*
X122560041Y-114926009D01*
X122305355Y-115139336D01*
X126793532Y-119627513D01*
X126954947Y-119445390D01*
X127161964Y-119150288D01*
X127334243Y-118833649D01*
X127469570Y-118499541D01*
X127566206Y-118152262D01*
X127623124Y-117794914D01*
X127634380Y-117298904D01*
X127593731Y-116939341D01*
X127512948Y-116588036D01*
X127392916Y-116248135D01*
X127250140Y-115954751D01*
X127929124Y-116633735D01*
X127983186Y-116698164D01*
X128056024Y-116740216D01*
X128124926Y-116788461D01*
X128152284Y-116795792D01*
X128176815Y-116809955D01*
X128259651Y-116824562D01*
X128340891Y-116846330D01*
X128424677Y-116839000D01*
X129209314Y-116839000D01*
X129256240Y-116898206D01*
X129467145Y-117051437D01*
X129711487Y-117142307D01*
X129971266Y-117164121D01*
X130227340Y-117115272D01*
X130460846Y-116999359D01*
X130654578Y-116824922D01*
X130660206Y-116816054D01*
X130854487Y-116888307D01*
X131114266Y-116910121D01*
X131370340Y-116861272D01*
X131603846Y-116745359D01*
X131710316Y-116649493D01*
X131710316Y-117139430D01*
X131747197Y-117324842D01*
X131859253Y-117492547D01*
X132026958Y-117604603D01*
X132212370Y-117641484D01*
X132836630Y-117641484D01*
X133022042Y-117604603D01*
X133189747Y-117492547D01*
X133301803Y-117324842D01*
X133338684Y-117139430D01*
X133338684Y-116440729D01*
X133511914Y-116267500D01*
X135419374Y-116267500D01*
X135343417Y-116381178D01*
X135306536Y-116566590D01*
X135306536Y-117291410D01*
X135343417Y-117476822D01*
X135455473Y-117644527D01*
X135488358Y-117666500D01*
X135310098Y-117666500D01*
X135155822Y-117563417D01*
X134970410Y-117526536D01*
X134245590Y-117526536D01*
X134060178Y-117563417D01*
X133892473Y-117675473D01*
X133780417Y-117843178D01*
X133743536Y-118028590D01*
X133743536Y-118852629D01*
X132403212Y-118852629D01*
X132146501Y-118886425D01*
X131966395Y-118961028D01*
X131942067Y-118908498D01*
X131782161Y-118663671D01*
X131588588Y-118444492D01*
X131365403Y-118255551D01*
X131117280Y-118100808D01*
X130849418Y-117983503D01*
X130567428Y-117906095D01*
X130277217Y-117870205D01*
X129984865Y-117876583D01*
X129696496Y-117925098D01*
X129418151Y-118014734D01*
X129155660Y-118143610D01*
X128914524Y-118309030D01*
X128699793Y-118507525D01*
X128515964Y-118734940D01*
X128366890Y-118986509D01*
X128255693Y-119256963D01*
X128184702Y-119540637D01*
X128155404Y-119831588D01*
X128168415Y-120123719D01*
X128223459Y-120410914D01*
X128319387Y-120687154D01*
X128454185Y-120946653D01*
X128625032Y-121183974D01*
X128828349Y-121394147D01*
X129059876Y-121572769D01*
X129314763Y-121716097D01*
X129517178Y-121794000D01*
X120141000Y-121794000D01*
X120141000Y-119808097D01*
X122307922Y-119808097D01*
X122446367Y-119935179D01*
X122737811Y-120147314D01*
X123051396Y-120325093D01*
X123383090Y-120466231D01*
X123728630Y-120568913D01*
X124083572Y-120631818D01*
X124443354Y-120654138D01*
X124803350Y-120635587D01*
X125158931Y-120576401D01*
X125505527Y-120477344D01*
X125838681Y-120339688D01*
X126154110Y-120165202D01*
X126447760Y-119956131D01*
X126612258Y-119808277D01*
X124460000Y-117656019D01*
X122307922Y-119808097D01*
X120141000Y-119808097D01*
X120141000Y-117402873D01*
X121281637Y-117402873D01*
X121293902Y-117763137D01*
X121346872Y-118119697D01*
X121439866Y-118467970D01*
X121571688Y-118803475D01*
X121740641Y-119121902D01*
X121944556Y-119419156D01*
X122125875Y-119628106D01*
X124278981Y-117475000D01*
X122115945Y-115311964D01*
X121818149Y-115706435D01*
X121634924Y-116016870D01*
X121488019Y-116346050D01*
X121379322Y-116689745D01*
X121310233Y-117043535D01*
X121281637Y-117402873D01*
X120141000Y-117402873D01*
X120141000Y-89049737D01*
X123856282Y-89049737D01*
X123976522Y-89152620D01*
X124213866Y-89301218D01*
X124470567Y-89413101D01*
X124740985Y-89485812D01*
X125019179Y-89517755D01*
X125299041Y-89508226D01*
X125574419Y-89457436D01*
X125839265Y-89366500D01*
X126087761Y-89237418D01*
X126339114Y-89055133D01*
X125095000Y-87811019D01*
X123856282Y-89049737D01*
X120141000Y-89049737D01*
X120141000Y-87718997D01*
X123207821Y-87718997D01*
X123241705Y-87996962D01*
X123316302Y-88266866D01*
X123429975Y-88522778D01*
X123580227Y-88759084D01*
X123675326Y-88868655D01*
X124913981Y-87630000D01*
X125276019Y-87630000D01*
X126518045Y-88872026D01*
X126683063Y-88653436D01*
X126816892Y-88407465D01*
X126912896Y-88144413D01*
X126969295Y-87868434D01*
X126979447Y-87493275D01*
X126938054Y-87214650D01*
X126856418Y-86946792D01*
X126736085Y-86693942D01*
X126525247Y-86380772D01*
X125276019Y-87630000D01*
X124913981Y-87630000D01*
X123668981Y-86385000D01*
X123480691Y-86648485D01*
X123353346Y-86897876D01*
X123264261Y-87163350D01*
X123215395Y-87439077D01*
X123207821Y-87718997D01*
X120141000Y-87718997D01*
X120141000Y-86207589D01*
X123853608Y-86207589D01*
X125095000Y-87448981D01*
X126334521Y-86209460D01*
X126173235Y-86078622D01*
X125932084Y-85936289D01*
X125672543Y-85831164D01*
X125400314Y-85765556D01*
X125121378Y-85740908D01*
X124841863Y-85757759D01*
X124567908Y-85815739D01*
X124305533Y-85913577D01*
X124060502Y-86049121D01*
X123853608Y-86207589D01*
X120141000Y-86207589D01*
X120141000Y-85216000D01*
X182119000Y-85216000D01*
X182119000Y-88212810D01*
G37*
X182119000Y-88212810D02*
X180974230Y-89357580D01*
X180933731Y-88999341D01*
X180852948Y-88648036D01*
X180732916Y-88308135D01*
X180575178Y-87984006D01*
X180381761Y-87679816D01*
X180137893Y-87378126D01*
X175647922Y-91868097D01*
X175736059Y-91949000D01*
X173056625Y-91949000D01*
X172969827Y-91778650D01*
X172805419Y-91552362D01*
X172607638Y-91354581D01*
X172401500Y-91204813D01*
X172401500Y-90664464D01*
X172712410Y-90664464D01*
X172897822Y-90627583D01*
X173065527Y-90515527D01*
X173177583Y-90347822D01*
X173214464Y-90162410D01*
X173214464Y-89462873D01*
X174621637Y-89462873D01*
X174633902Y-89823137D01*
X174686872Y-90179697D01*
X174779866Y-90527970D01*
X174911688Y-90863475D01*
X175080641Y-91181902D01*
X175284556Y-91479156D01*
X175465875Y-91688106D01*
X177618981Y-89535000D01*
X175455945Y-87371964D01*
X175158149Y-87766435D01*
X174974924Y-88076870D01*
X174828019Y-88406050D01*
X174719322Y-88749745D01*
X174650233Y-89103535D01*
X174621637Y-89462873D01*
X173214464Y-89462873D01*
X173214464Y-87637590D01*
X173177583Y-87452178D01*
X173065527Y-87284473D01*
X172938110Y-87199336D01*
X175645355Y-87199336D01*
X177800000Y-89353981D01*
X179959477Y-87194504D01*
X179614403Y-86924417D01*
X179307212Y-86735802D01*
X178980646Y-86583174D01*
X178638900Y-86468496D01*
X178286370Y-86393243D01*
X177927587Y-86358379D01*
X177567162Y-86364356D01*
X177209732Y-86411095D01*
X176859891Y-86497996D01*
X176522135Y-86623942D01*
X176200808Y-86787313D01*
X175900041Y-86986009D01*
X175645355Y-87199336D01*
X172938110Y-87199336D01*
X172897822Y-87172417D01*
X172712410Y-87135536D01*
X170187590Y-87135536D01*
X170002178Y-87172417D01*
X169834473Y-87284473D01*
X169722417Y-87452178D01*
X169685536Y-87637590D01*
X169685536Y-90162410D01*
X169722417Y-90347822D01*
X169834473Y-90515527D01*
X170002178Y-90627583D01*
X170187590Y-90664464D01*
X170498500Y-90664464D01*
X170498501Y-91204812D01*
X170292362Y-91354581D01*
X170094581Y-91552362D01*
X170011654Y-91666501D01*
X169963527Y-91594473D01*
X169795822Y-91482417D01*
X169610410Y-91445536D01*
X168585590Y-91445536D01*
X168400178Y-91482417D01*
X168232473Y-91594473D01*
X168148000Y-91720897D01*
X168063527Y-91594473D01*
X167895822Y-91482417D01*
X167710410Y-91445536D01*
X166685590Y-91445536D01*
X166500178Y-91482417D01*
X166332473Y-91594473D01*
X166220417Y-91762178D01*
X166183536Y-91947590D01*
X166183536Y-91949000D01*
X164561412Y-91949000D01*
X165911854Y-90598558D01*
X165958568Y-90613736D01*
X166231722Y-90657000D01*
X166508278Y-90657000D01*
X166781432Y-90613736D01*
X167044454Y-90528276D01*
X167290868Y-90402721D01*
X167514608Y-90240164D01*
X167710164Y-90044608D01*
X167872721Y-89820868D01*
X167998276Y-89574454D01*
X168083736Y-89311432D01*
X168127000Y-89038278D01*
X168127000Y-88761722D01*
X168083736Y-88488568D01*
X167998276Y-88225546D01*
X167872721Y-87979132D01*
X167710164Y-87755392D01*
X167514608Y-87559836D01*
X167290868Y-87397279D01*
X167044454Y-87271724D01*
X166781432Y-87186264D01*
X166508278Y-87143000D01*
X166231722Y-87143000D01*
X165958568Y-87186264D01*
X165695546Y-87271724D01*
X165449132Y-87397279D01*
X165225392Y-87559836D01*
X165029836Y-87755392D01*
X164867279Y-87979132D01*
X164741724Y-88225546D01*
X164656264Y-88488568D01*
X164613000Y-88761722D01*
X164613000Y-89038278D01*
X164656264Y-89311432D01*
X164741724Y-89574454D01*
X164816459Y-89721129D01*
X163160088Y-91377500D01*
X155014418Y-91377500D01*
X154973310Y-91368649D01*
X154898529Y-91377500D01*
X154882110Y-91377500D01*
X154841692Y-91384228D01*
X154737115Y-91396605D01*
X154725282Y-91403603D01*
X154710948Y-91405989D01*
X154506591Y-91516254D01*
X154436400Y-91592186D01*
X153648051Y-92380536D01*
X153599590Y-92380536D01*
X153414178Y-92417417D01*
X153246473Y-92529473D01*
X153162000Y-92655897D01*
X153077527Y-92529473D01*
X152909822Y-92417417D01*
X152724410Y-92380536D01*
X151999590Y-92380536D01*
X151814178Y-92417417D01*
X151646473Y-92529473D01*
X151534417Y-92697178D01*
X151497536Y-92882590D01*
X151497536Y-93642050D01*
X151046051Y-94093536D01*
X150604090Y-94093536D01*
X150418678Y-94130417D01*
X150250973Y-94242473D01*
X150240692Y-94257860D01*
X150192943Y-94257860D01*
X150192804Y-94257159D01*
X150080747Y-94089453D01*
X149913042Y-93977397D01*
X149727630Y-93940516D01*
X149103370Y-93940516D01*
X148917958Y-93977397D01*
X148750253Y-94089453D01*
X148638197Y-94257158D01*
X148601316Y-94442570D01*
X148601316Y-95314500D01*
X147950678Y-95314500D01*
X147909570Y-95305649D01*
X147834789Y-95314500D01*
X147818370Y-95314500D01*
X147777952Y-95321228D01*
X147673375Y-95333605D01*
X147661542Y-95340603D01*
X147647208Y-95342989D01*
X147442851Y-95453254D01*
X147372636Y-95529212D01*
X147069921Y-95831927D01*
X147034590Y-95854741D01*
X146987968Y-95913879D01*
X146976359Y-95925488D01*
X146952542Y-95958818D01*
X146887342Y-96041523D01*
X146883924Y-96054838D01*
X146875474Y-96066662D01*
X146826294Y-96231108D01*
X146733197Y-96370438D01*
X146696316Y-96555850D01*
X146696316Y-97581430D01*
X146733197Y-97766842D01*
X146845253Y-97934547D01*
X147012958Y-98046603D01*
X147198370Y-98083484D01*
X147343123Y-98083484D01*
X147331071Y-98095536D01*
X147173590Y-98095536D01*
X146988178Y-98132417D01*
X146833902Y-98235500D01*
X145985500Y-98235500D01*
X145985500Y-97612600D01*
X146087583Y-97459822D01*
X146124464Y-97274410D01*
X146124464Y-96271314D01*
X146155030Y-96243207D01*
X146200075Y-96170557D01*
X146251746Y-96102483D01*
X146268465Y-96060255D01*
X146294896Y-96017625D01*
X146305968Y-95965535D01*
X146347714Y-95860097D01*
X146374963Y-95600832D01*
X146366500Y-95550794D01*
X146366500Y-90818123D01*
X147333123Y-89851500D01*
X149315536Y-89851500D01*
X149315536Y-90212410D01*
X149352417Y-90397822D01*
X149464473Y-90565527D01*
X149632178Y-90677583D01*
X149817590Y-90714464D01*
X152442410Y-90714464D01*
X152627822Y-90677583D01*
X152795527Y-90565527D01*
X152907583Y-90397822D01*
X152944464Y-90212410D01*
X152944464Y-88846235D01*
X154398488Y-88846235D01*
X154411199Y-89120865D01*
X154465304Y-89390412D01*
X154559559Y-89648673D01*
X154691793Y-89889706D01*
X154858967Y-90107964D01*
X155057229Y-90298423D01*
X155282019Y-90456702D01*
X155528165Y-90579157D01*
X155790001Y-90662972D01*
X156061502Y-90706216D01*
X156336421Y-90707895D01*
X156608430Y-90667971D01*
X156871270Y-90587362D01*
X157118893Y-90467923D01*
X157283202Y-90355207D01*
X160015812Y-90355207D01*
X160141841Y-90463032D01*
X160385482Y-90615571D01*
X160648995Y-90730423D01*
X160926590Y-90805064D01*
X161212168Y-90837854D01*
X161499455Y-90828072D01*
X161782143Y-90775935D01*
X162054018Y-90682586D01*
X162309108Y-90550077D01*
X162569917Y-90360936D01*
X161290000Y-89081019D01*
X160015812Y-90355207D01*
X157283202Y-90355207D01*
X157345600Y-90312402D01*
X157546175Y-90124379D01*
X157716002Y-89908180D01*
X157851171Y-89668781D01*
X157948575Y-89411690D01*
X158006350Y-89141037D01*
X158010792Y-88991359D01*
X159352737Y-88991359D01*
X159387520Y-89276701D01*
X159464097Y-89553768D01*
X159580786Y-89816472D01*
X159735025Y-90059048D01*
X159834879Y-90174102D01*
X161108981Y-88900000D01*
X161471019Y-88900000D01*
X162748745Y-90177726D01*
X162920209Y-89950597D01*
X163057590Y-89698098D01*
X163156142Y-89428065D01*
X163214029Y-89144805D01*
X163224452Y-88759603D01*
X163181967Y-88473627D01*
X163098164Y-88198660D01*
X162974638Y-87939099D01*
X162756272Y-87614747D01*
X161471019Y-88900000D01*
X161108981Y-88900000D01*
X159828136Y-87619156D01*
X159632848Y-87892436D01*
X159502123Y-88148447D01*
X159410675Y-88420966D01*
X159360512Y-88704010D01*
X159352737Y-88991359D01*
X158010792Y-88991359D01*
X158017483Y-88765921D01*
X157975860Y-88492319D01*
X157893876Y-88229904D01*
X157773142Y-87982909D01*
X157616436Y-87757020D01*
X157427366Y-87557432D01*
X157278720Y-87441923D01*
X160012942Y-87441923D01*
X161290000Y-88718981D01*
X162565068Y-87443913D01*
X162396851Y-87307450D01*
X162149300Y-87161339D01*
X161882871Y-87053425D01*
X161603417Y-86986075D01*
X161317078Y-86960773D01*
X161030145Y-86978071D01*
X160748920Y-87037590D01*
X160479581Y-87138024D01*
X160228047Y-87277166D01*
X160012942Y-87441923D01*
X157278720Y-87441923D01*
X157210281Y-87388741D01*
X156970178Y-87254826D01*
X156712581Y-87158770D01*
X156443417Y-87102784D01*
X156168883Y-87088157D01*
X155895296Y-87115223D01*
X155628950Y-87183362D01*
X155375975Y-87291003D01*
X155142194Y-87435672D01*
X154932985Y-87614038D01*
X154753163Y-87821997D01*
X154606865Y-88054762D01*
X154497459Y-88306980D01*
X154427464Y-88572843D01*
X154398488Y-88846235D01*
X152944464Y-88846235D01*
X152944464Y-87587590D01*
X152907583Y-87402178D01*
X152795527Y-87234473D01*
X152627822Y-87122417D01*
X152442410Y-87085536D01*
X149817590Y-87085536D01*
X149632178Y-87122417D01*
X149464473Y-87234473D01*
X149352417Y-87402178D01*
X149315536Y-87587590D01*
X149315536Y-87948500D01*
X146960143Y-87948500D01*
X146848614Y-87943825D01*
X146765399Y-87963342D01*
X146680719Y-87974942D01*
X146639032Y-87992982D01*
X146590203Y-88004435D01*
X146545537Y-88033442D01*
X146441467Y-88078475D01*
X146238871Y-88242536D01*
X146209469Y-88283908D01*
X144757165Y-89736212D01*
X144674969Y-89811794D01*
X144629928Y-89884440D01*
X144578254Y-89952518D01*
X144561534Y-89994749D01*
X144535104Y-90037375D01*
X144524031Y-90089468D01*
X144482286Y-90194905D01*
X144455037Y-90454168D01*
X144463500Y-90504206D01*
X144463500Y-90887119D01*
X144461473Y-90888473D01*
X144349417Y-91056178D01*
X144312536Y-91241590D01*
X144312536Y-93416410D01*
X144349417Y-93601822D01*
X144461473Y-93769527D01*
X144463500Y-93770881D01*
X144463501Y-94247536D01*
X144397590Y-94247536D01*
X144212178Y-94284417D01*
X144044473Y-94396473D01*
X143932417Y-94564178D01*
X143895536Y-94749590D01*
X143895536Y-97274410D01*
X143932417Y-97459822D01*
X144044473Y-97627527D01*
X144082501Y-97652936D01*
X144082501Y-97965163D01*
X143962337Y-97902343D01*
X143707341Y-97848142D01*
X143447163Y-97864510D01*
X143200970Y-97950244D01*
X142986903Y-98099025D01*
X142926533Y-98172000D01*
X140978611Y-98172000D01*
X139024880Y-96218270D01*
X138970813Y-96153836D01*
X138897959Y-96111774D01*
X138829072Y-96063539D01*
X138801716Y-96056208D01*
X138777185Y-96042045D01*
X138694345Y-96027438D01*
X138613108Y-96005671D01*
X138529331Y-96013000D01*
X132975610Y-96013000D01*
X133612610Y-95376000D01*
X138341903Y-95376000D01*
X138474487Y-95425307D01*
X138734266Y-95447121D01*
X138990340Y-95398272D01*
X139029356Y-95378904D01*
X139028740Y-95383077D01*
X139021286Y-95401903D01*
X139009745Y-95511716D01*
X138993615Y-95620942D01*
X138996153Y-95641032D01*
X138994037Y-95661168D01*
X139012453Y-95770050D01*
X139026289Y-95879580D01*
X139034135Y-95898244D01*
X139037511Y-95918208D01*
X139084513Y-96018092D01*
X139127311Y-96119902D01*
X139139889Y-96135771D01*
X139148509Y-96154091D01*
X139220639Y-96237654D01*
X139289239Y-96324206D01*
X139305624Y-96336110D01*
X139318852Y-96351435D01*
X139410813Y-96412534D01*
X139500145Y-96477437D01*
X139519128Y-96484497D01*
X139535988Y-96495699D01*
X139640972Y-96529810D01*
X139744488Y-96568307D01*
X139764663Y-96570001D01*
X139783920Y-96576258D01*
X139894227Y-96580881D01*
X140004268Y-96590121D01*
X140024155Y-96586327D01*
X140044383Y-96587176D01*
X140151886Y-96561961D01*
X140260339Y-96541272D01*
X140278477Y-96532269D01*
X140302797Y-96526565D01*
X140344422Y-96499533D01*
X140493846Y-96425359D01*
X140584933Y-96343344D01*
X140591624Y-96339000D01*
X140608494Y-96322129D01*
X140687578Y-96250922D01*
X140701260Y-96229363D01*
X141359835Y-95570788D01*
X141442030Y-95495206D01*
X141487075Y-95422557D01*
X141538746Y-95354484D01*
X141555468Y-95312251D01*
X141581896Y-95269625D01*
X141592969Y-95217533D01*
X141634714Y-95112096D01*
X141661963Y-94852832D01*
X141653500Y-94802794D01*
X141653500Y-94775506D01*
X141973676Y-94455331D01*
X142085512Y-94276170D01*
X142112000Y-94117441D01*
X142112000Y-90416178D01*
X142097104Y-90296668D01*
X142030901Y-90145745D01*
X141917476Y-90022530D01*
X141770188Y-89942823D01*
X141615441Y-89917000D01*
X122801178Y-89917000D01*
X122681668Y-89931896D01*
X122530745Y-89998099D01*
X122407530Y-90111524D01*
X122327823Y-90258812D01*
X122302000Y-90413559D01*
X122302000Y-94876822D01*
X122316896Y-94996332D01*
X122383099Y-95147255D01*
X122478042Y-95250393D01*
X122450998Y-95250204D01*
X122231008Y-95292169D01*
X122023359Y-95376064D01*
X121835960Y-95498695D01*
X121675950Y-95655388D01*
X121549421Y-95840178D01*
X121461195Y-96046025D01*
X121414632Y-96265088D01*
X121411505Y-96489022D01*
X121451934Y-96709299D01*
X121534377Y-96917528D01*
X121655697Y-97105779D01*
X121811270Y-97266880D01*
X121995172Y-97394695D01*
X122200397Y-97484356D01*
X122419130Y-97532447D01*
X122622492Y-97536707D01*
X122943075Y-97857290D01*
X122894331Y-97836800D01*
X122674949Y-97791767D01*
X122450998Y-97790204D01*
X122231008Y-97832169D01*
X122023359Y-97916064D01*
X121835960Y-98038695D01*
X121675950Y-98195388D01*
X121549421Y-98380178D01*
X121461195Y-98586025D01*
X121414632Y-98805088D01*
X121411505Y-99029022D01*
X121451934Y-99249299D01*
X121534377Y-99457528D01*
X121655697Y-99645779D01*
X121811270Y-99806880D01*
X121995172Y-99934695D01*
X122200397Y-100024356D01*
X122419130Y-100072447D01*
X122643037Y-100077137D01*
X122709904Y-100065347D01*
X122723306Y-100072176D01*
X122783206Y-100081663D01*
X122840869Y-100100399D01*
X122900992Y-100100399D01*
X122900998Y-100100400D01*
X123232384Y-100100400D01*
X122620399Y-100712386D01*
X122450998Y-100711204D01*
X122231008Y-100753169D01*
X122023359Y-100837064D01*
X121835960Y-100959695D01*
X121675950Y-101116388D01*
X121549421Y-101301178D01*
X121461195Y-101507025D01*
X121414632Y-101726088D01*
X121411505Y-101950022D01*
X121434900Y-102077490D01*
X120983270Y-102529120D01*
X120918836Y-102583187D01*
X120876785Y-102656023D01*
X120828538Y-102724928D01*
X120821208Y-102752284D01*
X120807045Y-102776815D01*
X120792437Y-102859658D01*
X120770671Y-102940892D01*
X120778000Y-103024669D01*
X120778001Y-109192320D01*
X120770671Y-109276109D01*
X120792441Y-109357356D01*
X120807046Y-109440185D01*
X120821208Y-109464716D01*
X120828539Y-109492072D01*
X120876786Y-109560978D01*
X120918837Y-109633814D01*
X120983266Y-109687876D01*
X125977521Y-114682132D01*
X125967212Y-114675802D01*
X125640646Y-114523174D01*
X125298900Y-114408496D01*
X124946370Y-114333243D01*
X124587587Y-114298379D01*
X124227162Y-114304356D01*
X123869732Y-114351095D01*
X123519891Y-114437996D01*
X123182135Y-114563942D01*
X122860808Y-114727313D01*
X122560041Y-114926009D01*
X122305355Y-115139336D01*
X126793532Y-119627513D01*
X126954947Y-119445390D01*
X127161964Y-119150288D01*
X127334243Y-118833649D01*
X127469570Y-118499541D01*
X127566206Y-118152262D01*
X127623124Y-117794914D01*
X127634380Y-117298904D01*
X127593731Y-116939341D01*
X127512948Y-116588036D01*
X127392916Y-116248135D01*
X127250140Y-115954751D01*
X127929124Y-116633735D01*
X127983186Y-116698164D01*
X128056024Y-116740216D01*
X128124926Y-116788461D01*
X128152284Y-116795792D01*
X128176815Y-116809955D01*
X128259651Y-116824562D01*
X128340891Y-116846330D01*
X128424677Y-116839000D01*
X129209314Y-116839000D01*
X129256240Y-116898206D01*
X129467145Y-117051437D01*
X129711487Y-117142307D01*
X129971266Y-117164121D01*
X130227340Y-117115272D01*
X130460846Y-116999359D01*
X130654578Y-116824922D01*
X130660206Y-116816054D01*
X130854487Y-116888307D01*
X131114266Y-116910121D01*
X131370340Y-116861272D01*
X131603846Y-116745359D01*
X131710316Y-116649493D01*
X131710316Y-117139430D01*
X131747197Y-117324842D01*
X131859253Y-117492547D01*
X132026958Y-117604603D01*
X132212370Y-117641484D01*
X132836630Y-117641484D01*
X133022042Y-117604603D01*
X133189747Y-117492547D01*
X133301803Y-117324842D01*
X133338684Y-117139430D01*
X133338684Y-116440729D01*
X133511914Y-116267500D01*
X135419374Y-116267500D01*
X135343417Y-116381178D01*
X135306536Y-116566590D01*
X135306536Y-117291410D01*
X135343417Y-117476822D01*
X135455473Y-117644527D01*
X135488358Y-117666500D01*
X135310098Y-117666500D01*
X135155822Y-117563417D01*
X134970410Y-117526536D01*
X134245590Y-117526536D01*
X134060178Y-117563417D01*
X133892473Y-117675473D01*
X133780417Y-117843178D01*
X133743536Y-118028590D01*
X133743536Y-118852629D01*
X132403212Y-118852629D01*
X132146501Y-118886425D01*
X131966395Y-118961028D01*
X131942067Y-118908498D01*
X131782161Y-118663671D01*
X131588588Y-118444492D01*
X131365403Y-118255551D01*
X131117280Y-118100808D01*
X130849418Y-117983503D01*
X130567428Y-117906095D01*
X130277217Y-117870205D01*
X129984865Y-117876583D01*
X129696496Y-117925098D01*
X129418151Y-118014734D01*
X129155660Y-118143610D01*
X128914524Y-118309030D01*
X128699793Y-118507525D01*
X128515964Y-118734940D01*
X128366890Y-118986509D01*
X128255693Y-119256963D01*
X128184702Y-119540637D01*
X128155404Y-119831588D01*
X128168415Y-120123719D01*
X128223459Y-120410914D01*
X128319387Y-120687154D01*
X128454185Y-120946653D01*
X128625032Y-121183974D01*
X128828349Y-121394147D01*
X129059876Y-121572769D01*
X129314763Y-121716097D01*
X129517178Y-121794000D01*
X120141000Y-121794000D01*
X120141000Y-119808097D01*
X122307922Y-119808097D01*
X122446367Y-119935179D01*
X122737811Y-120147314D01*
X123051396Y-120325093D01*
X123383090Y-120466231D01*
X123728630Y-120568913D01*
X124083572Y-120631818D01*
X124443354Y-120654138D01*
X124803350Y-120635587D01*
X125158931Y-120576401D01*
X125505527Y-120477344D01*
X125838681Y-120339688D01*
X126154110Y-120165202D01*
X126447760Y-119956131D01*
X126612258Y-119808277D01*
X124460000Y-117656019D01*
X122307922Y-119808097D01*
X120141000Y-119808097D01*
X120141000Y-117402873D01*
X121281637Y-117402873D01*
X121293902Y-117763137D01*
X121346872Y-118119697D01*
X121439866Y-118467970D01*
X121571688Y-118803475D01*
X121740641Y-119121902D01*
X121944556Y-119419156D01*
X122125875Y-119628106D01*
X124278981Y-117475000D01*
X122115945Y-115311964D01*
X121818149Y-115706435D01*
X121634924Y-116016870D01*
X121488019Y-116346050D01*
X121379322Y-116689745D01*
X121310233Y-117043535D01*
X121281637Y-117402873D01*
X120141000Y-117402873D01*
X120141000Y-89049737D01*
X123856282Y-89049737D01*
X123976522Y-89152620D01*
X124213866Y-89301218D01*
X124470567Y-89413101D01*
X124740985Y-89485812D01*
X125019179Y-89517755D01*
X125299041Y-89508226D01*
X125574419Y-89457436D01*
X125839265Y-89366500D01*
X126087761Y-89237418D01*
X126339114Y-89055133D01*
X125095000Y-87811019D01*
X123856282Y-89049737D01*
X120141000Y-89049737D01*
X120141000Y-87718997D01*
X123207821Y-87718997D01*
X123241705Y-87996962D01*
X123316302Y-88266866D01*
X123429975Y-88522778D01*
X123580227Y-88759084D01*
X123675326Y-88868655D01*
X124913981Y-87630000D01*
X125276019Y-87630000D01*
X126518045Y-88872026D01*
X126683063Y-88653436D01*
X126816892Y-88407465D01*
X126912896Y-88144413D01*
X126969295Y-87868434D01*
X126979447Y-87493275D01*
X126938054Y-87214650D01*
X126856418Y-86946792D01*
X126736085Y-86693942D01*
X126525247Y-86380772D01*
X125276019Y-87630000D01*
X124913981Y-87630000D01*
X123668981Y-86385000D01*
X123480691Y-86648485D01*
X123353346Y-86897876D01*
X123264261Y-87163350D01*
X123215395Y-87439077D01*
X123207821Y-87718997D01*
X120141000Y-87718997D01*
X120141000Y-86207589D01*
X123853608Y-86207589D01*
X125095000Y-87448981D01*
X126334521Y-86209460D01*
X126173235Y-86078622D01*
X125932084Y-85936289D01*
X125672543Y-85831164D01*
X125400314Y-85765556D01*
X125121378Y-85740908D01*
X124841863Y-85757759D01*
X124567908Y-85815739D01*
X124305533Y-85913577D01*
X124060502Y-86049121D01*
X123853608Y-86207589D01*
X120141000Y-86207589D01*
X120141000Y-85216000D01*
X182119000Y-85216000D01*
X182119000Y-88212810D01*
G36*
X161374473Y-116258527D02*
G01*
X161542178Y-116370583D01*
X161727590Y-116407464D01*
X162452410Y-116407464D01*
X162637822Y-116370583D01*
X162697062Y-116331000D01*
X168374039Y-116331000D01*
X168410473Y-116385527D01*
X168578178Y-116497583D01*
X168763590Y-116534464D01*
X169488410Y-116534464D01*
X169673822Y-116497583D01*
X169841527Y-116385527D01*
X169901500Y-116295770D01*
X169901500Y-116734781D01*
X169853975Y-116755003D01*
X169620194Y-116899672D01*
X169410985Y-117078038D01*
X169231163Y-117285997D01*
X169084865Y-117518762D01*
X168975459Y-117770980D01*
X168905464Y-118036843D01*
X168876488Y-118310235D01*
X168889199Y-118584865D01*
X168943304Y-118854412D01*
X169037559Y-119112673D01*
X169039386Y-119116004D01*
X167885390Y-120270000D01*
X165937130Y-120270000D01*
X166100143Y-120239935D01*
X166372018Y-120146586D01*
X166627108Y-120014077D01*
X166887917Y-119824936D01*
X165608000Y-118545019D01*
X164333812Y-119819207D01*
X164459841Y-119927032D01*
X164703482Y-120079571D01*
X164966995Y-120194423D01*
X165244590Y-120269064D01*
X165252742Y-120270000D01*
X159391610Y-120270000D01*
X159483146Y-120178464D01*
X161840410Y-120178464D01*
X162025822Y-120141583D01*
X162193527Y-120029527D01*
X162305583Y-119861822D01*
X162342464Y-119676410D01*
X162342464Y-118455359D01*
X163670737Y-118455359D01*
X163705520Y-118740701D01*
X163782097Y-119017768D01*
X163898786Y-119280472D01*
X164053025Y-119523048D01*
X164152879Y-119638102D01*
X165426981Y-118364000D01*
X165789019Y-118364000D01*
X167066745Y-119641726D01*
X167238209Y-119414597D01*
X167375590Y-119162098D01*
X167474142Y-118892065D01*
X167532029Y-118608805D01*
X167542452Y-118223603D01*
X167499967Y-117937627D01*
X167416164Y-117662660D01*
X167292638Y-117403099D01*
X167074272Y-117078747D01*
X165789019Y-118364000D01*
X165426981Y-118364000D01*
X164146136Y-117083156D01*
X163950848Y-117356436D01*
X163820123Y-117612447D01*
X163728675Y-117884966D01*
X163678512Y-118168010D01*
X163670737Y-118455359D01*
X162342464Y-118455359D01*
X162342464Y-117051590D01*
X162313489Y-116905923D01*
X164330942Y-116905923D01*
X165608000Y-118182981D01*
X166883068Y-116907913D01*
X166714851Y-116771450D01*
X166467300Y-116625339D01*
X166200871Y-116517425D01*
X165921417Y-116450075D01*
X165635078Y-116424773D01*
X165348145Y-116442071D01*
X165066920Y-116501590D01*
X164797581Y-116602024D01*
X164546047Y-116741166D01*
X164330942Y-116905923D01*
X162313489Y-116905923D01*
X162305583Y-116866178D01*
X162193527Y-116698473D01*
X162025822Y-116586417D01*
X161840410Y-116549536D01*
X161314500Y-116549536D01*
X161314500Y-116168770D01*
X161374473Y-116258527D01*
G37*
X161374473Y-116258527D02*
X161542178Y-116370583D01*
X161727590Y-116407464D01*
X162452410Y-116407464D01*
X162637822Y-116370583D01*
X162697062Y-116331000D01*
X168374039Y-116331000D01*
X168410473Y-116385527D01*
X168578178Y-116497583D01*
X168763590Y-116534464D01*
X169488410Y-116534464D01*
X169673822Y-116497583D01*
X169841527Y-116385527D01*
X169901500Y-116295770D01*
X169901500Y-116734781D01*
X169853975Y-116755003D01*
X169620194Y-116899672D01*
X169410985Y-117078038D01*
X169231163Y-117285997D01*
X169084865Y-117518762D01*
X168975459Y-117770980D01*
X168905464Y-118036843D01*
X168876488Y-118310235D01*
X168889199Y-118584865D01*
X168943304Y-118854412D01*
X169037559Y-119112673D01*
X169039386Y-119116004D01*
X167885390Y-120270000D01*
X165937130Y-120270000D01*
X166100143Y-120239935D01*
X166372018Y-120146586D01*
X166627108Y-120014077D01*
X166887917Y-119824936D01*
X165608000Y-118545019D01*
X164333812Y-119819207D01*
X164459841Y-119927032D01*
X164703482Y-120079571D01*
X164966995Y-120194423D01*
X165244590Y-120269064D01*
X165252742Y-120270000D01*
X159391610Y-120270000D01*
X159483146Y-120178464D01*
X161840410Y-120178464D01*
X162025822Y-120141583D01*
X162193527Y-120029527D01*
X162305583Y-119861822D01*
X162342464Y-119676410D01*
X162342464Y-118455359D01*
X163670737Y-118455359D01*
X163705520Y-118740701D01*
X163782097Y-119017768D01*
X163898786Y-119280472D01*
X164053025Y-119523048D01*
X164152879Y-119638102D01*
X165426981Y-118364000D01*
X165789019Y-118364000D01*
X167066745Y-119641726D01*
X167238209Y-119414597D01*
X167375590Y-119162098D01*
X167474142Y-118892065D01*
X167532029Y-118608805D01*
X167542452Y-118223603D01*
X167499967Y-117937627D01*
X167416164Y-117662660D01*
X167292638Y-117403099D01*
X167074272Y-117078747D01*
X165789019Y-118364000D01*
X165426981Y-118364000D01*
X164146136Y-117083156D01*
X163950848Y-117356436D01*
X163820123Y-117612447D01*
X163728675Y-117884966D01*
X163678512Y-118168010D01*
X163670737Y-118455359D01*
X162342464Y-118455359D01*
X162342464Y-117051590D01*
X162313489Y-116905923D01*
X164330942Y-116905923D01*
X165608000Y-118182981D01*
X166883068Y-116907913D01*
X166714851Y-116771450D01*
X166467300Y-116625339D01*
X166200871Y-116517425D01*
X165921417Y-116450075D01*
X165635078Y-116424773D01*
X165348145Y-116442071D01*
X165066920Y-116501590D01*
X164797581Y-116602024D01*
X164546047Y-116741166D01*
X164330942Y-116905923D01*
X162313489Y-116905923D01*
X162305583Y-116866178D01*
X162193527Y-116698473D01*
X162025822Y-116586417D01*
X161840410Y-116549536D01*
X161314500Y-116549536D01*
X161314500Y-116168770D01*
X161374473Y-116258527D01*
G36*
X160236167Y-114105580D02*
G01*
X160258981Y-114140911D01*
X160318119Y-114187533D01*
X160329727Y-114199141D01*
X160363063Y-114222964D01*
X160445765Y-114288160D01*
X160459079Y-114291578D01*
X160470900Y-114300026D01*
X160693373Y-114366559D01*
X160796685Y-114362500D01*
X160981087Y-114362500D01*
X161164000Y-114545414D01*
X161164000Y-114599726D01*
X161037822Y-114515417D01*
X160852410Y-114478536D01*
X160127590Y-114478536D01*
X159942178Y-114515417D01*
X159774473Y-114627473D01*
X159662417Y-114795178D01*
X159625536Y-114980590D01*
X159625536Y-115905410D01*
X159662416Y-116090821D01*
X159665500Y-116095437D01*
X159665500Y-116549536D01*
X159215590Y-116549536D01*
X159030178Y-116586417D01*
X158862473Y-116698473D01*
X158750417Y-116866178D01*
X158713536Y-117051590D01*
X158713536Y-119154854D01*
X158233390Y-119635000D01*
X157210755Y-119635000D01*
X157212464Y-119626410D01*
X157212464Y-117101590D01*
X157175583Y-116916178D01*
X157063527Y-116748473D01*
X157034500Y-116729078D01*
X157034500Y-115363113D01*
X157157822Y-115338583D01*
X157325527Y-115226527D01*
X157437583Y-115058822D01*
X157474464Y-114873410D01*
X157474464Y-113848590D01*
X157437583Y-113663178D01*
X157325527Y-113495473D01*
X157199103Y-113411000D01*
X157325527Y-113326527D01*
X157397040Y-113219500D01*
X157716563Y-113219500D01*
X157721179Y-113222584D01*
X157906590Y-113259464D01*
X158831410Y-113259464D01*
X159016822Y-113222583D01*
X159184527Y-113110527D01*
X159207193Y-113076605D01*
X160236167Y-114105580D01*
G37*
X160236167Y-114105580D02*
X160258981Y-114140911D01*
X160318119Y-114187533D01*
X160329727Y-114199141D01*
X160363063Y-114222964D01*
X160445765Y-114288160D01*
X160459079Y-114291578D01*
X160470900Y-114300026D01*
X160693373Y-114366559D01*
X160796685Y-114362500D01*
X160981087Y-114362500D01*
X161164000Y-114545414D01*
X161164000Y-114599726D01*
X161037822Y-114515417D01*
X160852410Y-114478536D01*
X160127590Y-114478536D01*
X159942178Y-114515417D01*
X159774473Y-114627473D01*
X159662417Y-114795178D01*
X159625536Y-114980590D01*
X159625536Y-115905410D01*
X159662416Y-116090821D01*
X159665500Y-116095437D01*
X159665500Y-116549536D01*
X159215590Y-116549536D01*
X159030178Y-116586417D01*
X158862473Y-116698473D01*
X158750417Y-116866178D01*
X158713536Y-117051590D01*
X158713536Y-119154854D01*
X158233390Y-119635000D01*
X157210755Y-119635000D01*
X157212464Y-119626410D01*
X157212464Y-117101590D01*
X157175583Y-116916178D01*
X157063527Y-116748473D01*
X157034500Y-116729078D01*
X157034500Y-115363113D01*
X157157822Y-115338583D01*
X157325527Y-115226527D01*
X157437583Y-115058822D01*
X157474464Y-114873410D01*
X157474464Y-113848590D01*
X157437583Y-113663178D01*
X157325527Y-113495473D01*
X157199103Y-113411000D01*
X157325527Y-113326527D01*
X157397040Y-113219500D01*
X157716563Y-113219500D01*
X157721179Y-113222584D01*
X157906590Y-113259464D01*
X158831410Y-113259464D01*
X159016822Y-113222583D01*
X159184527Y-113110527D01*
X159207193Y-113076605D01*
X160236167Y-114105580D01*
G36*
X145254698Y-110095047D02*
G01*
X145216615Y-110352942D01*
X145249289Y-110611580D01*
X145283017Y-110691816D01*
X144902210Y-110691816D01*
X144716798Y-110728697D01*
X144549093Y-110840753D01*
X144437037Y-111008458D01*
X144400156Y-111193870D01*
X144400156Y-111818130D01*
X144437037Y-112003542D01*
X144549093Y-112171247D01*
X144716798Y-112283303D01*
X144902210Y-112320184D01*
X145190166Y-112320184D01*
X145352501Y-112482519D01*
X145352500Y-112764431D01*
X145168626Y-112709441D01*
X145065314Y-112713500D01*
X143442178Y-112713500D01*
X143401070Y-112704649D01*
X143326289Y-112713500D01*
X143309871Y-112713500D01*
X143269466Y-112720225D01*
X143164874Y-112732605D01*
X143153041Y-112739603D01*
X143138707Y-112741989D01*
X142934351Y-112852254D01*
X142864147Y-112928200D01*
X142751031Y-113041316D01*
X142551328Y-113041316D01*
X142540059Y-113038423D01*
X142528236Y-113029974D01*
X142305766Y-112963441D01*
X142202454Y-112967500D01*
X139007111Y-112967500D01*
X138835947Y-112995989D01*
X138631591Y-113106254D01*
X138597128Y-113143536D01*
X138221590Y-113143536D01*
X138036178Y-113180417D01*
X137868473Y-113292473D01*
X137756417Y-113460178D01*
X137719536Y-113645590D01*
X137719536Y-114370410D01*
X137756417Y-114555822D01*
X137868473Y-114723527D01*
X137994897Y-114808000D01*
X137868473Y-114892473D01*
X137756417Y-115060178D01*
X137719536Y-115245590D01*
X137719536Y-115970410D01*
X137756417Y-116155822D01*
X137868473Y-116323527D01*
X138036178Y-116435583D01*
X138221590Y-116472464D01*
X138599764Y-116472464D01*
X138728762Y-116574158D01*
X139018307Y-116648500D01*
X139416864Y-116648500D01*
X139173502Y-116783121D01*
X138966608Y-116941589D01*
X140208000Y-118182981D01*
X141447521Y-116943460D01*
X141286235Y-116812622D01*
X141045084Y-116670289D01*
X140991290Y-116648500D01*
X142142722Y-116648500D01*
X142183830Y-116657351D01*
X142258611Y-116648500D01*
X142275030Y-116648500D01*
X142304347Y-116643620D01*
X142310868Y-116650141D01*
X142344188Y-116673951D01*
X142426900Y-116739156D01*
X142440218Y-116742576D01*
X142452043Y-116751026D01*
X142674513Y-116817559D01*
X142777826Y-116813500D01*
X143444428Y-116813500D01*
X143456473Y-116831527D01*
X143567438Y-116905671D01*
X143560417Y-116916178D01*
X143523536Y-117101590D01*
X143523536Y-119626410D01*
X143525245Y-119635000D01*
X141297980Y-119635000D01*
X140208000Y-118545019D01*
X139118020Y-119635000D01*
X138745364Y-119635000D01*
X138746211Y-119554131D01*
X138788326Y-119602655D01*
X140026981Y-118364000D01*
X140389019Y-118364000D01*
X141631045Y-119606026D01*
X141796063Y-119387436D01*
X141929892Y-119141465D01*
X142025896Y-118878413D01*
X142082295Y-118602434D01*
X142092447Y-118227275D01*
X142051054Y-117948650D01*
X141969418Y-117680792D01*
X141849085Y-117427942D01*
X141638247Y-117114772D01*
X140389019Y-118364000D01*
X140026981Y-118364000D01*
X138781981Y-117119000D01*
X138593691Y-117382485D01*
X138466346Y-117631876D01*
X138377261Y-117897350D01*
X138328395Y-118173077D01*
X138320821Y-118452997D01*
X138354705Y-118730962D01*
X138400727Y-118897477D01*
X138351363Y-118851121D01*
X138120337Y-118730343D01*
X137865341Y-118676142D01*
X137605163Y-118692510D01*
X137358970Y-118778244D01*
X137235464Y-118864083D01*
X137235464Y-118166590D01*
X137198583Y-117981178D01*
X137086527Y-117813473D01*
X136960103Y-117729000D01*
X137086527Y-117644527D01*
X137198583Y-117476822D01*
X137235464Y-117291410D01*
X137235464Y-116566590D01*
X137198583Y-116381178D01*
X137086527Y-116213473D01*
X137085176Y-116212570D01*
X137086527Y-116211667D01*
X137198583Y-116043962D01*
X137235464Y-115858550D01*
X137235464Y-115133730D01*
X137198583Y-114948318D01*
X137086527Y-114780613D01*
X136960103Y-114696140D01*
X137086527Y-114611667D01*
X137198583Y-114443962D01*
X137235464Y-114258550D01*
X137235464Y-113533730D01*
X137198583Y-113348318D01*
X137086527Y-113180613D01*
X136918822Y-113068557D01*
X136733410Y-113031676D01*
X135808590Y-113031676D01*
X135665878Y-113060063D01*
X135580337Y-113015343D01*
X135442504Y-112986046D01*
X135444733Y-112773302D01*
X135374446Y-112521564D01*
X135374104Y-112521000D01*
X138239550Y-112521000D01*
X138357145Y-112606437D01*
X138601487Y-112697307D01*
X138861266Y-112719121D01*
X139117340Y-112670272D01*
X139350846Y-112554359D01*
X139544578Y-112379922D01*
X139684265Y-112159812D01*
X139759807Y-111909602D01*
X139762733Y-111630302D01*
X139705284Y-111424545D01*
X139731846Y-111411360D01*
X139925578Y-111236922D01*
X140065265Y-111016812D01*
X140140807Y-110766602D01*
X140143733Y-110487302D01*
X140122934Y-110412811D01*
X140250201Y-110412811D01*
X140386536Y-110549146D01*
X140386536Y-111030410D01*
X140423417Y-111215822D01*
X140535473Y-111383527D01*
X140703178Y-111495583D01*
X140888590Y-111532464D01*
X141813410Y-111532464D01*
X141998822Y-111495583D01*
X142075870Y-111444102D01*
X142129029Y-111450393D01*
X142238205Y-111430455D01*
X142348010Y-111413946D01*
X142359929Y-111408223D01*
X142377934Y-111404934D01*
X142415279Y-111381645D01*
X142422869Y-111378000D01*
X143363613Y-111378000D01*
X143432232Y-111367684D01*
X143814510Y-111367684D01*
X143999922Y-111330803D01*
X144167627Y-111218747D01*
X144279683Y-111051042D01*
X144316564Y-110865630D01*
X144316564Y-110241370D01*
X144279683Y-110055958D01*
X144229598Y-109981000D01*
X145305475Y-109981000D01*
X145254698Y-110095047D01*
G37*
X145254698Y-110095047D02*
X145216615Y-110352942D01*
X145249289Y-110611580D01*
X145283017Y-110691816D01*
X144902210Y-110691816D01*
X144716798Y-110728697D01*
X144549093Y-110840753D01*
X144437037Y-111008458D01*
X144400156Y-111193870D01*
X144400156Y-111818130D01*
X144437037Y-112003542D01*
X144549093Y-112171247D01*
X144716798Y-112283303D01*
X144902210Y-112320184D01*
X145190166Y-112320184D01*
X145352501Y-112482519D01*
X145352500Y-112764431D01*
X145168626Y-112709441D01*
X145065314Y-112713500D01*
X143442178Y-112713500D01*
X143401070Y-112704649D01*
X143326289Y-112713500D01*
X143309871Y-112713500D01*
X143269466Y-112720225D01*
X143164874Y-112732605D01*
X143153041Y-112739603D01*
X143138707Y-112741989D01*
X142934351Y-112852254D01*
X142864147Y-112928200D01*
X142751031Y-113041316D01*
X142551328Y-113041316D01*
X142540059Y-113038423D01*
X142528236Y-113029974D01*
X142305766Y-112963441D01*
X142202454Y-112967500D01*
X139007111Y-112967500D01*
X138835947Y-112995989D01*
X138631591Y-113106254D01*
X138597128Y-113143536D01*
X138221590Y-113143536D01*
X138036178Y-113180417D01*
X137868473Y-113292473D01*
X137756417Y-113460178D01*
X137719536Y-113645590D01*
X137719536Y-114370410D01*
X137756417Y-114555822D01*
X137868473Y-114723527D01*
X137994897Y-114808000D01*
X137868473Y-114892473D01*
X137756417Y-115060178D01*
X137719536Y-115245590D01*
X137719536Y-115970410D01*
X137756417Y-116155822D01*
X137868473Y-116323527D01*
X138036178Y-116435583D01*
X138221590Y-116472464D01*
X138599764Y-116472464D01*
X138728762Y-116574158D01*
X139018307Y-116648500D01*
X139416864Y-116648500D01*
X139173502Y-116783121D01*
X138966608Y-116941589D01*
X140208000Y-118182981D01*
X141447521Y-116943460D01*
X141286235Y-116812622D01*
X141045084Y-116670289D01*
X140991290Y-116648500D01*
X142142722Y-116648500D01*
X142183830Y-116657351D01*
X142258611Y-116648500D01*
X142275030Y-116648500D01*
X142304347Y-116643620D01*
X142310868Y-116650141D01*
X142344188Y-116673951D01*
X142426900Y-116739156D01*
X142440218Y-116742576D01*
X142452043Y-116751026D01*
X142674513Y-116817559D01*
X142777826Y-116813500D01*
X143444428Y-116813500D01*
X143456473Y-116831527D01*
X143567438Y-116905671D01*
X143560417Y-116916178D01*
X143523536Y-117101590D01*
X143523536Y-119626410D01*
X143525245Y-119635000D01*
X141297980Y-119635000D01*
X140208000Y-118545019D01*
X139118020Y-119635000D01*
X138745364Y-119635000D01*
X138746211Y-119554131D01*
X138788326Y-119602655D01*
X140026981Y-118364000D01*
X140389019Y-118364000D01*
X141631045Y-119606026D01*
X141796063Y-119387436D01*
X141929892Y-119141465D01*
X142025896Y-118878413D01*
X142082295Y-118602434D01*
X142092447Y-118227275D01*
X142051054Y-117948650D01*
X141969418Y-117680792D01*
X141849085Y-117427942D01*
X141638247Y-117114772D01*
X140389019Y-118364000D01*
X140026981Y-118364000D01*
X138781981Y-117119000D01*
X138593691Y-117382485D01*
X138466346Y-117631876D01*
X138377261Y-117897350D01*
X138328395Y-118173077D01*
X138320821Y-118452997D01*
X138354705Y-118730962D01*
X138400727Y-118897477D01*
X138351363Y-118851121D01*
X138120337Y-118730343D01*
X137865341Y-118676142D01*
X137605163Y-118692510D01*
X137358970Y-118778244D01*
X137235464Y-118864083D01*
X137235464Y-118166590D01*
X137198583Y-117981178D01*
X137086527Y-117813473D01*
X136960103Y-117729000D01*
X137086527Y-117644527D01*
X137198583Y-117476822D01*
X137235464Y-117291410D01*
X137235464Y-116566590D01*
X137198583Y-116381178D01*
X137086527Y-116213473D01*
X137085176Y-116212570D01*
X137086527Y-116211667D01*
X137198583Y-116043962D01*
X137235464Y-115858550D01*
X137235464Y-115133730D01*
X137198583Y-114948318D01*
X137086527Y-114780613D01*
X136960103Y-114696140D01*
X137086527Y-114611667D01*
X137198583Y-114443962D01*
X137235464Y-114258550D01*
X137235464Y-113533730D01*
X137198583Y-113348318D01*
X137086527Y-113180613D01*
X136918822Y-113068557D01*
X136733410Y-113031676D01*
X135808590Y-113031676D01*
X135665878Y-113060063D01*
X135580337Y-113015343D01*
X135442504Y-112986046D01*
X135444733Y-112773302D01*
X135374446Y-112521564D01*
X135374104Y-112521000D01*
X138239550Y-112521000D01*
X138357145Y-112606437D01*
X138601487Y-112697307D01*
X138861266Y-112719121D01*
X139117340Y-112670272D01*
X139350846Y-112554359D01*
X139544578Y-112379922D01*
X139684265Y-112159812D01*
X139759807Y-111909602D01*
X139762733Y-111630302D01*
X139705284Y-111424545D01*
X139731846Y-111411360D01*
X139925578Y-111236922D01*
X140065265Y-111016812D01*
X140140807Y-110766602D01*
X140143733Y-110487302D01*
X140122934Y-110412811D01*
X140250201Y-110412811D01*
X140386536Y-110549146D01*
X140386536Y-111030410D01*
X140423417Y-111215822D01*
X140535473Y-111383527D01*
X140703178Y-111495583D01*
X140888590Y-111532464D01*
X141813410Y-111532464D01*
X141998822Y-111495583D01*
X142075870Y-111444102D01*
X142129029Y-111450393D01*
X142238205Y-111430455D01*
X142348010Y-111413946D01*
X142359929Y-111408223D01*
X142377934Y-111404934D01*
X142415279Y-111381645D01*
X142422869Y-111378000D01*
X143363613Y-111378000D01*
X143432232Y-111367684D01*
X143814510Y-111367684D01*
X143999922Y-111330803D01*
X144167627Y-111218747D01*
X144279683Y-111051042D01*
X144316564Y-110865630D01*
X144316564Y-110241370D01*
X144279683Y-110055958D01*
X144229598Y-109981000D01*
X145305475Y-109981000D01*
X145254698Y-110095047D01*
G36*
X153362473Y-113110527D02*
G01*
X153530178Y-113222583D01*
X153715590Y-113259464D01*
X154029181Y-113259464D01*
X154087761Y-113280036D01*
X154189167Y-113284020D01*
X154195550Y-113285500D01*
X154226823Y-113285500D01*
X154335496Y-113289770D01*
X154351599Y-113285500D01*
X155067060Y-113285500D01*
X155094473Y-113326527D01*
X155220897Y-113411000D01*
X155094473Y-113495473D01*
X154982417Y-113663178D01*
X154945536Y-113848590D01*
X154945536Y-114873410D01*
X154982417Y-115058822D01*
X155094473Y-115226527D01*
X155262178Y-115338583D01*
X155385500Y-115363113D01*
X155385501Y-116599536D01*
X154185590Y-116599536D01*
X154000178Y-116636417D01*
X153832473Y-116748473D01*
X153720417Y-116916178D01*
X153683536Y-117101590D01*
X153683536Y-119626410D01*
X153685245Y-119635000D01*
X151581772Y-119635000D01*
X151708164Y-119508608D01*
X151870721Y-119284868D01*
X151996276Y-119038454D01*
X152081736Y-118775432D01*
X152125000Y-118502278D01*
X152125000Y-118225722D01*
X152081736Y-117952568D01*
X151996276Y-117689546D01*
X151870721Y-117443132D01*
X151708164Y-117219392D01*
X151512608Y-117023836D01*
X151288868Y-116861279D01*
X151042454Y-116735724D01*
X150779432Y-116650264D01*
X150506278Y-116607000D01*
X150229722Y-116607000D01*
X149956568Y-116650264D01*
X149853703Y-116683686D01*
X149414500Y-116244483D01*
X149414500Y-115363113D01*
X149537822Y-115338583D01*
X149705527Y-115226527D01*
X149817583Y-115058822D01*
X149854464Y-114873410D01*
X149854464Y-113848590D01*
X149817583Y-113663178D01*
X149705527Y-113495473D01*
X149579103Y-113411000D01*
X149705527Y-113326527D01*
X149732940Y-113285500D01*
X150519047Y-113285500D01*
X150594189Y-113294393D01*
X150703360Y-113274456D01*
X150723257Y-113271464D01*
X151084410Y-113271464D01*
X151269822Y-113234583D01*
X151406138Y-113143500D01*
X151747563Y-113143500D01*
X151752179Y-113146584D01*
X151937590Y-113183464D01*
X152862410Y-113183464D01*
X153047822Y-113146583D01*
X153215527Y-113034527D01*
X153263609Y-112962566D01*
X153362473Y-113110527D01*
G37*
X153362473Y-113110527D02*
X153530178Y-113222583D01*
X153715590Y-113259464D01*
X154029181Y-113259464D01*
X154087761Y-113280036D01*
X154189167Y-113284020D01*
X154195550Y-113285500D01*
X154226823Y-113285500D01*
X154335496Y-113289770D01*
X154351599Y-113285500D01*
X155067060Y-113285500D01*
X155094473Y-113326527D01*
X155220897Y-113411000D01*
X155094473Y-113495473D01*
X154982417Y-113663178D01*
X154945536Y-113848590D01*
X154945536Y-114873410D01*
X154982417Y-115058822D01*
X155094473Y-115226527D01*
X155262178Y-115338583D01*
X155385500Y-115363113D01*
X155385501Y-116599536D01*
X154185590Y-116599536D01*
X154000178Y-116636417D01*
X153832473Y-116748473D01*
X153720417Y-116916178D01*
X153683536Y-117101590D01*
X153683536Y-119626410D01*
X153685245Y-119635000D01*
X151581772Y-119635000D01*
X151708164Y-119508608D01*
X151870721Y-119284868D01*
X151996276Y-119038454D01*
X152081736Y-118775432D01*
X152125000Y-118502278D01*
X152125000Y-118225722D01*
X152081736Y-117952568D01*
X151996276Y-117689546D01*
X151870721Y-117443132D01*
X151708164Y-117219392D01*
X151512608Y-117023836D01*
X151288868Y-116861279D01*
X151042454Y-116735724D01*
X150779432Y-116650264D01*
X150506278Y-116607000D01*
X150229722Y-116607000D01*
X149956568Y-116650264D01*
X149853703Y-116683686D01*
X149414500Y-116244483D01*
X149414500Y-115363113D01*
X149537822Y-115338583D01*
X149705527Y-115226527D01*
X149817583Y-115058822D01*
X149854464Y-114873410D01*
X149854464Y-113848590D01*
X149817583Y-113663178D01*
X149705527Y-113495473D01*
X149579103Y-113411000D01*
X149705527Y-113326527D01*
X149732940Y-113285500D01*
X150519047Y-113285500D01*
X150594189Y-113294393D01*
X150703360Y-113274456D01*
X150723257Y-113271464D01*
X151084410Y-113271464D01*
X151269822Y-113234583D01*
X151406138Y-113143500D01*
X151747563Y-113143500D01*
X151752179Y-113146584D01*
X151937590Y-113183464D01*
X152862410Y-113183464D01*
X153047822Y-113146583D01*
X153215527Y-113034527D01*
X153263609Y-112962566D01*
X153362473Y-113110527D01*
G36*
X128779001Y-109573320D02*
G01*
X128771671Y-109657109D01*
X128793441Y-109738356D01*
X128808046Y-109821185D01*
X128822208Y-109845716D01*
X128829539Y-109873072D01*
X128877786Y-109941978D01*
X128919837Y-110014814D01*
X128984266Y-110068876D01*
X131231120Y-112315730D01*
X131285187Y-112380164D01*
X131358025Y-112422216D01*
X131426927Y-112470462D01*
X131454283Y-112477792D01*
X131478814Y-112491955D01*
X131561657Y-112506563D01*
X131642891Y-112528329D01*
X131726668Y-112521000D01*
X132600536Y-112521000D01*
X132600536Y-113365410D01*
X132637416Y-113550821D01*
X132640500Y-113555437D01*
X132640501Y-114493039D01*
X132631607Y-114568189D01*
X132651552Y-114677400D01*
X132662816Y-114752323D01*
X132662816Y-115026150D01*
X132682330Y-115124256D01*
X132190426Y-115616161D01*
X132026958Y-115648677D01*
X131976878Y-115682139D01*
X131945446Y-115569564D01*
X131810400Y-115346577D01*
X131620363Y-115168121D01*
X131389337Y-115047343D01*
X131134341Y-114993142D01*
X131014520Y-115000680D01*
X130982512Y-114962535D01*
X130909658Y-114920473D01*
X130840771Y-114872238D01*
X130813415Y-114864907D01*
X130788884Y-114850744D01*
X130706044Y-114836137D01*
X130624807Y-114814370D01*
X130592786Y-114817171D01*
X130667265Y-114699812D01*
X130742807Y-114449602D01*
X130745733Y-114170302D01*
X130675446Y-113918564D01*
X130550873Y-113712872D01*
X130569464Y-113619410D01*
X130569464Y-112694590D01*
X130532583Y-112509178D01*
X130420527Y-112341473D01*
X130252822Y-112229417D01*
X130067410Y-112192536D01*
X129342590Y-112192536D01*
X129157178Y-112229417D01*
X128989473Y-112341473D01*
X128905000Y-112467897D01*
X128855297Y-112393511D01*
X128852931Y-112333284D01*
X128870527Y-112321527D01*
X128982583Y-112153822D01*
X129019464Y-111968410D01*
X129019464Y-111043590D01*
X128982583Y-110858178D01*
X128870527Y-110690473D01*
X128777000Y-110627981D01*
X128777000Y-110263677D01*
X128784330Y-110179891D01*
X128762562Y-110098651D01*
X128747955Y-110015815D01*
X128733792Y-109991284D01*
X128726461Y-109963926D01*
X128678216Y-109895024D01*
X128636164Y-109822186D01*
X128571743Y-109768131D01*
X127874275Y-109070664D01*
X127820213Y-109006236D01*
X127747359Y-108964174D01*
X127678472Y-108915939D01*
X127651116Y-108908608D01*
X127626585Y-108894445D01*
X127543745Y-108879838D01*
X127462508Y-108858071D01*
X127378731Y-108865400D01*
X126923596Y-108865400D01*
X126984945Y-108848962D01*
X127067785Y-108834355D01*
X127092316Y-108820192D01*
X127119672Y-108812861D01*
X127188559Y-108764626D01*
X127261413Y-108722564D01*
X127315480Y-108658130D01*
X128779001Y-107194610D01*
X128779001Y-109573320D01*
G37*
X128779001Y-109573320D02*
X128771671Y-109657109D01*
X128793441Y-109738356D01*
X128808046Y-109821185D01*
X128822208Y-109845716D01*
X128829539Y-109873072D01*
X128877786Y-109941978D01*
X128919837Y-110014814D01*
X128984266Y-110068876D01*
X131231120Y-112315730D01*
X131285187Y-112380164D01*
X131358025Y-112422216D01*
X131426927Y-112470462D01*
X131454283Y-112477792D01*
X131478814Y-112491955D01*
X131561657Y-112506563D01*
X131642891Y-112528329D01*
X131726668Y-112521000D01*
X132600536Y-112521000D01*
X132600536Y-113365410D01*
X132637416Y-113550821D01*
X132640500Y-113555437D01*
X132640501Y-114493039D01*
X132631607Y-114568189D01*
X132651552Y-114677400D01*
X132662816Y-114752323D01*
X132662816Y-115026150D01*
X132682330Y-115124256D01*
X132190426Y-115616161D01*
X132026958Y-115648677D01*
X131976878Y-115682139D01*
X131945446Y-115569564D01*
X131810400Y-115346577D01*
X131620363Y-115168121D01*
X131389337Y-115047343D01*
X131134341Y-114993142D01*
X131014520Y-115000680D01*
X130982512Y-114962535D01*
X130909658Y-114920473D01*
X130840771Y-114872238D01*
X130813415Y-114864907D01*
X130788884Y-114850744D01*
X130706044Y-114836137D01*
X130624807Y-114814370D01*
X130592786Y-114817171D01*
X130667265Y-114699812D01*
X130742807Y-114449602D01*
X130745733Y-114170302D01*
X130675446Y-113918564D01*
X130550873Y-113712872D01*
X130569464Y-113619410D01*
X130569464Y-112694590D01*
X130532583Y-112509178D01*
X130420527Y-112341473D01*
X130252822Y-112229417D01*
X130067410Y-112192536D01*
X129342590Y-112192536D01*
X129157178Y-112229417D01*
X128989473Y-112341473D01*
X128905000Y-112467897D01*
X128855297Y-112393511D01*
X128852931Y-112333284D01*
X128870527Y-112321527D01*
X128982583Y-112153822D01*
X129019464Y-111968410D01*
X129019464Y-111043590D01*
X128982583Y-110858178D01*
X128870527Y-110690473D01*
X128777000Y-110627981D01*
X128777000Y-110263677D01*
X128784330Y-110179891D01*
X128762562Y-110098651D01*
X128747955Y-110015815D01*
X128733792Y-109991284D01*
X128726461Y-109963926D01*
X128678216Y-109895024D01*
X128636164Y-109822186D01*
X128571743Y-109768131D01*
X127874275Y-109070664D01*
X127820213Y-109006236D01*
X127747359Y-108964174D01*
X127678472Y-108915939D01*
X127651116Y-108908608D01*
X127626585Y-108894445D01*
X127543745Y-108879838D01*
X127462508Y-108858071D01*
X127378731Y-108865400D01*
X126923596Y-108865400D01*
X126984945Y-108848962D01*
X127067785Y-108834355D01*
X127092316Y-108820192D01*
X127119672Y-108812861D01*
X127188559Y-108764626D01*
X127261413Y-108722564D01*
X127315480Y-108658130D01*
X128779001Y-107194610D01*
X128779001Y-109573320D01*
G36*
X153878570Y-106414684D02*
G01*
X154298406Y-106414684D01*
X154342912Y-106425000D01*
X155335547Y-106425000D01*
X155410689Y-106433893D01*
X155489796Y-106419446D01*
X155489796Y-106865130D01*
X155526677Y-107050542D01*
X155638733Y-107218247D01*
X155806438Y-107330303D01*
X155991850Y-107367184D01*
X157017430Y-107367184D01*
X157202842Y-107330303D01*
X157322276Y-107250500D01*
X159322500Y-107250500D01*
X159322501Y-108028042D01*
X159313607Y-108103189D01*
X159322501Y-108151889D01*
X159322501Y-108159960D01*
X159215473Y-108231473D01*
X159103417Y-108399178D01*
X159066536Y-108584590D01*
X159066536Y-110109410D01*
X159103417Y-110294822D01*
X159215473Y-110462527D01*
X159383178Y-110574583D01*
X159568590Y-110611464D01*
X160593410Y-110611464D01*
X160778822Y-110574583D01*
X160946527Y-110462527D01*
X161058583Y-110294822D01*
X161095464Y-110109410D01*
X161095464Y-108976157D01*
X161128417Y-109141821D01*
X161164000Y-109195075D01*
X161164000Y-112967500D01*
X161070914Y-112967500D01*
X160336500Y-112233087D01*
X160336500Y-111961418D01*
X160345351Y-111920310D01*
X160336500Y-111845529D01*
X160336500Y-111829111D01*
X160329775Y-111788706D01*
X160317395Y-111684114D01*
X160310397Y-111672281D01*
X160308011Y-111657947D01*
X160197746Y-111453591D01*
X160121814Y-111383400D01*
X159295831Y-110557418D01*
X159273020Y-110522089D01*
X159213876Y-110475463D01*
X159202272Y-110463859D01*
X159168946Y-110440044D01*
X159086239Y-110374843D01*
X159072920Y-110371423D01*
X159061096Y-110362974D01*
X158838626Y-110296441D01*
X158735314Y-110300500D01*
X155101913Y-110300500D01*
X153859500Y-109058088D01*
X153859500Y-106627418D01*
X153868351Y-106586310D01*
X153859500Y-106511529D01*
X153859500Y-106495110D01*
X153852772Y-106454692D01*
X153847301Y-106408464D01*
X153878570Y-106414684D01*
G37*
X153878570Y-106414684D02*
X154298406Y-106414684D01*
X154342912Y-106425000D01*
X155335547Y-106425000D01*
X155410689Y-106433893D01*
X155489796Y-106419446D01*
X155489796Y-106865130D01*
X155526677Y-107050542D01*
X155638733Y-107218247D01*
X155806438Y-107330303D01*
X155991850Y-107367184D01*
X157017430Y-107367184D01*
X157202842Y-107330303D01*
X157322276Y-107250500D01*
X159322500Y-107250500D01*
X159322501Y-108028042D01*
X159313607Y-108103189D01*
X159322501Y-108151889D01*
X159322501Y-108159960D01*
X159215473Y-108231473D01*
X159103417Y-108399178D01*
X159066536Y-108584590D01*
X159066536Y-110109410D01*
X159103417Y-110294822D01*
X159215473Y-110462527D01*
X159383178Y-110574583D01*
X159568590Y-110611464D01*
X160593410Y-110611464D01*
X160778822Y-110574583D01*
X160946527Y-110462527D01*
X161058583Y-110294822D01*
X161095464Y-110109410D01*
X161095464Y-108976157D01*
X161128417Y-109141821D01*
X161164000Y-109195075D01*
X161164000Y-112967500D01*
X161070914Y-112967500D01*
X160336500Y-112233087D01*
X160336500Y-111961418D01*
X160345351Y-111920310D01*
X160336500Y-111845529D01*
X160336500Y-111829111D01*
X160329775Y-111788706D01*
X160317395Y-111684114D01*
X160310397Y-111672281D01*
X160308011Y-111657947D01*
X160197746Y-111453591D01*
X160121814Y-111383400D01*
X159295831Y-110557418D01*
X159273020Y-110522089D01*
X159213876Y-110475463D01*
X159202272Y-110463859D01*
X159168946Y-110440044D01*
X159086239Y-110374843D01*
X159072920Y-110371423D01*
X159061096Y-110362974D01*
X158838626Y-110296441D01*
X158735314Y-110300500D01*
X155101913Y-110300500D01*
X153859500Y-109058088D01*
X153859500Y-106627418D01*
X153868351Y-106586310D01*
X153859500Y-106511529D01*
X153859500Y-106495110D01*
X153852772Y-106454692D01*
X153847301Y-106408464D01*
X153878570Y-106414684D01*
G36*
X128928480Y-95591087D02*
G01*
X129114354Y-95726133D01*
X129342411Y-95800234D01*
X129582207Y-95800234D01*
X129810264Y-95726133D01*
X129996138Y-95591087D01*
X130211225Y-95376000D01*
X131819390Y-95376000D01*
X127841266Y-99354124D01*
X127776837Y-99408186D01*
X127734786Y-99481022D01*
X127686539Y-99549928D01*
X127679208Y-99577284D01*
X127665046Y-99601815D01*
X127650441Y-99684644D01*
X127628671Y-99765891D01*
X127636001Y-99849680D01*
X127636000Y-105655388D01*
X127441760Y-105849628D01*
X127443733Y-105661302D01*
X127373446Y-105409564D01*
X127238400Y-105186577D01*
X127048363Y-105008121D01*
X126817337Y-104887343D01*
X126562341Y-104833142D01*
X126302163Y-104849510D01*
X126075623Y-104928400D01*
X125678925Y-104928400D01*
X125532860Y-104899346D01*
X124078020Y-104899346D01*
X123892608Y-104936227D01*
X123724903Y-105048283D01*
X123612847Y-105215988D01*
X123575966Y-105401400D01*
X123575966Y-105977400D01*
X123612847Y-106162812D01*
X123720816Y-106324400D01*
X123612847Y-106485988D01*
X123575966Y-106671400D01*
X123575966Y-107247400D01*
X123612847Y-107432812D01*
X123720816Y-107594400D01*
X123612847Y-107755988D01*
X123575966Y-107941400D01*
X123575966Y-108517400D01*
X123612847Y-108702812D01*
X123720816Y-108864400D01*
X123612847Y-109025988D01*
X123575966Y-109211400D01*
X123575966Y-109437322D01*
X123189000Y-109050356D01*
X123189000Y-105598256D01*
X123261483Y-105552257D01*
X123423667Y-105397813D01*
X123552762Y-105214808D01*
X123643854Y-105010214D01*
X123693668Y-104790956D01*
X123697216Y-104536893D01*
X123653543Y-104316330D01*
X123568199Y-104109272D01*
X123444263Y-103922735D01*
X123347809Y-103825604D01*
X123602520Y-103570894D01*
X123612847Y-103622812D01*
X123724903Y-103790517D01*
X123892608Y-103902573D01*
X124078020Y-103939454D01*
X125532860Y-103939454D01*
X125678925Y-103910400D01*
X126273002Y-103910400D01*
X126273008Y-103910399D01*
X126333129Y-103910399D01*
X126390793Y-103891663D01*
X126450693Y-103882176D01*
X126504726Y-103854645D01*
X126562393Y-103835908D01*
X126611447Y-103800267D01*
X126665480Y-103772736D01*
X126751848Y-103686368D01*
X126925340Y-103653272D01*
X127158846Y-103537359D01*
X127352578Y-103362922D01*
X127492265Y-103142812D01*
X127567807Y-102892602D01*
X127570733Y-102613302D01*
X127500446Y-102361564D01*
X127365400Y-102138577D01*
X127175363Y-101960121D01*
X126944337Y-101839343D01*
X126689341Y-101785142D01*
X126429163Y-101801510D01*
X126182970Y-101887244D01*
X126034914Y-101990146D01*
X126034914Y-101591400D01*
X125998033Y-101405988D01*
X125890064Y-101244400D01*
X125998033Y-101082812D01*
X126034914Y-100897400D01*
X126034914Y-100321400D01*
X125998033Y-100135988D01*
X125890064Y-99974400D01*
X125998033Y-99812812D01*
X126034914Y-99627400D01*
X126034914Y-99051400D01*
X125998033Y-98865988D01*
X125890064Y-98704400D01*
X125998033Y-98542812D01*
X126034914Y-98357400D01*
X126034914Y-97781400D01*
X125998033Y-97595988D01*
X125885977Y-97428283D01*
X125718272Y-97316227D01*
X125532860Y-97279346D01*
X124517563Y-97279346D01*
X123694777Y-96456561D01*
X123697216Y-96281893D01*
X123653543Y-96061330D01*
X123568199Y-95854272D01*
X123444263Y-95667735D01*
X123286457Y-95508821D01*
X123100788Y-95383587D01*
X123082739Y-95376000D01*
X128713393Y-95376000D01*
X128928480Y-95591087D01*
G37*
X128928480Y-95591087D02*
X129114354Y-95726133D01*
X129342411Y-95800234D01*
X129582207Y-95800234D01*
X129810264Y-95726133D01*
X129996138Y-95591087D01*
X130211225Y-95376000D01*
X131819390Y-95376000D01*
X127841266Y-99354124D01*
X127776837Y-99408186D01*
X127734786Y-99481022D01*
X127686539Y-99549928D01*
X127679208Y-99577284D01*
X127665046Y-99601815D01*
X127650441Y-99684644D01*
X127628671Y-99765891D01*
X127636001Y-99849680D01*
X127636000Y-105655388D01*
X127441760Y-105849628D01*
X127443733Y-105661302D01*
X127373446Y-105409564D01*
X127238400Y-105186577D01*
X127048363Y-105008121D01*
X126817337Y-104887343D01*
X126562341Y-104833142D01*
X126302163Y-104849510D01*
X126075623Y-104928400D01*
X125678925Y-104928400D01*
X125532860Y-104899346D01*
X124078020Y-104899346D01*
X123892608Y-104936227D01*
X123724903Y-105048283D01*
X123612847Y-105215988D01*
X123575966Y-105401400D01*
X123575966Y-105977400D01*
X123612847Y-106162812D01*
X123720816Y-106324400D01*
X123612847Y-106485988D01*
X123575966Y-106671400D01*
X123575966Y-107247400D01*
X123612847Y-107432812D01*
X123720816Y-107594400D01*
X123612847Y-107755988D01*
X123575966Y-107941400D01*
X123575966Y-108517400D01*
X123612847Y-108702812D01*
X123720816Y-108864400D01*
X123612847Y-109025988D01*
X123575966Y-109211400D01*
X123575966Y-109437322D01*
X123189000Y-109050356D01*
X123189000Y-105598256D01*
X123261483Y-105552257D01*
X123423667Y-105397813D01*
X123552762Y-105214808D01*
X123643854Y-105010214D01*
X123693668Y-104790956D01*
X123697216Y-104536893D01*
X123653543Y-104316330D01*
X123568199Y-104109272D01*
X123444263Y-103922735D01*
X123347809Y-103825604D01*
X123602520Y-103570894D01*
X123612847Y-103622812D01*
X123724903Y-103790517D01*
X123892608Y-103902573D01*
X124078020Y-103939454D01*
X125532860Y-103939454D01*
X125678925Y-103910400D01*
X126273002Y-103910400D01*
X126273008Y-103910399D01*
X126333129Y-103910399D01*
X126390793Y-103891663D01*
X126450693Y-103882176D01*
X126504726Y-103854645D01*
X126562393Y-103835908D01*
X126611447Y-103800267D01*
X126665480Y-103772736D01*
X126751848Y-103686368D01*
X126925340Y-103653272D01*
X127158846Y-103537359D01*
X127352578Y-103362922D01*
X127492265Y-103142812D01*
X127567807Y-102892602D01*
X127570733Y-102613302D01*
X127500446Y-102361564D01*
X127365400Y-102138577D01*
X127175363Y-101960121D01*
X126944337Y-101839343D01*
X126689341Y-101785142D01*
X126429163Y-101801510D01*
X126182970Y-101887244D01*
X126034914Y-101990146D01*
X126034914Y-101591400D01*
X125998033Y-101405988D01*
X125890064Y-101244400D01*
X125998033Y-101082812D01*
X126034914Y-100897400D01*
X126034914Y-100321400D01*
X125998033Y-100135988D01*
X125890064Y-99974400D01*
X125998033Y-99812812D01*
X126034914Y-99627400D01*
X126034914Y-99051400D01*
X125998033Y-98865988D01*
X125890064Y-98704400D01*
X125998033Y-98542812D01*
X126034914Y-98357400D01*
X126034914Y-97781400D01*
X125998033Y-97595988D01*
X125885977Y-97428283D01*
X125718272Y-97316227D01*
X125532860Y-97279346D01*
X124517563Y-97279346D01*
X123694777Y-96456561D01*
X123697216Y-96281893D01*
X123653543Y-96061330D01*
X123568199Y-95854272D01*
X123444263Y-95667735D01*
X123286457Y-95508821D01*
X123100788Y-95383587D01*
X123082739Y-95376000D01*
X128713393Y-95376000D01*
X128928480Y-95591087D01*
G36*
X133346423Y-102520517D02*
G01*
X133514128Y-102632573D01*
X133699540Y-102669454D01*
X135154380Y-102669454D01*
X135339792Y-102632573D01*
X135446500Y-102561273D01*
X135446500Y-103491877D01*
X135283372Y-103655005D01*
X135154380Y-103629346D01*
X133699540Y-103629346D01*
X133553475Y-103658400D01*
X132629198Y-103658400D01*
X132629192Y-103658401D01*
X132569069Y-103658401D01*
X132511406Y-103677137D01*
X132451507Y-103686624D01*
X132397473Y-103714155D01*
X132339806Y-103732893D01*
X132290749Y-103768535D01*
X132236720Y-103796064D01*
X132202974Y-103829810D01*
X132144163Y-103833510D01*
X131897970Y-103919244D01*
X131683903Y-104068025D01*
X131517731Y-104268892D01*
X131411698Y-104507047D01*
X131373615Y-104764942D01*
X131406289Y-105023580D01*
X131474812Y-105186591D01*
X131456664Y-105204739D01*
X131429138Y-105258762D01*
X131393492Y-105307823D01*
X131374752Y-105365497D01*
X131347224Y-105419525D01*
X131337736Y-105479426D01*
X131319001Y-105537088D01*
X131319001Y-105597210D01*
X131319000Y-105597216D01*
X131319001Y-108540569D01*
X131175903Y-108640025D01*
X131063000Y-108776501D01*
X131063000Y-103513610D01*
X132063210Y-102513400D01*
X133341668Y-102513400D01*
X133346423Y-102520517D01*
G37*
X133346423Y-102520517D02*
X133514128Y-102632573D01*
X133699540Y-102669454D01*
X135154380Y-102669454D01*
X135339792Y-102632573D01*
X135446500Y-102561273D01*
X135446500Y-103491877D01*
X135283372Y-103655005D01*
X135154380Y-103629346D01*
X133699540Y-103629346D01*
X133553475Y-103658400D01*
X132629198Y-103658400D01*
X132629192Y-103658401D01*
X132569069Y-103658401D01*
X132511406Y-103677137D01*
X132451507Y-103686624D01*
X132397473Y-103714155D01*
X132339806Y-103732893D01*
X132290749Y-103768535D01*
X132236720Y-103796064D01*
X132202974Y-103829810D01*
X132144163Y-103833510D01*
X131897970Y-103919244D01*
X131683903Y-104068025D01*
X131517731Y-104268892D01*
X131411698Y-104507047D01*
X131373615Y-104764942D01*
X131406289Y-105023580D01*
X131474812Y-105186591D01*
X131456664Y-105204739D01*
X131429138Y-105258762D01*
X131393492Y-105307823D01*
X131374752Y-105365497D01*
X131347224Y-105419525D01*
X131337736Y-105479426D01*
X131319001Y-105537088D01*
X131319001Y-105597210D01*
X131319000Y-105597216D01*
X131319001Y-108540569D01*
X131175903Y-108640025D01*
X131063000Y-108776501D01*
X131063000Y-103513610D01*
X132063210Y-102513400D01*
X133341668Y-102513400D01*
X133346423Y-102520517D01*
G36*
X138197193Y-106552000D02*
G01*
X139828000Y-106552000D01*
X139828000Y-106808000D01*
X138202668Y-106808000D01*
X138290096Y-107159970D01*
X138391123Y-107390662D01*
X138525868Y-107595400D01*
X136956596Y-107595400D01*
X137017945Y-107578962D01*
X137100785Y-107564355D01*
X137125316Y-107550192D01*
X137152672Y-107542861D01*
X137221559Y-107494626D01*
X137294413Y-107452564D01*
X137348480Y-107388130D01*
X138201865Y-106534745D01*
X138197193Y-106552000D01*
G37*
X138197193Y-106552000D02*
X139828000Y-106552000D01*
X139828000Y-106808000D01*
X138202668Y-106808000D01*
X138290096Y-107159970D01*
X138391123Y-107390662D01*
X138525868Y-107595400D01*
X136956596Y-107595400D01*
X137017945Y-107578962D01*
X137100785Y-107564355D01*
X137125316Y-107550192D01*
X137152672Y-107542861D01*
X137221559Y-107494626D01*
X137294413Y-107452564D01*
X137348480Y-107388130D01*
X138201865Y-106534745D01*
X138197193Y-106552000D01*
G36*
X161164000Y-102092925D02*
G01*
X161128417Y-102146179D01*
X161091536Y-102331590D01*
X161091536Y-103956410D01*
X161128417Y-104141821D01*
X161164000Y-104195075D01*
X161164000Y-104592925D01*
X161128417Y-104646179D01*
X161091536Y-104831590D01*
X161091536Y-105976875D01*
X161031987Y-105887753D01*
X160864282Y-105775697D01*
X160678870Y-105738816D01*
X160285980Y-105738816D01*
X160212419Y-105721766D01*
X159971596Y-105738816D01*
X159653290Y-105738816D01*
X159467878Y-105775697D01*
X159348444Y-105855500D01*
X159067644Y-105855500D01*
X159067644Y-105288370D01*
X159030763Y-105102958D01*
X158918707Y-104935253D01*
X158877300Y-104907586D01*
X158877300Y-104277752D01*
X158886193Y-104202610D01*
X158866254Y-104093429D01*
X158849745Y-103983628D01*
X158844024Y-103971714D01*
X158840735Y-103953705D01*
X158817446Y-103916365D01*
X158742424Y-103760131D01*
X158701464Y-103715821D01*
X158701464Y-103550590D01*
X158664583Y-103365178D01*
X158552527Y-103197473D01*
X158384822Y-103085417D01*
X158381857Y-103084827D01*
X158406583Y-103047822D01*
X158415062Y-103005197D01*
X158597890Y-103041564D01*
X160426110Y-103041564D01*
X160611522Y-103004683D01*
X160779227Y-102892627D01*
X160891283Y-102724922D01*
X160928164Y-102539510D01*
X160928164Y-101789500D01*
X161164000Y-101789500D01*
X161164000Y-102092925D01*
G37*
X161164000Y-102092925D02*
X161128417Y-102146179D01*
X161091536Y-102331590D01*
X161091536Y-103956410D01*
X161128417Y-104141821D01*
X161164000Y-104195075D01*
X161164000Y-104592925D01*
X161128417Y-104646179D01*
X161091536Y-104831590D01*
X161091536Y-105976875D01*
X161031987Y-105887753D01*
X160864282Y-105775697D01*
X160678870Y-105738816D01*
X160285980Y-105738816D01*
X160212419Y-105721766D01*
X159971596Y-105738816D01*
X159653290Y-105738816D01*
X159467878Y-105775697D01*
X159348444Y-105855500D01*
X159067644Y-105855500D01*
X159067644Y-105288370D01*
X159030763Y-105102958D01*
X158918707Y-104935253D01*
X158877300Y-104907586D01*
X158877300Y-104277752D01*
X158886193Y-104202610D01*
X158866254Y-104093429D01*
X158849745Y-103983628D01*
X158844024Y-103971714D01*
X158840735Y-103953705D01*
X158817446Y-103916365D01*
X158742424Y-103760131D01*
X158701464Y-103715821D01*
X158701464Y-103550590D01*
X158664583Y-103365178D01*
X158552527Y-103197473D01*
X158384822Y-103085417D01*
X158381857Y-103084827D01*
X158406583Y-103047822D01*
X158415062Y-103005197D01*
X158597890Y-103041564D01*
X160426110Y-103041564D01*
X160611522Y-103004683D01*
X160779227Y-102892627D01*
X160891283Y-102724922D01*
X160928164Y-102539510D01*
X160928164Y-101789500D01*
X161164000Y-101789500D01*
X161164000Y-102092925D01*
G36*
X161164000Y-99592925D02*
G01*
X161128417Y-99646179D01*
X161091536Y-99831590D01*
X161091536Y-100140500D01*
X160716559Y-100140500D01*
X160779227Y-100098627D01*
X160891283Y-99930922D01*
X160928164Y-99745510D01*
X160928164Y-98120490D01*
X160891283Y-97935078D01*
X160779227Y-97767373D01*
X160611522Y-97655317D01*
X160463500Y-97625873D01*
X160463500Y-96454750D01*
X160463089Y-96451751D01*
X160463733Y-96390302D01*
X160445943Y-96326588D01*
X160437058Y-96261720D01*
X160411055Y-96201630D01*
X160393446Y-96138565D01*
X160359530Y-96082562D01*
X160333524Y-96022467D01*
X160292319Y-95971584D01*
X160258399Y-95915577D01*
X160210672Y-95870758D01*
X160169465Y-95819871D01*
X160116094Y-95781943D01*
X160068364Y-95737121D01*
X160010338Y-95706786D01*
X159956966Y-95668856D01*
X159895361Y-95646678D01*
X159837337Y-95616343D01*
X159773288Y-95602728D01*
X159711685Y-95580550D01*
X159646381Y-95575755D01*
X159582342Y-95562142D01*
X159517001Y-95566253D01*
X159451694Y-95561457D01*
X159387509Y-95574399D01*
X159322162Y-95578510D01*
X159260330Y-95600043D01*
X159196144Y-95612985D01*
X159137800Y-95642713D01*
X159075970Y-95664244D01*
X159022205Y-95701612D01*
X158963866Y-95731337D01*
X158915665Y-95775659D01*
X158861903Y-95813025D01*
X158820172Y-95863469D01*
X158771969Y-95907794D01*
X158737465Y-95963445D01*
X158695731Y-96013892D01*
X158669101Y-96073706D01*
X158632104Y-96133375D01*
X158622575Y-96178202D01*
X158589698Y-96252047D01*
X158551615Y-96509942D01*
X158560500Y-96580269D01*
X158560501Y-97625873D01*
X158419464Y-97653927D01*
X158419464Y-97162590D01*
X158382583Y-96977178D01*
X158270527Y-96809473D01*
X158102822Y-96697417D01*
X157917410Y-96660536D01*
X156692590Y-96660536D01*
X156507178Y-96697417D01*
X156339473Y-96809473D01*
X156227417Y-96977178D01*
X156190536Y-97162590D01*
X156190536Y-99687410D01*
X156227417Y-99872822D01*
X156332746Y-100030459D01*
X156251417Y-100152178D01*
X156214536Y-100337590D01*
X156214536Y-102862410D01*
X156251417Y-103047822D01*
X156251894Y-103048536D01*
X155772590Y-103048536D01*
X155587178Y-103085417D01*
X155419473Y-103197473D01*
X155335000Y-103323897D01*
X155250527Y-103197473D01*
X155082822Y-103085417D01*
X154897410Y-103048536D01*
X154172590Y-103048536D01*
X153987178Y-103085417D01*
X153819473Y-103197473D01*
X153707417Y-103365178D01*
X153679406Y-103506000D01*
X147855664Y-103506000D01*
X147771890Y-103498671D01*
X147690651Y-103520439D01*
X147607816Y-103535045D01*
X147583285Y-103549208D01*
X147555925Y-103556539D01*
X147487036Y-103604776D01*
X147414186Y-103646837D01*
X147360120Y-103711270D01*
X147255500Y-103815890D01*
X147255500Y-102195518D01*
X147775554Y-101675464D01*
X147948410Y-101675464D01*
X148133822Y-101638583D01*
X148301527Y-101526527D01*
X148413583Y-101358822D01*
X148450464Y-101173410D01*
X148450464Y-100248590D01*
X148413584Y-100063179D01*
X148410500Y-100058563D01*
X148410500Y-99860601D01*
X148420473Y-99875527D01*
X148588178Y-99987583D01*
X148773590Y-100024464D01*
X149498410Y-100024464D01*
X149683822Y-99987583D01*
X149851527Y-99875527D01*
X149963584Y-99707821D01*
X149973658Y-99657177D01*
X149984716Y-99650792D01*
X150012072Y-99643461D01*
X150080959Y-99595226D01*
X150153813Y-99553164D01*
X150165536Y-99539193D01*
X150165536Y-99968410D01*
X150202417Y-100153822D01*
X150294409Y-100291500D01*
X150202417Y-100429178D01*
X150165536Y-100614590D01*
X150165536Y-101339410D01*
X150202417Y-101524822D01*
X150314473Y-101692527D01*
X150482178Y-101804583D01*
X150667590Y-101841464D01*
X151592410Y-101841464D01*
X151777822Y-101804583D01*
X151945527Y-101692527D01*
X152057583Y-101524822D01*
X152094464Y-101339410D01*
X152094464Y-101269908D01*
X152323266Y-101289121D01*
X152579340Y-101240272D01*
X152812846Y-101124359D01*
X153006578Y-100949922D01*
X153146265Y-100729812D01*
X153221807Y-100479602D01*
X153224733Y-100200302D01*
X153154446Y-99948564D01*
X153019400Y-99725577D01*
X152829363Y-99547121D01*
X152598337Y-99426343D01*
X152343341Y-99372142D01*
X152173551Y-99382824D01*
X152232959Y-99341226D01*
X152305813Y-99299164D01*
X152359880Y-99234730D01*
X152828732Y-98765878D01*
X152893163Y-98711814D01*
X152935224Y-98638964D01*
X152983461Y-98570075D01*
X152990792Y-98542715D01*
X153004955Y-98518184D01*
X153019561Y-98435349D01*
X153041329Y-98354110D01*
X153034000Y-98270336D01*
X153034000Y-95385611D01*
X153297612Y-95122000D01*
X154658331Y-95122000D01*
X154742108Y-95129329D01*
X154823345Y-95107562D01*
X154906185Y-95092955D01*
X154930716Y-95078792D01*
X154958072Y-95071461D01*
X155026959Y-95023226D01*
X155099813Y-94981164D01*
X155153880Y-94916730D01*
X156599611Y-93471000D01*
X161164000Y-93471000D01*
X161164000Y-99592925D01*
G37*
X161164000Y-99592925D02*
X161128417Y-99646179D01*
X161091536Y-99831590D01*
X161091536Y-100140500D01*
X160716559Y-100140500D01*
X160779227Y-100098627D01*
X160891283Y-99930922D01*
X160928164Y-99745510D01*
X160928164Y-98120490D01*
X160891283Y-97935078D01*
X160779227Y-97767373D01*
X160611522Y-97655317D01*
X160463500Y-97625873D01*
X160463500Y-96454750D01*
X160463089Y-96451751D01*
X160463733Y-96390302D01*
X160445943Y-96326588D01*
X160437058Y-96261720D01*
X160411055Y-96201630D01*
X160393446Y-96138565D01*
X160359530Y-96082562D01*
X160333524Y-96022467D01*
X160292319Y-95971584D01*
X160258399Y-95915577D01*
X160210672Y-95870758D01*
X160169465Y-95819871D01*
X160116094Y-95781943D01*
X160068364Y-95737121D01*
X160010338Y-95706786D01*
X159956966Y-95668856D01*
X159895361Y-95646678D01*
X159837337Y-95616343D01*
X159773288Y-95602728D01*
X159711685Y-95580550D01*
X159646381Y-95575755D01*
X159582342Y-95562142D01*
X159517001Y-95566253D01*
X159451694Y-95561457D01*
X159387509Y-95574399D01*
X159322162Y-95578510D01*
X159260330Y-95600043D01*
X159196144Y-95612985D01*
X159137800Y-95642713D01*
X159075970Y-95664244D01*
X159022205Y-95701612D01*
X158963866Y-95731337D01*
X158915665Y-95775659D01*
X158861903Y-95813025D01*
X158820172Y-95863469D01*
X158771969Y-95907794D01*
X158737465Y-95963445D01*
X158695731Y-96013892D01*
X158669101Y-96073706D01*
X158632104Y-96133375D01*
X158622575Y-96178202D01*
X158589698Y-96252047D01*
X158551615Y-96509942D01*
X158560500Y-96580269D01*
X158560501Y-97625873D01*
X158419464Y-97653927D01*
X158419464Y-97162590D01*
X158382583Y-96977178D01*
X158270527Y-96809473D01*
X158102822Y-96697417D01*
X157917410Y-96660536D01*
X156692590Y-96660536D01*
X156507178Y-96697417D01*
X156339473Y-96809473D01*
X156227417Y-96977178D01*
X156190536Y-97162590D01*
X156190536Y-99687410D01*
X156227417Y-99872822D01*
X156332746Y-100030459D01*
X156251417Y-100152178D01*
X156214536Y-100337590D01*
X156214536Y-102862410D01*
X156251417Y-103047822D01*
X156251894Y-103048536D01*
X155772590Y-103048536D01*
X155587178Y-103085417D01*
X155419473Y-103197473D01*
X155335000Y-103323897D01*
X155250527Y-103197473D01*
X155082822Y-103085417D01*
X154897410Y-103048536D01*
X154172590Y-103048536D01*
X153987178Y-103085417D01*
X153819473Y-103197473D01*
X153707417Y-103365178D01*
X153679406Y-103506000D01*
X147855664Y-103506000D01*
X147771890Y-103498671D01*
X147690651Y-103520439D01*
X147607816Y-103535045D01*
X147583285Y-103549208D01*
X147555925Y-103556539D01*
X147487036Y-103604776D01*
X147414186Y-103646837D01*
X147360120Y-103711270D01*
X147255500Y-103815890D01*
X147255500Y-102195518D01*
X147775554Y-101675464D01*
X147948410Y-101675464D01*
X148133822Y-101638583D01*
X148301527Y-101526527D01*
X148413583Y-101358822D01*
X148450464Y-101173410D01*
X148450464Y-100248590D01*
X148413584Y-100063179D01*
X148410500Y-100058563D01*
X148410500Y-99860601D01*
X148420473Y-99875527D01*
X148588178Y-99987583D01*
X148773590Y-100024464D01*
X149498410Y-100024464D01*
X149683822Y-99987583D01*
X149851527Y-99875527D01*
X149963584Y-99707821D01*
X149973658Y-99657177D01*
X149984716Y-99650792D01*
X150012072Y-99643461D01*
X150080959Y-99595226D01*
X150153813Y-99553164D01*
X150165536Y-99539193D01*
X150165536Y-99968410D01*
X150202417Y-100153822D01*
X150294409Y-100291500D01*
X150202417Y-100429178D01*
X150165536Y-100614590D01*
X150165536Y-101339410D01*
X150202417Y-101524822D01*
X150314473Y-101692527D01*
X150482178Y-101804583D01*
X150667590Y-101841464D01*
X151592410Y-101841464D01*
X151777822Y-101804583D01*
X151945527Y-101692527D01*
X152057583Y-101524822D01*
X152094464Y-101339410D01*
X152094464Y-101269908D01*
X152323266Y-101289121D01*
X152579340Y-101240272D01*
X152812846Y-101124359D01*
X153006578Y-100949922D01*
X153146265Y-100729812D01*
X153221807Y-100479602D01*
X153224733Y-100200302D01*
X153154446Y-99948564D01*
X153019400Y-99725577D01*
X152829363Y-99547121D01*
X152598337Y-99426343D01*
X152343341Y-99372142D01*
X152173551Y-99382824D01*
X152232959Y-99341226D01*
X152305813Y-99299164D01*
X152359880Y-99234730D01*
X152828732Y-98765878D01*
X152893163Y-98711814D01*
X152935224Y-98638964D01*
X152983461Y-98570075D01*
X152990792Y-98542715D01*
X153004955Y-98518184D01*
X153019561Y-98435349D01*
X153041329Y-98354110D01*
X153034000Y-98270336D01*
X153034000Y-95385611D01*
X153297612Y-95122000D01*
X154658331Y-95122000D01*
X154742108Y-95129329D01*
X154823345Y-95107562D01*
X154906185Y-95092955D01*
X154930716Y-95078792D01*
X154958072Y-95071461D01*
X155026959Y-95023226D01*
X155099813Y-94981164D01*
X155153880Y-94916730D01*
X156599611Y-93471000D01*
X161164000Y-93471000D01*
X161164000Y-99592925D01*
G36*
X133842872Y-90676695D02*
G01*
X134028746Y-90811741D01*
X134256803Y-90885842D01*
X134496599Y-90885842D01*
X134724656Y-90811741D01*
X134910530Y-90676695D01*
X135037225Y-90550000D01*
X141479000Y-90550000D01*
X141479000Y-94054810D01*
X141258634Y-94275176D01*
X141212179Y-94284416D01*
X141044473Y-94396473D01*
X140932416Y-94564179D01*
X140923176Y-94610634D01*
X140790810Y-94743000D01*
X139600986Y-94743000D01*
X139632807Y-94637602D01*
X139635733Y-94358302D01*
X139565446Y-94106564D01*
X139430400Y-93883577D01*
X139240363Y-93705121D01*
X139009337Y-93584343D01*
X138754341Y-93530142D01*
X138494163Y-93546510D01*
X138247970Y-93632244D01*
X138033903Y-93781025D01*
X137973533Y-93854000D01*
X133631668Y-93854000D01*
X133547891Y-93846671D01*
X133466657Y-93868437D01*
X133383814Y-93883045D01*
X133359283Y-93897208D01*
X133331927Y-93904538D01*
X133263025Y-93952784D01*
X133190187Y-93994836D01*
X133136120Y-94059270D01*
X132452390Y-94743000D01*
X122935000Y-94743000D01*
X122935000Y-92901500D01*
X123203163Y-92901500D01*
X123203163Y-93976588D01*
X123283795Y-94277512D01*
X123431185Y-94453165D01*
X123624814Y-94564956D01*
X123833976Y-94601837D01*
X124903500Y-94601837D01*
X124903500Y-92901500D01*
X125286500Y-92901500D01*
X125286500Y-94601837D01*
X126361588Y-94601837D01*
X126662512Y-94521205D01*
X126838165Y-94373815D01*
X126949956Y-94180186D01*
X126986837Y-93971024D01*
X126986837Y-92901500D01*
X125286500Y-92901500D01*
X124903500Y-92901500D01*
X123203163Y-92901500D01*
X122935000Y-92901500D01*
X122935000Y-91448976D01*
X123203163Y-91448976D01*
X123203163Y-92518500D01*
X124903500Y-92518500D01*
X124903500Y-90818163D01*
X125286500Y-90818163D01*
X125286500Y-92518500D01*
X126986837Y-92518500D01*
X126986837Y-91443412D01*
X126906205Y-91142489D01*
X126758815Y-90966835D01*
X126565186Y-90855044D01*
X126356024Y-90818163D01*
X125286500Y-90818163D01*
X124903500Y-90818163D01*
X123828412Y-90818163D01*
X123527489Y-90898795D01*
X123351835Y-91046185D01*
X123240044Y-91239814D01*
X123203163Y-91448976D01*
X122935000Y-91448976D01*
X122935000Y-90550000D01*
X133716177Y-90550000D01*
X133842872Y-90676695D01*
G37*
X133842872Y-90676695D02*
X134028746Y-90811741D01*
X134256803Y-90885842D01*
X134496599Y-90885842D01*
X134724656Y-90811741D01*
X134910530Y-90676695D01*
X135037225Y-90550000D01*
X141479000Y-90550000D01*
X141479000Y-94054810D01*
X141258634Y-94275176D01*
X141212179Y-94284416D01*
X141044473Y-94396473D01*
X140932416Y-94564179D01*
X140923176Y-94610634D01*
X140790810Y-94743000D01*
X139600986Y-94743000D01*
X139632807Y-94637602D01*
X139635733Y-94358302D01*
X139565446Y-94106564D01*
X139430400Y-93883577D01*
X139240363Y-93705121D01*
X139009337Y-93584343D01*
X138754341Y-93530142D01*
X138494163Y-93546510D01*
X138247970Y-93632244D01*
X138033903Y-93781025D01*
X137973533Y-93854000D01*
X133631668Y-93854000D01*
X133547891Y-93846671D01*
X133466657Y-93868437D01*
X133383814Y-93883045D01*
X133359283Y-93897208D01*
X133331927Y-93904538D01*
X133263025Y-93952784D01*
X133190187Y-93994836D01*
X133136120Y-94059270D01*
X132452390Y-94743000D01*
X122935000Y-94743000D01*
X122935000Y-92901500D01*
X123203163Y-92901500D01*
X123203163Y-93976588D01*
X123283795Y-94277512D01*
X123431185Y-94453165D01*
X123624814Y-94564956D01*
X123833976Y-94601837D01*
X124903500Y-94601837D01*
X124903500Y-92901500D01*
X125286500Y-92901500D01*
X125286500Y-94601837D01*
X126361588Y-94601837D01*
X126662512Y-94521205D01*
X126838165Y-94373815D01*
X126949956Y-94180186D01*
X126986837Y-93971024D01*
X126986837Y-92901500D01*
X125286500Y-92901500D01*
X124903500Y-92901500D01*
X123203163Y-92901500D01*
X122935000Y-92901500D01*
X122935000Y-91448976D01*
X123203163Y-91448976D01*
X123203163Y-92518500D01*
X124903500Y-92518500D01*
X124903500Y-90818163D01*
X125286500Y-90818163D01*
X125286500Y-92518500D01*
X126986837Y-92518500D01*
X126986837Y-91443412D01*
X126906205Y-91142489D01*
X126758815Y-90966835D01*
X126565186Y-90855044D01*
X126356024Y-90818163D01*
X125286500Y-90818163D01*
X124903500Y-90818163D01*
X123828412Y-90818163D01*
X123527489Y-90898795D01*
X123351835Y-91046185D01*
X123240044Y-91239814D01*
X123203163Y-91448976D01*
X122935000Y-91448976D01*
X122935000Y-90550000D01*
X133716177Y-90550000D01*
X133842872Y-90676695D01*
G36*
X201804000Y-110288190D02*
G01*
X201804000Y-113231810D01*
X201242810Y-113793000D01*
X199845809Y-113793000D01*
X197305810Y-116333000D01*
X193847618Y-116333000D01*
X193166000Y-115764985D01*
X193166000Y-108405809D01*
X190679191Y-105919000D01*
X186181000Y-105919000D01*
X186181000Y-102869000D01*
X194384810Y-102869000D01*
X201804000Y-110288190D01*
G37*
X201804000Y-110288190D02*
X201804000Y-113231810D01*
X201242810Y-113793000D01*
X199845809Y-113793000D01*
X197305810Y-116333000D01*
X193847618Y-116333000D01*
X193166000Y-115764985D01*
X193166000Y-108405809D01*
X190679191Y-105919000D01*
X186181000Y-105919000D01*
X186181000Y-102869000D01*
X194384810Y-102869000D01*
X201804000Y-110288190D01*
G36*
X198629000Y-90217343D02*
G01*
X198629000Y-95683191D01*
X203709000Y-100763190D01*
X203709000Y-103452810D01*
X203274810Y-103887000D01*
X201156690Y-103887000D01*
X197473691Y-100204000D01*
X186181000Y-100204000D01*
X186181000Y-94540190D01*
X187123190Y-93598000D01*
X192912000Y-93598000D01*
X192912000Y-90217343D01*
X193732176Y-89280000D01*
X197808824Y-89280000D01*
X198629000Y-90217343D01*
G37*
X198629000Y-90217343D02*
X198629000Y-95683191D01*
X203709000Y-100763190D01*
X203709000Y-103452810D01*
X203274810Y-103887000D01*
X201156690Y-103887000D01*
X197473691Y-100204000D01*
X186181000Y-100204000D01*
X186181000Y-94540190D01*
X187123190Y-93598000D01*
X192912000Y-93598000D01*
X192912000Y-90217343D01*
X193732176Y-89280000D01*
X197808824Y-89280000D01*
X198629000Y-90217343D01*
M02*
