G04 #@! TF.GenerationSoftware,KiCad,Pcbnew,(5.99.0-273-g43768b71c)*
G04 #@! TF.CreationDate,2019-11-20T15:23:38-05:00*
G04 #@! TF.ProjectId,Plasma_Pilot3,506c6173-6d61-45f5-9069-6c6f74332e6b,rev?*
G04 #@! TF.SameCoordinates,Original*
G04 #@! TF.FileFunction,Soldermask,Top*
G04 #@! TF.FilePolarity,Negative*
%FSLAX46Y46*%
G04 Gerber Fmt 4.6, Leading zero omitted, Abs format (unit mm)*
G04 Created by KiCad (PCBNEW (5.99.0-273-g43768b71c)) date 2019-11-20 15:23:38*
%MOMM*%
%LPD*%
G04 APERTURE LIST*
%ADD10C,2.940000*%
%ADD11C,4.464000*%
%ADD12R,1.100000X1.300000*%
%ADD13C,5.480000*%
%ADD14R,1.400760X0.999440*%
%ADD15R,1.830020X0.951180*%
%ADD16R,3.200000X2.000000*%
%ADD17C,1.670000*%
%ADD18R,1.300000X1.100000*%
%ADD19C,2.900000*%
%ADD20O,4.900000X2.900000*%
%ADD21R,4.900000X2.900000*%
%ADD22C,2.400000*%
%ADD23R,3.650000X2.550000*%
%ADD24R,1.350000X2.550000*%
%ADD25R,1.400000X1.900000*%
%ADD26R,1.900000X1.400000*%
%ADD27O,2.100000X2.100000*%
%ADD28R,2.100000X2.100000*%
%ADD29R,1.600000X2.900000*%
%ADD30R,0.999440X1.400760*%
%ADD31C,3.000000*%
%ADD32R,3.000000X3.000000*%
%ADD33R,2.000200X2.203400*%
%ADD34R,2.203400X2.000200*%
%ADD35R,1.500000X1.500000*%
%ADD36R,2.900000X2.900000*%
G04 APERTURE END LIST*
D10*
X171450000Y-92710000D03*
D11*
X195580000Y-91567000D03*
X195580000Y-114173000D03*
D12*
X149086000Y-100711000D03*
X147586000Y-100711000D03*
D13*
X124460000Y-117475000D03*
X177800000Y-117475000D03*
X177800000Y-89535000D03*
D14*
X142534640Y-113855500D03*
X140421360Y-114808000D03*
X142534640Y-115760500D03*
D12*
X131965000Y-112903000D03*
X133465000Y-112903000D03*
D15*
X134426960Y-109499400D03*
X134426960Y-108229400D03*
X134426960Y-106959400D03*
X134426960Y-105689400D03*
X134426960Y-104419400D03*
X134426960Y-103149400D03*
X134426960Y-101879400D03*
X134426960Y-100609400D03*
X134426960Y-99339400D03*
X134426960Y-98069400D03*
X124805440Y-98069400D03*
X124805440Y-99339400D03*
X124805440Y-100609400D03*
X124805440Y-101879400D03*
X124805440Y-103149400D03*
X124805440Y-104419400D03*
X124805440Y-105689400D03*
X124805440Y-106959400D03*
X124805440Y-108229400D03*
X124805440Y-109499400D03*
D16*
X163006000Y-108144000D03*
X163006000Y-105644000D03*
X163006000Y-103144000D03*
X163006000Y-100644000D03*
X174306000Y-100644000D03*
X174306000Y-103144000D03*
X174306000Y-105644000D03*
X174306000Y-108144000D03*
D17*
X122555000Y-96393000D03*
X122555000Y-98933000D03*
X122555000Y-101854000D03*
X122555000Y-104648000D03*
D12*
X136614000Y-98298000D03*
X138214000Y-98298000D03*
D18*
X151130000Y-102477000D03*
X151130000Y-100977000D03*
D19*
X202141000Y-101680000D03*
X199941000Y-111680000D03*
D20*
X188569600Y-98817000D03*
X188569600Y-104267000D03*
D21*
X188569600Y-109717000D03*
D22*
X195580000Y-96981000D03*
X195580000Y-106981000D03*
D23*
X143002000Y-86529000D03*
D24*
X145302000Y-92329000D03*
X143002000Y-92329000D03*
X140702000Y-92329000D03*
D22*
X130175000Y-119888000D03*
X188595000Y-94615000D03*
X188595000Y-113792000D03*
D25*
X167198000Y-92710000D03*
X169098000Y-92710000D03*
D26*
X181229000Y-100523000D03*
X181229000Y-102423000D03*
D25*
X179390000Y-108331000D03*
X181290000Y-108331000D03*
D14*
X158052800Y-105600500D03*
X160166080Y-106553000D03*
X158052800Y-107505500D03*
X154391360Y-105600500D03*
X156504640Y-106553000D03*
X154391360Y-107505500D03*
X143301720Y-110553500D03*
X145415000Y-111506000D03*
X143301720Y-112458500D03*
D27*
X139700000Y-106680000D03*
X139700000Y-104140000D03*
X142240000Y-106680000D03*
X142240000Y-104140000D03*
X144780000Y-106680000D03*
D28*
X144780000Y-104140000D03*
D14*
X150916640Y-110553500D03*
X148803360Y-109601000D03*
X150916640Y-108648500D03*
X150916640Y-106743500D03*
X148803360Y-105791000D03*
X150916640Y-104838500D03*
D26*
X181229000Y-104460000D03*
X181229000Y-106360000D03*
D29*
X142010000Y-96012000D03*
X145010000Y-96012000D03*
D25*
X158181000Y-109347000D03*
X160081000Y-109347000D03*
D29*
X154305000Y-98425000D03*
X157305000Y-98425000D03*
X154329000Y-101600000D03*
X157329000Y-101600000D03*
D30*
X147510500Y-94955360D03*
X149415500Y-94955360D03*
X148463000Y-97068640D03*
X149415500Y-97068640D03*
X147510500Y-97068640D03*
X134429500Y-116626640D03*
X132524500Y-116626640D03*
X133477000Y-114513360D03*
X132524500Y-114513360D03*
X134429500Y-114513360D03*
D31*
X161290000Y-88900000D03*
X156210000Y-88900000D03*
D32*
X151130000Y-88900000D03*
D31*
X170688000Y-118364000D03*
X165608000Y-118364000D03*
D32*
X160528000Y-118364000D03*
D12*
X129705000Y-113157000D03*
X128105000Y-113157000D03*
D18*
X136271000Y-115496140D03*
X136271000Y-113896140D03*
X136271000Y-118529000D03*
X136271000Y-116929000D03*
D33*
X133211570Y-120777000D03*
X136005570Y-120777000D03*
D34*
X159512000Y-98933000D03*
X159512000Y-101727000D03*
D12*
X149136000Y-99060000D03*
X147536000Y-99060000D03*
D18*
X165227000Y-92291000D03*
X165227000Y-93891000D03*
X138684000Y-114008000D03*
X138684000Y-115608000D03*
X144272000Y-116116000D03*
X144272000Y-114516000D03*
D12*
X157837000Y-104013000D03*
X159437000Y-104013000D03*
D18*
X141351000Y-112268000D03*
X141351000Y-110668000D03*
D12*
X154535000Y-104013000D03*
X156135000Y-104013000D03*
D18*
X151130000Y-98006000D03*
X151130000Y-99606000D03*
X151066500Y-94958000D03*
X151066500Y-96558000D03*
D12*
X153962000Y-93345000D03*
X152362000Y-93345000D03*
D18*
X152400000Y-113919000D03*
X152400000Y-112319000D03*
D26*
X148590000Y-114361000D03*
X148590000Y-112461000D03*
X156210000Y-114361000D03*
X156210000Y-112461000D03*
D18*
X158369000Y-113995000D03*
X158369000Y-112395000D03*
D12*
X160490000Y-115443000D03*
X162090000Y-115443000D03*
X170726000Y-115570000D03*
X169126000Y-115570000D03*
D35*
X180721000Y-110744000D03*
X177921000Y-110744000D03*
D12*
X129655000Y-111506000D03*
X128155000Y-111506000D03*
X134608000Y-118491000D03*
X133108000Y-118491000D03*
G36*
X136063865Y-86067005D02*
G01*
X136181683Y-86139956D01*
X137380044Y-87338317D01*
X137442897Y-87430070D01*
X137468360Y-87538332D01*
X137452995Y-87648483D01*
X137380044Y-87766301D01*
X134590693Y-90555652D01*
X134498940Y-90618505D01*
X134390678Y-90643968D01*
X134280527Y-90628603D01*
X134162709Y-90555652D01*
X132964348Y-89357291D01*
X132901495Y-89265538D01*
X132876032Y-89157276D01*
X132891397Y-89047125D01*
X132964348Y-88929307D01*
X135753699Y-86139956D01*
X135845452Y-86077103D01*
X135953714Y-86051640D01*
X136063865Y-86067005D01*
G37*
G36*
X131149473Y-90981397D02*
G01*
X131267291Y-91054348D01*
X132465652Y-92252709D01*
X132528505Y-92344462D01*
X132553968Y-92452724D01*
X132538603Y-92562875D01*
X132465652Y-92680693D01*
X129676301Y-95470044D01*
X129584548Y-95532897D01*
X129476286Y-95558360D01*
X129366135Y-95542995D01*
X129248317Y-95470044D01*
X128049956Y-94271683D01*
X127987103Y-94179930D01*
X127961640Y-94071668D01*
X127977005Y-93961517D01*
X128049956Y-93843699D01*
X130839307Y-91054348D01*
X130931060Y-90991495D01*
X131039322Y-90966032D01*
X131149473Y-90981397D01*
G37*
D18*
X150622000Y-113907000D03*
X150622000Y-112407000D03*
X154178000Y-113895000D03*
X154178000Y-112395000D03*
X146177000Y-113677000D03*
X146177000Y-115177000D03*
D36*
X155448000Y-118364000D03*
D19*
X150368000Y-118364000D03*
D36*
X125095000Y-92710000D03*
D19*
X125095000Y-87630000D03*
D36*
X145288000Y-118364000D03*
D19*
X140208000Y-118364000D03*
D36*
X178435000Y-105664000D03*
D19*
X178435000Y-100584000D03*
D36*
X171450000Y-88900000D03*
D19*
X166370000Y-88900000D03*
M02*
