G04 #@! TF.GenerationSoftware,KiCad,Pcbnew,(5.99.0-273-g43768b71c)*
G04 #@! TF.CreationDate,2019-11-20T15:23:38-05:00*
G04 #@! TF.ProjectId,Plasma_Pilot3,506c6173-6d61-45f5-9069-6c6f74332e6b,rev?*
G04 #@! TF.SameCoordinates,Original*
G04 #@! TF.FileFunction,Soldermask,Bot*
G04 #@! TF.FilePolarity,Negative*
%FSLAX46Y46*%
G04 Gerber Fmt 4.6, Leading zero omitted, Abs format (unit mm)*
G04 Created by KiCad (PCBNEW (5.99.0-273-g43768b71c)) date 2019-11-20 15:23:38*
%MOMM*%
%LPD*%
G04 APERTURE LIST*
%ADD10C,2.940000*%
%ADD11C,4.464000*%
%ADD12C,5.480000*%
%ADD13C,1.670000*%
%ADD14C,2.900000*%
%ADD15O,4.900000X2.900000*%
%ADD16R,4.900000X2.900000*%
%ADD17C,2.400000*%
%ADD18O,2.100000X2.100000*%
%ADD19R,2.100000X2.100000*%
%ADD20R,1.900000X1.400000*%
%ADD21C,3.000000*%
%ADD22R,3.000000X3.000000*%
%ADD23R,1.300000X1.100000*%
%ADD24R,2.900000X2.900000*%
G04 APERTURE END LIST*
D10*
X171450000Y-92710000D03*
D11*
X195580000Y-91567000D03*
X195580000Y-114173000D03*
D12*
X124460000Y-117475000D03*
X177800000Y-117475000D03*
X177800000Y-89535000D03*
D13*
X122555000Y-96393000D03*
X122555000Y-98933000D03*
X122555000Y-101854000D03*
X122555000Y-104648000D03*
D14*
X202141000Y-101680000D03*
X199941000Y-111680000D03*
D15*
X188569600Y-98817000D03*
X188569600Y-104267000D03*
D16*
X188569600Y-109717000D03*
D17*
X195580000Y-96981000D03*
X195580000Y-106981000D03*
X130175000Y-119888000D03*
X188595000Y-94615000D03*
X188595000Y-113792000D03*
D18*
X139700000Y-106680000D03*
X139700000Y-104140000D03*
X142240000Y-106680000D03*
X142240000Y-104140000D03*
X144780000Y-106680000D03*
D19*
X144780000Y-104140000D03*
D20*
X124841000Y-104709000D03*
X124841000Y-102809000D03*
X134061200Y-102834400D03*
X134061200Y-104734400D03*
D21*
X161290000Y-88900000D03*
X156210000Y-88900000D03*
D22*
X151130000Y-88900000D03*
D21*
X170688000Y-118364000D03*
X165608000Y-118364000D03*
D22*
X160528000Y-118364000D03*
D23*
X127889000Y-104152000D03*
X127889000Y-105652000D03*
D24*
X155448000Y-118364000D03*
D14*
X150368000Y-118364000D03*
D24*
X125095000Y-92710000D03*
D14*
X125095000Y-87630000D03*
D24*
X145288000Y-118364000D03*
D14*
X140208000Y-118364000D03*
D24*
X178435000Y-105664000D03*
D14*
X178435000Y-100584000D03*
D24*
X171450000Y-88900000D03*
D14*
X166370000Y-88900000D03*
M02*
